<?xml version="1.0" standalone="no"?>
<!DOCTYPE svg PUBLIC "-//W3C//DTD SVG 1.1//EN" "http://www.w3.org/Graphics/SVG/1.1/DTD/svg11.dtd" >
<svg xmlns="http://www.w3.org/2000/svg">
<metadata></metadata>
<defs>
<font id="universal_accreditationRg" horiz-adv-x="458" >
<font-face units-per-em="2048" ascent="1638" descent="-410" />
<missing-glyph horiz-adv-x="229" />
<glyph horiz-adv-x="2048" />
<glyph horiz-adv-x="2048" />
<glyph unicode="&#xd;" horiz-adv-x="2048" />
<glyph unicode=" "  horiz-adv-x="229" />
<glyph unicode="&#x09;" horiz-adv-x="229" />
<glyph unicode="&#xa0;" horiz-adv-x="229" />
<glyph unicode="!" horiz-adv-x="342" d="M229 1473l-24 -1137h-68l-24 1137h116zM121 117h100v-117h-100v117z" />
<glyph unicode="&#x22;" horiz-adv-x="342" d="M39 1473h74v-328h-74v328zM227 1473h74v-328h-74v328z" />
<glyph unicode="#" d="M244 481h-99q-16 -119 -31.5 -240.5t-31.5 -240.5h-72l62 481h-97v74h105q12 92 25.5 181t25.5 184h-100v71h108q16 119 31.5 241t30.5 241h73l-63 -482h100q16 119 31.5 241t30.5 241h73l-63 -482h98v-71h-106q-10 -94 -23.5 -183.5t-25.5 -181.5h98v-74h-107 q-16 -119 -31.5 -240.5t-31.5 -240.5h-72zM303 920h-100q-10 -94 -23.5 -183.5t-25.5 -181.5h98z" />
<glyph unicode="$" d="M322 1319q0 55 -25 72.5t-70 17.5q-43 0 -67.5 -17.5t-24.5 -72.5v-217q0 -35 7.5 -71t25.5 -68l178 -318q23 -43 41.5 -101.5t18.5 -119.5v-297q0 -59 -33 -94t-113 -41v-164h-72v164q-78 8 -108.5 41t-30.5 100v287h86v-266q0 -53 24.5 -70.5t67.5 -17.5q45 0 70 17 t25 71v249q0 55 -9.5 99.5t-33.5 87.5l-181 319q-27 47 -38 103.5t-11 99.5v236q0 57 36 92t103 41v161h72v-161q145 -6 146 -138v-270h-84v246z" />
<glyph unicode="%" horiz-adv-x="569" d="M27 1395q0 86 96 86q92 0 98 -86v-604q0 -41 -25.5 -63.5t-72.5 -22.5q-96 0 -96 86v604zM156 1389q0 16 -8.5 26t-24.5 10t-24.5 -10t-8.5 -26v-592q0 -35 33 -35t33 35v592zM346 682q0 43 25.5 65.5t70.5 22.5q92 0 99 -88v-602q0 -43 -26 -65.5t-73 -22.5 q-45 0 -70.5 22.5t-25.5 65.5v602zM475 676q0 16 -8 26.5t-25 10.5q-16 0 -24 -10.5t-8 -26.5v-590q0 -16 8 -26.5t24 -10.5t24.5 10.5t8.5 26.5v590zM385 1544h70l-275 -1616h-71z" />
<glyph unicode="&#x26;" horiz-adv-x="493" d="M391 129q-4 14 -7 26.5t-7 24.5q0 -37 -8.5 -70.5t-27.5 -60t-52 -42t-84 -15.5q-94 0 -129 64.5t-35 195.5v262q2 59 7 102t20 78q16 39 38.5 81t38.5 81l-55 176q-23 78 -22 187v112q0 59 32.5 104.5t108.5 45.5q70 0 104.5 -38t34.5 -97v-138q0 -45 -6 -90t-20 -84 l-95 -194q23 -72 47.5 -145.5t47.5 -145.5q8 -23 13 -44.5t9 -43.5v401h72v-305q0 -35 -1 -71.5t-3 -71.5q-2 -25 -3 -47.5t-1 -47.5q23 -74 48 -159.5t48 -159.5h-74zM125 231q0 -82 20.5 -123.5t69.5 -41.5q59 0 81.5 52t22.5 120v47q-35 117 -70.5 235.5t-70.5 235.5 q-6 -14 -11 -23.5t-11 -23.5q-16 -47 -23.5 -84t-7.5 -80v-314zM262 1335q0 33 -14.5 53.5t-40.5 20.5q-25 0 -39 -21.5t-14 -48.5v-186q0 -27 3 -55.5t13 -59.5l29 -92q10 25 18 43.5t19 42.5q16 35 21 74t5 68v161z" />
<glyph unicode="'" horiz-adv-x="229" d="M78 1473h72v-328h-72v328z" />
<glyph unicode="(" horiz-adv-x="266" d="M164 -315q-47 207 -71.5 437t-24.5 458q0 225 24.5 455.5t71.5 437.5h67q-39 -201 -55 -432.5t-16 -460.5q0 -231 15 -463t56 -432h-67z" />
<glyph unicode=")" horiz-adv-x="266" d="M100 1473q47 -207 72 -437.5t25 -455.5q0 -227 -25 -458t-72 -437h-67q39 201 55 433t16 462q0 229 -15 460.5t-56 432.5h67z" />
<glyph unicode="*" horiz-adv-x="454" d="M20 1321l166 -18q-23 35 -49 68.5t-49 68.5l74 35l61 -144q16 35 32.5 73t33.5 71l73 -35l-94 -135l82 8l82 8v-82l-164 16q23 -31 47.5 -67.5t46.5 -65.5l-73 -39l-66 148q-16 -35 -30.5 -75t-30.5 -73l-74 39l94 133q-41 -4 -81 -8t-81 -8v82z" />
<glyph unicode="+" horiz-adv-x="1228" d="M573 481h-481v74h481v481h74v-481h481v-74h-481v-481h-74v481z" />
<glyph unicode="," horiz-adv-x="229" d="M84 117h102l-71 -275h-72z" />
<glyph unicode="-" horiz-adv-x="227" d="M12 547h201v-66h-201v66z" />
<glyph unicode="." horiz-adv-x="229" d="M63 117h101v-117h-101v117z" />
<glyph unicode="/" horiz-adv-x="417" d="M322 1606h71l-299 -1737h-74z" />
<glyph unicode="0" d="M63 1343q0 66 42 102t122 36q164 0 164 -146v-1198q0 -70 -41 -107.5t-123 -37.5q-80 0 -122 38t-42 107v1206zM150 147q0 -82 77 -81q80 0 80 81v1178q0 84 -80 84q-78 0 -77 -84v-1178z" />
<glyph unicode="1" d="M199 1319q-18 -31 -42 -69t-40 -66v133l102 156h70v-1473h-86z" />
<glyph unicode="2" d="M63 100l211 838q10 41 14.5 78t4.5 78v231q0 84 -70 84q-39 0 -52 -23.5t-13 -80.5v-191h-86v201q0 80 35.5 123t117.5 43q86 0 119 -47.5t33 -112.5v-219q0 -53 -5 -105.5t-20 -111.5q-53 -201 -107.5 -406t-105.5 -405h252v-74h-328v100z" />
<glyph unicode="3" d="M178 788h27q45 0 68.5 21.5t23.5 93.5v422q0 41 -16.5 62.5t-59.5 21.5q-37 0 -51 -21.5t-14 -62.5v-209h-86v221q0 143 151 144q86 0 123 -37t37 -109v-454q0 -59 -22.5 -87t-51.5 -38q31 -10 57.5 -39t26.5 -101v-479q0 -70 -41 -107.5t-123 -37.5q-80 0 -122 38 t-42 107v244h87v-234q4 -82 75 -81q82 0 82 81v469q0 63 -21.5 82t-76.5 19h-31v71z" />
<glyph unicode="4" d="M268 391h-231v107l190 975h127v-1010h84v-72h-84v-391h-86v391zM264 1303q-4 -25 -9 -53.5t-9 -53.5q-31 -182 -66 -366.5t-67 -366.5h155z" />
<glyph unicode="5" d="M391 168q0 -80 -36 -128t-132 -48q-78 0 -119 45t-41 143v203h87v-225q0 -49 22.5 -70.5t54.5 -21.5q35 0 57.5 20t22.5 86v649q0 41 -14 65.5t-47 24.5q-29 0 -47.5 -12t-28.5 -44t-14 -86t-6 -138l-87 8l17 834h287v-72h-199q-4 -123 -8 -234.5t-8 -236.5 q12 20 36.5 36.5t65.5 16.5q76 0 106.5 -42t30.5 -114v-659z" />
<glyph unicode="6" d="M301 1325q0 84 -76 84t-75 -84l4 -399q31 43 104 43q78 0 105.5 -42t27.5 -114v-676q0 -70 -44 -107.5t-122 -37.5t-120 38t-42 107v1198q0 145 162 146q160 0 160 -146v-254h-84v244zM307 809q0 88 -76 88q-31 0 -56 -30.5t-25 -78.5v-641q0 -41 22.5 -61t63.5 -20 q72 0 71 81v662z" />
<glyph unicode="7" d="M63 1473h328v-72l-170 -1401h-92l178 1401h-244v72z" />
<glyph unicode="8" d="M63 694q0 51 20.5 79t49.5 40q-57 25 -57 125v405q0 66 34.5 102t114.5 36q82 0 118 -36t36 -102v-405q-2 -51 -14.5 -82t-40.5 -45q29 -10 48 -40t19 -77v-557q0 -70 -43 -107.5t-123 -37.5q-78 0 -120 38t-42 107v557zM295 1339q0 35 -13.5 52.5t-54.5 17.5 q-39 0 -52 -17.5t-13 -52.5v-421q0 -31 13 -50.5t52 -19.5q41 0 54.5 19.5t13.5 50.5v421zM307 692q0 41 -15.5 61.5t-66.5 20.5q-47 0 -61 -20.5t-14 -61.5v-545q0 -41 14 -61t61 -20q51 0 66.5 20t15.5 61v545z" />
<glyph unicode="9" d="M156 147q0 -82 73 -81q78 0 78 81l-4 402q-31 -45 -104 -45q-78 0 -107 42t-29 113v676q0 72 44.5 109t121.5 37q162 0 162 -146v-1198q0 -70 -41 -107.5t-121 -37.5q-78 0 -118.5 38t-40.5 107v256h86v-246zM150 664q0 -86 73 -86q31 0 57.5 29.5t26.5 76.5v641 q0 84 -88 84q-70 0 -69 -84v-661z" />
<glyph unicode=":" horiz-adv-x="229" d="M63 1028h101v-117h-101v117zM63 117h101v-117h-101v117z" />
<glyph unicode=";" horiz-adv-x="229" d="M84 117h102l-71 -275h-72zM84 1028h100v-117h-100v117z" />
<glyph unicode="&#x3c;" horiz-adv-x="614" d="M45 563l518 502v-76l-477 -461q119 -117 238.5 -232.5t238.5 -232.5v-75l-518 506v69z" />
<glyph unicode="=" horiz-adv-x="614" d="M45 752h518v-74h-518v74zM45 358h518v-73h-518v73z" />
<glyph unicode="&#x3e;" horiz-adv-x="614" d="M563 494l-518 -506v75l479 465l-479 461v76l518 -502v-69z" />
<glyph unicode="?" horiz-adv-x="454" d="M86 1329q0 66 33 109t110 43q88 0 125 -36t37 -142v-193q0 -59 -11 -117.5t-28 -107.5l-37 -111q-20 -57 -30.5 -98t-10.5 -98v-242h-84v289q0 59 17.5 116.5t40.5 116.5q23 57 40 112.5t19 112.5v242q0 49 -20.5 66.5t-50.5 17.5q-33 0 -48.5 -19.5t-15.5 -66.5v-203 h-86v209zM186 117h101v-117h-101v117z" />
<glyph unicode="@" horiz-adv-x="1003" d="M633 840q0 74 -24.5 117.5t-82.5 43.5q-53 0 -95 -35.5t-71.5 -90t-45 -119t-15.5 -119.5q0 -80 31.5 -123t87.5 -43q37 0 74.5 32t69.5 84t51.5 118.5t19.5 134.5zM696 1034h54l-113 -434q-6 -23 -12.5 -46.5t-6.5 -37.5q0 -18 14.5 -31.5t31.5 -13.5q39 0 77.5 30.5 t67.5 82t47 115t18 130.5q0 92 -30.5 165t-80.5 122t-114.5 76t-132.5 27q-84 0 -156.5 -39t-126 -106.5t-85 -156t-31.5 -186.5q0 -104 31.5 -192t87 -150.5t128 -98.5t154.5 -36q98 0 188.5 58.5t143.5 156.5h57q-29 -66 -71.5 -117t-94 -86t-109 -54t-114.5 -19 q-100 0 -183 40.5t-143.5 114.5t-94.5 174.5t-34 218.5q0 115 35 213.5t95.5 171t142.5 113.5t176 41q88 0 164 -31.5t132 -91t88 -143.5t32 -187q0 -82 -25.5 -158.5t-66.5 -135t-90.5 -93t-98.5 -34.5q-33 0 -57.5 23.5t-28.5 74.5q-59 -98 -158 -98q-37 0 -65.5 18 t-50 49t-32.5 72t-11 86q0 76 20.5 152.5t58 139t91 102.5t118.5 40q57 0 92 -43t44 -92z" />
<glyph unicode="A" horiz-adv-x="499" d="M338 428h-188q-10 -104 -22.5 -214t-23.5 -214h-84l164 1479h125l170 -1479h-94zM332 502q-12 121 -25.5 237.5t-25.5 237.5q-4 20 -5.5 41.5t-5.5 42.5q-4 45 -8 79t-7 66.5t-7 67.5t-6 80q-4 -39 -6.5 -78t-6.5 -78q-4 -57 -8 -111.5t-10 -109.5q-12 -117 -26.5 -238 t-26.5 -237h174z" />
<glyph unicode="B" horiz-adv-x="493" d="M61 1479h183q78 0 127 -38t49 -124v-428q0 -53 -26.5 -83t-67.5 -42q43 -10 73.5 -42t30.5 -97v-463q0 -86 -47 -124t-119 -38h-203v1479zM238 797q53 0 70.5 30.5t17.5 65.5v428q0 45 -18.5 64.5t-74.5 19.5h-77v-608h82zM156 723v-649h77q57 0 80 20.5t23 61.5v467 q0 100 -98 100h-82z" />
<glyph unicode="C" horiz-adv-x="417" d="M33 1323q0 78 47 121t133 43q84 0 127 -43t43 -121v-248h-94v236q0 41 -15.5 71.5t-60.5 30.5q-41 0 -63.5 -22.5t-22.5 -61.5v-1179q0 -39 22.5 -61.5t63.5 -22.5q45 0 60.5 24.5t15.5 77.5v256h94v-268q0 -78 -43 -121t-127 -43q-86 0 -133 43t-47 121v1167z" />
<glyph unicode="D" horiz-adv-x="493" d="M61 1479h181q92 0 140 -38t48 -124v-1155q0 -86 -48 -124t-140 -38h-181v1479zM233 74q102 0 103 82v1167q0 82 -103 82h-77v-1331h77z" />
<glyph unicode="E" horiz-adv-x="378" d="M61 1479h291v-74h-196v-608h184v-74h-184v-649h211v-74h-306v1479z" />
<glyph unicode="F" horiz-adv-x="342" d="M61 1479h291v-74h-196v-608h188v-74h-188v-723h-95v1479z" />
<glyph unicode="G" horiz-adv-x="493" d="M254 719h176v-678l-18 -14q-23 -14 -65 -24.5t-101 -10.5q-88 0 -136.5 43t-48.5 121v1167q0 78 48.5 121t136.5 43q90 0 137 -43t47 -121v-244h-94v234q0 45 -25.5 72.5t-64.5 27.5q-37 0 -63.5 -27.5t-26.5 -72.5v-1163q0 -39 26.5 -61.5t63.5 -22.5q29 0 51 6t39 16 v557h-82v74z" />
<glyph unicode="H" horiz-adv-x="493" d="M61 1479h95v-682h180v682h94v-1479h-94v723h-180v-723h-95v1479z" />
<glyph unicode="I" horiz-adv-x="229" d="M68 1479h94v-1479h-94v1479z" />
<glyph unicode="J" horiz-adv-x="378" d="M92 403v-253q0 -39 13.5 -61.5t52.5 -22.5t51 22.5t12 61.5v1329h94v-1332q0 -72 -44 -113.5t-113 -41.5q-72 0 -116 42t-44 113v256h94z" />
<glyph unicode="K" horiz-adv-x="417" d="M61 1479h95v-1479h-95v1479zM143 782l203 697h86l-203 -697q53 -190 111.5 -391t112.5 -391h-95z" />
<glyph unicode="L" horiz-adv-x="378" d="M61 1479h95v-1405h213v-74h-308v1479z" />
<glyph unicode="M" horiz-adv-x="681" d="M68 1479h147l88 -889l11 -104.5t9.5 -94.5t7.5 -98l7 -119q6 104 14 217t19 199q23 213 47 443.5t47 445.5h145v-1479h-92v915q0 35 1 70t1 76t1 92t1 119q-4 -37 -8 -77t-8 -75q-8 -78 -15.5 -153.5t-13.5 -135.5q-18 -199 -40.5 -416.5t-41.5 -414.5h-112l-84 823 q-2 20 -4 45t-7 54q-6 55 -10 96t-8 79t-8 76.5t-8 88.5q2 -55 3 -105.5t3 -95.5q2 -39 2 -81v-65v-915h-94v1479z" />
<glyph unicode="N" horiz-adv-x="530" d="M61 1479h136l137 -953q18 -145 53 -354q-6 123 -10 219t-4 148v940h94v-1479h-135l-142 940q-8 53 -20 156.5t-27 222.5q2 -59 4.5 -112.5t4.5 -96.5q2 -45 3 -77t1 -48v-985h-95v1479z" />
<glyph unicode="O" horiz-adv-x="493" d="M430 156q0 -78 -47 -121t-137 -43q-88 0 -136.5 43t-48.5 121v1167q0 78 48.5 121t136.5 43q90 0 137 -43t47 -121v-1167zM336 1321q0 45 -24.5 68.5t-65.5 23.5t-65.5 -23.5t-24.5 -68.5v-1163q0 -45 24.5 -68.5t65.5 -23.5t65.5 23.5t24.5 68.5v1163z" />
<glyph unicode="P" horiz-adv-x="454" d="M61 1479h189q174 0 174 -146v-479q0 -66 -44 -106.5t-130 -40.5h-94v-707h-95v1479zM238 780q41 0 66.5 20.5t25.5 61.5v459q0 43 -24.5 63.5t-67.5 20.5h-82v-625h82z" />
<glyph unicode="Q" horiz-adv-x="493" d="M61 1323q0 78 48.5 121t138.5 43q88 0 135 -43t47 -121v-1135q0 -49 -7 -73.5t-36 -48.5q4 0 13.5 2t13.5 2q12 2 23.5 3t21.5 1h28v-74h-145q-23 -2 -47.5 -4t-46.5 -4q-90 0 -138.5 43t-48.5 121v1167zM336 1323q0 43 -23.5 66.5t-64.5 23.5t-66.5 -23.5t-25.5 -66.5 v-1165q0 -45 25.5 -68.5t66.5 -23.5t64.5 23.5t23.5 68.5v1165z" />
<glyph unicode="R" horiz-adv-x="493" d="M61 1479h189q78 0 126 -35t48 -107v-434q0 -53 -18.5 -91t-79.5 -54q41 -12 69.5 -45t28.5 -90v-623h-94v623q0 39 -23.5 69.5t-81.5 30.5h-69v-723h-95v1479zM229 797q100 0 101 90v434q0 84 -92 84h-82v-608h73z" />
<glyph unicode="S" horiz-adv-x="428" d="M119 147q0 -33 17.5 -57t70.5 -24q47 0 69.5 19t22.5 67v251q0 57 -10 97.5t-33 91.5l-170 321q-25 47 -39 103.5t-14 97.5v215q0 74 47 116t129 42q86 0 129 -34t43 -107v-269h-86v260q0 76 -80 76q-41 0 -61.5 -23.5t-20.5 -56.5v-227q0 -68 33 -139q41 -78 83 -159 t83 -161q27 -51 44 -105.5t17 -117.5v-277q0 -72 -41 -113.5t-139 -41.5t-139 42t-41 120v266h86v-273z" />
<glyph unicode="T" horiz-adv-x="344" d="M125 1405h-145v74h382v-74h-145v-1405h-92v1405z" />
<glyph unicode="U" horiz-adv-x="493" d="M430 1479v-1323q0 -78 -47 -121t-137 -43q-88 0 -136.5 43t-48.5 121v1323h95v-1321q0 -45 24.5 -68.5t65.5 -23.5t65.5 23.5t24.5 68.5v1321h94z" />
<glyph unicode="V" horiz-adv-x="417" d="M-12 1479h94l98 -973q6 -68 11.5 -132.5t9.5 -129.5q4 -66 12 -127q4 47 7 95t7 95q2 47 5.5 98.5t7.5 100.5l96 973h92l-160 -1479h-121z" />
<glyph unicode="W" horiz-adv-x="681" d="M367 936q-4 25 -5.5 53.5t-5.5 52.5q-4 45 -8 80t-7 67t-6 66.5t-5 81.5q-4 -47 -6 -92t-5 -92q-4 -53 -7 -109.5t-7 -111.5l-80 -932h-121l-102 1479h84l59 -904q2 -23 3.5 -49t3.5 -49q2 -51 5 -91t5 -79t4 -80t6 -92q4 53 6 107.5t4 107.5q4 55 6 111.5t7 113.5 l79 904h125l78 -904q6 -61 10.5 -108t8.5 -93t7 -95.5t7 -110.5q2 27 3 62.5t1 62.5q4 70 7 140.5t7 141.5l66 904h84l-111 -1479h-114z" />
<glyph unicode="X" horiz-adv-x="417" d="M-4 1479h96l121 -617q29 150 61.5 308.5t61.5 308.5h88l-158 -709q41 -190 84 -386t84 -384h-96l-129 676q-16 -80 -33.5 -166t-36 -173t-36 -172t-33.5 -165h-88l168 770z" />
<glyph unicode="Y" horiz-adv-x="417" d="M330 1479h96l-172 -895v-584h-92v584q-18 100 -41 215.5t-45.5 232.5t-45 231.5t-40.5 215.5h96l125 -760z" />
<glyph unicode="Z" horiz-adv-x="342" d="M-6 90l246 1315h-224v74h312v-90l-246 -1315h264v-74h-352v90z" />
<glyph unicode="[" horiz-adv-x="342" d="M86 1473h219v-72h-133v-1645h133v-71h-219v1788z" />
<glyph unicode="\" horiz-adv-x="417" d="M20 1606h74l299 -1737h-74z" />
<glyph unicode="]" horiz-adv-x="342" d="M254 -315h-219v71h133v1645h-133v72h219v-1788z" />
<glyph unicode="^" horiz-adv-x="614" d="M537 545l-232 848q-57 -211 -115.5 -424t-115.5 -424h-39l250 928h41l247 -928h-36z" />
<glyph unicode="_" horiz-adv-x="1024" d="M-2 -254v115h1024v-115h-1024z" />
<glyph unicode="`" horiz-adv-x="192" d="M-37 1405h107l86 -207h-66z" />
<glyph unicode="a" horiz-adv-x="1472" d="M166 1229v24q-2 6 -2 12.5t-2 12.5q-2 10 -2 18.5t-2 18.5q-4 20 -4 31v13t-2 15q0 8 -1 17.5t-1 19.5q0 -10 -1.5 -20.5t-1.5 -20.5q-2 -10 -2 -20.5t-2 -20.5v-25.5t-2 -25.5t-2 -25.5v-25.5l-37 -424h-55l-47 674h39l27 -412v-25q0 -4 1 -9t1 -9q2 -12 2 -22.5v-20.5 q2 -10 2 -18.5t2 -18.5q0 -8 1 -16t1 -19v-21.5t2 -21.5q2 10 2 23.5v25.5v24.5t2 25.5q0 12 1 24t3 25v26.5t2 26.5l37 412h57l35 -412q0 -14 1 -26.5t3 -22.5q2 -12 2 -22.5t2 -20.5q0 -10 1 -21.5t1 -21.5t1 -23.5t3 -27.5q2 8 2 28v29q0 16 1.5 31.5t3.5 31.5t2 33v33 l30 412h37l-49 -674h-51zM338 1477h86q35 0 55 -15q25 -18 25 -51v-197q0 -23 -10 -43q-6 -14 -35 -24q14 -6 30 -21q14 -18 15 -41v-282h-45v282q0 23 -10 33q-10 12 -37 12h-31v-327h-43v674zM416 1165q43 0 43 41v197q0 41 -43 41h-35v-279h35zM565 1477h43v-674h-43v674 zM694 1444h-65v33h176v-33h-68v-641h-43v641zM852 1444h-66v33h175v-33h-66v-641h-43v641zM981 1477h133v-33h-90v-279h84v-35h-84v-294h94v-33h-137v674zM1153 1477h61l62 -437q8 -66 24 -159q-2 29 -2 53t-2 47t-2 39v29v428h43v-674h-61l-64 426q-4 12 -6 31.5t-2 42.5 q-4 23 -7 47t-7 53q0 -12 1 -25.5t1 -25.5v-22.5t2 -20.5v-18.5t2 -18.5v-21v-448h-43v674zM979 674h82q35 0 57 -17q25 -18 25 -57v-194q0 -25 -13 -39q-12 -12 -30 -19q23 -8 33 -20q12 -10 12 -43v-211q0 -20 -4 -32.5t-17 -23.5q-16 -18 -53 -18h-92v674zM1059 362 q25 0 33 15q8 10 8 31v194q0 23 -10 29q-6 10 -33 10h-35v-279h37zM1022 328v-295h35q29 0 37 10q8 6 8 29v211q0 45 -43 45h-37zM1325 674h45l-80 -408v-266h-41v266q-4 23 -9 46.5t-9 52.5q-4 27 -9 52t-12 52q-4 29 -10 54.5t-12 51.5q-4 27 -8 51.5t-9 47.5h43l58 -346z " />
<glyph unicode="b" horiz-adv-x="1429" d="M0 1403q0 39 20 57t60 19q41 0 57 -19q23 -18 23 -57v-111h-43v107q0 16 -8 33q-8 14 -29 14q-8 0 -15.5 -2t-11.5 -10q-10 -6 -10 -25v-539q0 -18 10 -28q6 -8 27 -8q20 0 29 8q8 16 8 37v116h43v-121q0 -33 -23 -55q-14 -20 -57 -20q-39 0 -60 20q-20 20 -20 55v529z M328 997h-84q-4 -23 -6 -47t-5 -49q-6 -53 -12 -98h-37l74 674h57l78 -674h-45zM326 1032q-4 27 -6.5 53.5t-6.5 55.5q-4 25 -6 51.5t-4 54.5q-2 6 -2 21q0 6 -4 18q-2 10 -2 18.5t-2 16.5q-2 10 -2 31q0 10 -4 30q0 8 -1 17.5t-1 19.5q-2 -10 -2 -18t-2 -19q0 -8 -1 -16 t-1 -18q-2 -12 -2.5 -24.5t-2.5 -25.5q0 -12 -1 -25t-3 -26q-4 -27 -6 -53.5t-6 -52.5q-4 -29 -6 -55.5t-4 -53.5h78zM455 868q0 -16 8 -26q6 -8 33 -8q25 0 30 8q12 8 13 28v115q0 27 -7 45q-2 8 -6 19.5t-8 21.5l-78 148q-4 10 -9 21t-9 26q-2 14 -4 24t-2 19v98 q0 35 20 55q23 16 60 17q39 0 59 -15q20 -16 20 -49v-121h-38v117q0 35 -37 35q-16 0 -29 -12q-8 -6 -8 -25v-102q0 -35 14 -64l37 -74q10 -16 19.5 -35.5t19.5 -35.5q12 -23 18 -49q10 -27 11 -54v-127q0 -27 -19 -49q-18 -20 -65 -20t-62 20q-20 18 -20 53v123h39v-127z M653 1444h-65v33h174v-33h-66v-641h-43v641zM784 1477h43v-674h-43v674zM887 1477h59l64 -437q8 -66 24 -159q-2 55 -6 100v68v428h43v-674h-63l-62 426q-4 12 -6 31.5t-6 42.5q-2 23 -4 47t-6 53v-51q2 -12 2 -22.5t2 -20.5q0 -10 1 -18.5t1 -18.5v-21v-448h-43v674z M1214 1130h82v-309l-10 -6q-4 -4 -11 -7t-18 -3q-23 -6 -47 -6q-39 0 -59 20q-23 20 -23 55v529q0 41 23 57q20 18 59 19q41 0 64 -19q23 -23 22 -57v-109h-43v107q0 18 -14 33q-10 12 -29 12q-14 0 -28 -12q-4 -8 -8.5 -15.5t-4.5 -17.5v-531q0 -10 4.5 -16t8.5 -12 q14 -8 28 -8h25q4 4 9 4t9 4v256h-39v32zM936 674h84q35 0 57 -17q23 -18 23 -57v-194q0 -25 -13 -39q-12 -12 -30 -19q20 -6 35 -20q14 -14 14 -43v-211q0 -20 -6 -32.5t-17 -23.5q-18 -18 -55 -18h-92v674zM1018 362q23 0 31 15q8 10 8 31v194q0 23 -8 29q-6 10 -33 10 h-37v-279h39zM979 328v-295h37q27 0 35 10q12 8 12 29v211q0 45 -45 45h-39zM1282 674h45l-78 -408v-266h-41v266q-4 23 -9 46.5t-11 52.5q-6 27 -10 52t-11 52q-4 29 -9 54.5t-9 51.5q-6 27 -11 51.5t-10 47.5h43l58 -346z" />
<glyph unicode="c" horiz-adv-x="1097" d="M0 1477h68l38 -406q2 -14 2.5 -25.5t2.5 -21.5q4 -10 4 -21.5v-21.5q2 -10 3 -21.5t1 -23.5v-23.5t2 -29.5q4 23 4 48t4 50q2 27 4 48.5t2 41.5q8 49 12.5 99.5t10.5 101.5q6 53 11 104t11 101h66v-674h-41v418v30v35v43q2 10 2 23.5v29.5q-2 -8 -2 -17t-2 -19 q-4 -20 -4 -31q-6 -41 -6 -72q-4 -16 -4.5 -31.5t-4.5 -29.5q-4 -47 -8 -94.5t-10 -96.5q-4 -49 -8 -95t-8 -93h-54l-37 375q-2 6 -2 22q0 6 -4 23q-2 12 -2 23t-2 22q-2 8 -2 16v19q-2 10 -3 17t-3 17q0 8 -1 17.5t-3 21.5q2 -12 2 -23.5t2 -21.5v-45v-37v-28v-418h-41v674 zM475 1477v-603q0 -35 -20 -55t-64 -20q-41 0 -61 20q-20 18 -21 55v603h41v-603q0 -23 10 -32q10 -8 31 -8q18 0 29 8q12 12 12 32v603h43zM557 868q0 -16 8 -26q8 -8 33 -8t31 8q10 10 10 28v115v24.5t-4 20.5q-4 8 -7 19.5t-10 21.5l-75 148q-12 18 -19 47q-6 27 -6 43 v98q0 31 21 55q27 16 59 17q43 0 59 -15q18 -16 19 -49v-121h-37v117q0 35 -37 35q-18 0 -31 -12q-8 -8 -8 -25v-102q0 -29 15 -64q10 -18 19 -36.5t19 -37.5q10 -16 19.5 -35.5t19.5 -35.5q4 -10 9.5 -22.5t9.5 -26.5q8 -23 8 -54v-127q0 -27 -18 -49q-18 -20 -62 -20 q-47 0 -65 20q-18 18 -19 53v123h39v-127zM729 1477h43v-674h-43v674zM817 1403q0 39 21 57q25 18 61 19q39 0 57 -19q20 -20 21 -57v-111h-43v107q0 23 -8 33q-6 14 -27 14q-18 0 -29 -12q-10 -6 -10 -25v-539q0 -14 10 -28q10 -8 29 -8q20 0 27 8q8 10 8 37v116h43v-121 q0 -18 -5 -31.5t-16 -23.5q-18 -20 -57 -20t-61 20q-20 20 -21 55v529zM606 674h82q37 0 60 -17q23 -18 22 -57v-194q0 -12 -4 -21.5t-8 -17.5q-16 -12 -31 -19q18 -6 33 -20q16 -12 16 -43v-211q0 -20 -6 -32.5t-16 -23.5q-20 -18 -56 -18h-92v674zM686 362q23 0 31 15 q10 14 10 31v194q0 23 -10 29q-6 10 -31 10h-37v-279h37zM649 328v-295h37q27 0 35 10q10 8 10 29v211q0 45 -45 45h-37zM952 674h43l-75 -408v-266h-43v266q-4 23 -9.5 46.5t-9.5 52.5q-6 27 -11 52t-9 52q-4 29 -10.5 54.5t-10.5 51.5q-6 27 -10 51.5t-8 47.5h43l57 -346z " />
<glyph unicode="d" horiz-adv-x="1626" d="M70 1403q0 37 20 57q20 18 64 19q35 0 57 -19q18 -18 18 -57v-111h-43v107q0 23 -8 33q-6 14 -24 14q-20 0 -31 -12q-10 -6 -10 -25v-539q0 -14 10 -28q10 -8 31 -8q18 0 24 8q8 10 8 37v116h43v-121q0 -35 -18 -55q-20 -20 -57 -20q-43 0 -64 20q-10 10 -15 23.5 t-5 31.5v529zM440 874q0 -37 -18 -55q-23 -20 -66 -20q-41 0 -61 20t-21 55v529q0 39 21 57q20 18 61 19q41 0 66 -19q18 -16 18 -57v-529zM399 1403q0 10 -3 18.5t-7 12.5q-16 12 -33 12q-16 0 -28 -12q-10 -6 -11 -31v-529q0 -23 11 -32q10 -8 28 -8t33 8q4 6 7 14t3 18 v529zM524 868q0 -6 1 -13t5 -13q8 -8 35 -8q23 0 31 8q10 8 10 28v115q0 14 -1 24.5t-3 20.5q-4 8 -7 19.5t-9 21.5l-76 148q-12 18 -18 47q-4 14 -6.5 24t-2.5 19v98q0 16 6.5 30.5t16.5 24.5q23 16 59 17q43 0 60 -15q18 -16 18 -49v-121h-39v117q0 35 -37 35 q-16 0 -28 -12q-8 -8 -9 -25v-102q0 -29 15 -64q10 -18 19 -36.5t20 -37.5q10 -16 19 -35.5t18 -35.5q10 -16 20 -49q4 -12 6 -24.5t2 -29.5v-127q0 -31 -20 -49q-14 -20 -62 -20q-45 0 -63 20q-20 20 -21 53v123h41v-127zM723 1444h-68v33h174v-33h-65v-641h-41v641z M1018 1477v-603q0 -18 -5 -31.5t-16 -23.5q-23 -20 -63 -20q-41 0 -62 20q-23 23 -22 55v603h41v-603q0 -16 12 -32q10 -8 31 -8q20 0 29 8q14 14 14 32v603h41zM1077 1477h66l41 -406q2 -14 3 -25.5t3 -21.5t2 -21.5t2 -21.5t2 -21.5v-23.5q0 -10 1 -23.5t3 -29.5 q0 23 2 48l4 50q4 27 4 48.5t4 41.5q6 49 11.5 99.5t11.5 101.5q4 53 10 104t10 101h68v-674h-43v418v30v35v43v53v-17t-2 -19q0 -14 -4 -31q-2 -20 -4 -37.5t-4 -34.5q0 -16 -1 -31.5t-3 -29.5q-4 -47 -9.5 -94.5t-11.5 -96.5q-6 -94 -18 -188h-49l-39 375q0 12 -2 22v10.5 t-2 12.5q-2 12 -3.5 23t-1.5 22q-2 8 -3 16t-3 19v17t-2 17q-2 8 -2 17.5t-2 21.5q2 -12 2 -23.5v-21.5v-23.5t2 -21.5v-37v-28v-418h-43v674zM1384 1477h134v-33h-91v-279h84v-35h-84v-294h97v-33h-140v674zM0 674h80q41 0 63 -17q23 -16 23 -57v-526q0 -39 -23 -56 q-18 -18 -63 -18h-80v674zM76 33q47 0 47 39v530q0 39 -47 39h-33v-608h33zM221 674h135v-33h-92v-279h86v-34h-86v-295h98v-33h-141v674zM422 66q0 -6 1 -13.5t5 -11.5q8 -10 33 -10q23 0 33 8q4 4 7 11t3 18v114q0 27 -6 45q-2 10 -6.5 20.5t-8.5 20.5l-77 148 q-10 20 -17 47q-8 25 -8 45v96q0 33 22 55q23 16 60 17q41 0 57 -14q20 -14 21 -50v-120h-39v116q0 37 -37 37q-16 0 -29 -12q-10 -10 -10 -27v-104q0 -27 14 -62q16 -35 41 -71l37 -74q4 -10 10.5 -22.5t10.5 -26.5q4 -12 6 -24.5t2 -28.5v-127q0 -27 -21 -52 q-23 -18 -63 -18q-41 0 -64 18q-8 10 -13 24.5t-5 31.5v123h41v-127zM594 674h41v-674h-41v674zM782 328h78v-310l-6 -6q-6 -4 -13 -6t-18 -4q-16 -6 -45 -6q-39 0 -63 20q-20 20 -21 56v530q0 37 21 55q20 18 63 19q43 0 62 -19q20 -16 20 -55v-110h-43v106q0 23 -8 33 q-14 14 -31 14q-14 0 -28 -14q-12 -12 -13 -33v-530q0 -18 13 -27q10 -10 28 -10q16 0 23 2q10 0 16 8v254h-35v33zM918 674h63l63 -434q4 -35 9.5 -75t13.5 -87q-2 29 -2 53.5t-2 46.5q-2 23 -2 39v29v428h43v-674h-62l-65 428q0 12 -2 30.5t-6 41.5t-6 48t-7 54 q0 -14 1 -27.5t1 -25.5q2 -12 2.5 -22.5t0.5 -20.5t1 -18.5t1 -18.5v-20v-449h-45v674zM1159 674h135v-33h-90v-279h82v-34h-82v-295h94v-33h-139v674zM1331 674h86q37 0 58 -15q23 -18 22 -51v-196q0 -25 -8 -41q-6 -16 -35 -27q16 -6 31 -20q12 -16 12 -41v-283h-43v283 q0 18 -10 32q-10 12 -37 13h-33v-328h-43v674zM1409 362q45 0 45 41v199q0 39 -41 39h-39v-279h35z" />
<glyph unicode="e" horiz-adv-x="1132" d="M0 1477h131v-33h-88v-279h84v-32h-84v-297h96v-33h-139v674zM172 1477h82q47 0 63 -19q23 -14 23 -55v-526q0 -39 -23 -56q-18 -18 -63 -18h-82v674zM250 836q47 0 47 36v535q0 37 -47 37h-35v-608h35zM401 1477h41v-674h-41v674zM530 1444h-65v33h174v-33h-66v-641h-43 v641zM659 1477h132v-33h-89v-279h84v-32h-84v-297h97v-33h-140v674zM831 1477h82q45 0 64 -19q23 -14 22 -55v-526q0 -39 -22 -56q-23 -18 -64 -18h-82v674zM909 836q45 0 45 36v535q0 37 -45 37h-35v-608h35zM641 674h82q39 0 57 -19q23 -14 23 -55v-197q0 -23 -12 -36 q-14 -14 -31 -19q18 -2 35 -18q14 -18 14 -45v-211q0 -39 -21 -56q-25 -18 -55 -18h-92v674zM721 362q25 0 31 15q8 10 8 31v194q0 20 -8 29q-6 8 -33 8h-35v-277h37zM684 330v-297h35q27 0 37 10t10 27v213q0 47 -45 47h-37zM987 674h43l-76 -408v-266h-43v266 q-4 23 -9 47.5t-9 51.5q-4 25 -11.5 52t-11.5 52q-4 29 -9 54.5t-9 51.5q-4 27 -10 50.5t-11 48.5h46l57 -346z" />
<glyph unicode="f" horiz-adv-x="2070" d="M0 1477h86q78 0 78 -66v-219q0 -31 -21 -49q-18 -18 -57 -19h-45v-321h-41v674zM80 1159q14 0 31 10q10 4 10 25v211q0 20 -10 29q-14 10 -31 10h-39v-285h39zM207 1477h86q35 0 57 -17q20 -14 21 -47v-199q0 -27 -9 -43q-12 -16 -36 -22q20 -10 32 -21q12 -16 13 -43 v-282h-41v282q0 16 -13 33q-8 14 -36 15h-31v-330h-43v674zM285 1165q45 0 45 43v197q0 39 -45 39h-35v-279h35zM600 872q0 -37 -22 -53q-20 -20 -62 -20q-43 0 -63 20q-20 18 -21 53v533q0 35 21 55q25 20 63 21q37 0 62 -21q23 -20 22 -55v-533zM555 1405q0 23 -10 31 q-10 10 -29 10q-20 0 -31 -10q-10 -8 -10 -31v-533q0 -20 10 -28q6 -8 13.5 -9t17.5 -1t16.5 1t12.5 9q10 8 10 28v533zM657 1477h82q43 0 64 -19q23 -16 22 -55v-526q0 -37 -22 -56q-25 -18 -64 -18h-82v674zM735 836q45 0 45 36v535q0 37 -45 37h-35v-608h35zM1049 1477 v-605q0 -33 -21 -53q-23 -20 -63 -20q-41 0 -62 20q-20 18 -20 53v605h41v-605q0 -18 10 -28q6 -8 13 -9t18 -1q10 0 17 1t11 9q12 8 13 28v605h43zM1092 1405q0 33 22 55q20 20 62 21q33 0 57 -21q18 -18 18 -55v-113h-43v109q0 16 -6 33q-6 12 -26 12t-31 -10 q-10 -10 -10 -29v-537q0 -14 10 -28q6 -6 13 -7t18 -1q20 0 26 10q6 12 6 37v114h43v-123q0 -35 -18 -53q-20 -20 -57 -20q-43 0 -62 20q-23 18 -22 53v533zM1325 1444h-68v33h177v-33h-68v-641h-41v641zM1456 1477h43v-674h-43v674zM1726 872q0 -35 -22 -53 q-23 -20 -64 -20t-61 20q-20 18 -20 53v533q0 35 20 55q25 20 61 21q23 0 37.5 -5.5t26.5 -15.5q23 -23 22 -55v-533zM1681 1405q0 20 -10 31q-10 10 -31 10q-18 0 -30 -10q-8 -8 -8 -31v-533q0 -20 8 -28t15 -9t15 -1q10 0 17.5 1t13.5 9q10 10 10 28v533zM1784 1477h59 l62 -435q4 -35 11 -73.5t13 -85.5q0 29 -1 52t-3 46v66v430h43v-674h-63l-64 428q-2 12 -4 30.5t-4 41.5q-4 25 -7 49t-5 53q0 -16 1 -28.5t1 -22.5v-45v-35q2 -10 2 -23v-448h-41v674zM463 674h82q41 0 63 -19q25 -18 25 -55v-526q0 -37 -25 -56q-23 -18 -63 -18h-82v674z M543 33q45 0 45 37v532q0 37 -45 37h-37v-606h37zM688 674h133v-35h-92v-277h86v-32h-86v-297h96v-33h-137v674zM885 68q0 -8 2 -14.5t6 -14.5q8 -8 33 -8q27 0 32 8q10 10 11 29v116q0 25 -6 43q-2 10 -6.5 19.5t-8.5 23.5l-78 146q-10 27 -16 47q-4 12 -6 22.5t-2 20.5v98 q0 35 22 53q27 20 60 21q37 0 59 -16q18 -16 19 -50v-120h-39v118q0 33 -37 33q-16 0 -27 -10q-10 -10 -10 -25v-104q0 -33 14 -64q10 -16 18.5 -35.5t18.5 -35.5q10 -20 19.5 -38t19.5 -36q6 -12 11 -24.5t10 -24.5q4 -10 6 -24.5t2 -28.5v-125q0 -33 -21 -54 q-16 -18 -63 -18q-45 0 -64 18q-8 10 -13 23.5t-5 32.5v123h39v-125zM1059 674h43v-674h-43v674zM1247 328h80v-310l-8 -6q-4 -4 -12.5 -6t-16.5 -6q-10 -2 -21.5 -3t-25.5 -1q-41 0 -61 20q-23 16 -23 54v532q0 35 23 55q25 20 61 21q23 0 37 -5t27 -16q20 -20 20 -55v-110 h-43v106q0 23 -12 33q-10 12 -29 12q-16 0 -29 -12q-10 -10 -10 -33v-530q0 -18 10 -29q6 -6 13.5 -7t15.5 -1h25l8 4l8 4v256h-37v33zM1384 674h62l61 -434q4 -35 11.5 -75t13.5 -87q0 29 -1 53.5t-3 46.5q-2 23 -2 39v27v430h45v-674h-64l-63 428q-2 12 -4 29.5t-4 42.5 q-10 49 -13 100v-49q2 -14 2 -24.5v-20.5v-18.5t2 -16.5v-22v-449h-43v674zM1626 674h133v-35h-90v-277h84v-32h-84v-297h96v-33h-139v674zM1798 674h86q35 0 58 -17q23 -14 22 -47v-200q0 -10 -2 -20.5t-6 -20.5q-10 -16 -37 -23q20 -10 31 -20q6 -10 10 -19.5t4 -23.5 v-283h-43v283q0 18 -10 32q-12 14 -39 15h-31v-330h-43v674zM1874 362q47 0 47 41v199q0 37 -41 37h-39v-277h33z" />
<glyph unicode="g" horiz-adv-x="2416" d="M330 1477h84q45 0 63 -19q20 -16 21 -55v-526q0 -35 -21 -56q-23 -18 -63 -18h-84v674zM408 836q47 0 47 36v535q0 37 -47 37h-33v-608h33zM557 1477h43v-674h-43v674zM659 1477h86q35 0 58 -17q20 -12 20 -47v-199q0 -27 -8 -43t-37 -22q20 -10 33 -21q12 -16 12 -43 v-282h-43v282q0 23 -8 33q-12 14 -39 15h-31v-330h-43v674zM735 1165q45 0 45 43v197q0 39 -41 39h-37v-279h33zM885 1477h131v-33h-88v-279h82v-32h-82v-297h96v-33h-139v674zM1042 1405q0 18 5.5 31.5t15.5 23.5q27 20 63 21q33 0 58 -21q18 -16 18 -55v-113h-43v109 q0 10 -1 17t-7 16q-4 12 -25 12q-23 0 -30 -10q-10 -10 -11 -29v-537q0 -14 11 -28q6 -8 30 -8q23 0 25 10q6 6 7 14t1 23v114h43v-123q0 -37 -18 -53q-20 -20 -58 -20q-41 0 -63 20q-20 20 -21 53v533zM1276 1444h-68v33h174v-33h-65v-641h-41v641zM1571 872q0 -35 -21 -53 q-20 -20 -63 -20q-39 0 -62 20q-23 18 -22 53v533q0 33 22 55q27 20 62 21q39 0 63 -21q20 -20 21 -55v-533zM1528 1405q0 23 -10 31q-10 10 -31 10q-18 0 -29 -10q-10 -8 -10 -31v-533q0 -20 10 -28q6 -8 12.5 -9t16.5 -1t17 1t14 9q10 8 10 28v533zM1628 1477h86 q37 0 55 -17q25 -12 25 -47v-199q0 -23 -10 -43q-8 -16 -35 -22q14 -6 31 -21q14 -14 14 -43v-282h-43v282q0 18 -10 33q-14 14 -39 15h-29v-330h-45v674zM1704 1165q47 0 47 43v197q0 39 -43 39h-35v-279h31zM2126 872q0 -35 -23 -53q-20 -20 -61 -20q-43 0 -62 20 q-23 16 -22 53v533q0 35 22 55q20 20 62 21q23 0 37 -5.5t24 -15.5q23 -23 23 -55v-533zM2083 1405q0 20 -12 31q-8 10 -29 10q-20 0 -31 -10q-10 -10 -10 -31v-533q0 -18 10 -28q6 -8 13.5 -9t17.5 -1t17 1t12 9q12 8 12 28v533zM2183 1477h131v-33h-90v-279h88v-32h-88 v-330h-41v674zM0 674h86q80 0 80 -66v-219q0 -31 -21 -49q-18 -18 -59 -18h-41v-322h-45v674zM80 356q23 0 31 9q14 10 14 26v211q0 18 -14 29q-8 8 -31 8h-35v-283h35zM207 674h45v-312h82v312h43v-674h-43v330h-82v-330h-45v674zM600 70q0 -33 -20 -54q-20 -20 -64 -20 q-39 0 -61 20q-23 18 -23 54v532q0 33 23 55q27 20 61 21q39 0 64 -21q10 -10 15 -23t5 -32v-532zM559 600q0 12 -4 19.5t-8 13.5q-10 10 -31 10q-18 0 -29 -10q-12 -12 -12 -33v-530q0 -18 12 -31q6 -8 29 -8q10 0 18.5 1t12.5 7q12 16 12 31v530zM686 639h-68v35h175v-35 h-66v-639h-41v639zM983 70q0 -35 -22 -54q-20 -20 -62 -20q-43 0 -61 20q-25 18 -25 54v532q0 33 25 55q20 20 61 21q37 0 62 -21q23 -23 22 -55v-532zM940 600q0 20 -12 33q-14 10 -29 10q-18 0 -29 -10q-14 -12 -14 -33v-530q0 -18 14 -31q6 -8 29 -8q20 0 29 8 q12 12 12 31v530zM1126 328h82v-310l-10 -6q-6 -4 -12 -6t-17 -6q-10 -2 -21 -3t-26 -1q-41 0 -59 20q-25 18 -25 54v532q0 33 25 55q20 20 59 21q23 0 37.5 -5t26.5 -16q23 -23 22 -55v-110h-45v106q0 20 -12 33q-10 12 -29 12q-16 0 -28 -12t-13 -33v-530q0 -16 13 -29 q6 -6 13 -7t15 -1h23q4 2 9 4t9 4v256h-37v33zM1264 674h86q35 0 57 -17q23 -16 23 -47v-200q0 -10 -2.5 -20.5t-6.5 -20.5q-10 -16 -39 -23q20 -10 33 -20q6 -10 10.5 -19.5t4.5 -23.5v-283h-46v283q0 23 -10 32q-8 14 -37 15h-32v-330h-41v674zM1339 362q45 0 45 41v199 q0 37 -41 37h-38v-277h34zM1616 195h-88q-2 -23 -4 -47.5t-6 -49.5q-4 -27 -5.5 -51t-3.5 -47h-39l74 674h58l77 -674h-45zM1612 229q-4 27 -6 53.5t-7 53.5q-4 27 -6 53.5t-4 54.5q-4 12 -4 21q0 10 -2 18q0 10 -1 18.5t-3 18.5t-2 29q0 12 -4 33q-2 8 -2 16t-2 18v-18 t-2 -16v-18.5t-2 -18.5q-2 -12 -2 -24.5t-2 -26.5q-2 -12 -3.5 -23.5t-1.5 -26.5q-4 -27 -6 -53t-6 -55q-4 -27 -6 -54.5t-6 -52.5h80zM1716 674h84q80 0 80 -66v-219q0 -31 -20 -49q-18 -18 -60 -18h-41v-322h-43v674zM1796 356q20 0 31 9q10 10 10 26v211q0 18 -10 29 q-10 8 -31 8h-37v-283h37zM1923 674h43v-312h82v312h41v-674h-41v330h-82v-330h-43v674zM2271 674h43l-80 -408v-266h-41v266q-4 23 -9 47.5t-9 51.5q-6 25 -11 52t-10 52q-4 29 -10 54.5t-10 51.5q-4 27 -9 50.5t-9 48.5h43l57 -346z" />
<glyph unicode="h" horiz-adv-x="1763" d="M1001 1477h46v-641h96v-33h-142v674zM1178 1477h43v-674h-43v674zM1278 1477h63l64 -435q4 -35 9 -73.5t13 -85.5q-2 29 -3 52t-1 46q-2 23 -2 39v27v430h43v-674h-61l-66 428q0 12 -2 30.5t-6 41.5q-4 25 -6 49t-6 53v-28.5t2 -22.5q0 -12 1 -23.5t1 -21.5t1 -18.5 t1 -16.5v-23v-448h-45v674zM1522 1477h133v-33h-90v-279h82v-32h-82v-297h96v-33h-139v674zM0 674h86q80 0 80 -66v-219q0 -29 -21 -49q-23 -18 -59 -18h-43v-322h-43v674zM80 356q20 0 29 9q12 8 12 26v211q0 18 -10 29q-10 8 -31 8h-37v-283h37zM207 674h86q33 0 55 -17 q25 -16 25 -47v-200q0 -20 -11 -41q-6 -16 -34 -23q14 -6 30 -20q6 -10 10.5 -19.5t4.5 -23.5v-283h-43v283q0 18 -11 32q-14 14 -38 15h-31v-330h-43v674zM283 362q47 0 47 41v199q0 37 -43 37h-37v-277h33zM600 70q0 -35 -22 -54q-20 -20 -64 -20q-39 0 -59 20 q-23 16 -23 54v532q0 35 23 55q25 20 59 21q39 0 64 -21q23 -23 22 -55v-532zM557 600q0 20 -12 33q-10 10 -31 10q-14 0 -29 -10q-4 -6 -7 -13.5t-3 -19.5v-530q0 -16 10 -31q6 -6 13.5 -7t15.5 -1q25 0 31 8q12 12 12 31v530zM657 674h80q43 0 66 -19q20 -16 20 -55v-526 q0 -39 -20 -56q-23 -18 -66 -18h-80v674zM735 33q47 0 47 37v532q0 37 -47 37h-35v-606h35zM1049 674v-604q0 -35 -23 -54q-18 -20 -61 -20q-39 0 -62 20q-23 18 -22 54v604h45v-604q0 -20 10 -31q6 -6 12 -7t17 -1q23 0 30 8q12 16 13 31v604h41zM1092 602q0 33 22 55 q25 20 62 21q37 0 57 -21q18 -16 18 -55v-113h-43v109q0 10 -1 17.5t-7 15.5q-4 12 -24 12q-16 0 -31 -10q-10 -10 -10 -29v-536q0 -14 10 -29q6 -6 13 -7t18 -1q23 0 24 8q6 8 7 16t1 23v115h43v-123q0 -37 -18 -54q-18 -20 -57 -20q-41 0 -62 20q-23 18 -22 54v532z M1298 674h132v-35h-91v-277h84v-32h-84v-297h97v-33h-138v674zM1470 674h84q35 0 58 -17q20 -14 20 -47v-200q0 -23 -6 -41q-14 -18 -37 -23q8 -4 16.5 -9t14.5 -11q12 -18 12 -43v-283h-43v283q0 23 -10 32q-8 14 -37 15h-31v-330h-41v674zM1546 362q43 0 43 41v199 q0 37 -41 37h-37v-277h35z" />
<glyph unicode="i" horiz-adv-x="2301" d="M0 1405q0 37 23 57q18 18 59 19q35 0 57 -19q20 -25 21 -57v-113h-45v109q0 16 -6 33q-6 12 -27 12q-20 0 -29 -8q-10 -10 -10 -29v-539q0 -18 10 -28t29 -11q20 0 27 13q6 8 6 35v116h45v-123q0 -31 -21 -55q-23 -18 -57 -18q-41 0 -59 18q-23 20 -23 55v533zM371 872 q0 -35 -23 -55q-18 -18 -61 -18q-41 0 -62 18q-23 23 -22 55v533q0 35 22 57q20 18 62 19q43 0 61 -19q23 -20 23 -57v-533zM328 1405q0 20 -11 31q-10 10 -30 10t-29 -10q-10 -10 -10 -31v-531q0 -18 10 -32q10 -10 29 -11q16 0 30 11q10 14 11 32v531zM406 1053h90v-31 h-90v31zM530 1477h86q80 0 80 -68v-217q0 -29 -20 -49q-23 -16 -60 -17h-43v-323h-43v674zM610 1157q18 0 29 10q12 8 12 29v209q0 18 -10 29q-10 10 -31 10h-37v-287h37zM739 1477h84q37 0 58 -15q23 -18 22 -49v-199q0 -27 -8 -43q-10 -16 -37 -24q14 -2 31 -19 q14 -14 14 -41v-284h-43v284q0 16 -10 31q-12 16 -37 17h-31v-332h-43v674zM813 1165q47 0 47 41v199q0 39 -43 39h-35v-279h31zM1130 872q0 -35 -20 -55q-23 -18 -63 -18q-39 0 -64 18q-20 20 -20 55v533q0 37 20 57q25 18 64 19q41 0 63 -19q20 -20 20 -57v-533z M1087 1405q0 20 -10 31q-10 10 -30 10t-31 -10q-10 -10 -10 -31v-531q0 -18 10 -32q14 -10 31 -11q16 0 30 11q10 14 10 32v531zM1188 1477h82q45 0 63 -17q20 -18 21 -57v-526q0 -39 -21 -58q-23 -16 -63 -16h-82v674zM1266 836q45 0 45 36v533q0 39 -45 39h-35v-608h35z M1579 1477v-605q0 -35 -20 -55q-23 -18 -64 -18q-37 0 -61 18q-20 20 -21 55v605h43v-603q0 -18 10 -32q14 -10 29 -11q16 0 31 11q10 14 10 32v603h43zM1624 1405q0 37 23 57q14 18 57 19q37 0 59 -19q20 -25 21 -57v-113h-43v109q0 10 -2 17t-6 16q-6 12 -29 12 q-20 0 -29 -8q-10 -14 -10 -29v-539q0 -14 10 -28q10 -10 29 -11q23 0 29 13q8 12 8 35v116h43v-123q0 -31 -21 -55q-23 -18 -59 -18q-43 0 -57 18q-23 20 -23 55v533zM1829 1477h131v-33h-90v-279h84v-30h-84v-299h96v-33h-137v674zM2001 1477h80q47 0 65 -17 q20 -18 21 -57v-526q0 -39 -21 -58q-23 -16 -65 -16h-80v674zM2077 836q47 0 47 36v533q0 39 -47 39h-35v-608h35zM1810 674h82q35 0 58 -19q23 -16 22 -53v-196q0 -25 -12 -37q-10 -14 -31 -21q20 -8 33 -18q16 -16 16 -45v-209q0 -39 -22 -58q-23 -18 -53 -18h-93v674z M1888 362q23 0 33 15q8 20 8 31v194q0 16 -8 29q-10 10 -35 10h-35v-279h37zM1851 330v-295h35q25 0 37 8q10 10 10 29v211q0 47 -43 47h-39zM2157 674h43l-78 -410v-264h-43v264q-4 25 -8.5 49.5t-10.5 51.5q-6 29 -11 54t-9 52q-6 27 -11.5 53.5t-9.5 53.5q-12 47 -18 96 h43l57 -346z" />
<glyph unicode="j" horiz-adv-x="1771" d="M0 1477h86q80 0 80 -68v-217q0 -29 -21 -49q-23 -16 -59 -17h-43v-323h-43v674zM80 1157q18 0 29 10q12 8 12 29v209q0 18 -10 29q-10 10 -31 10h-37v-287h37zM209 1477h84q37 0 57 -15q23 -18 23 -49v-199q0 -27 -8 -43q-10 -16 -37 -24q14 -2 30 -19q14 -14 15 -41 v-284h-43v284q0 16 -11 31q-12 16 -36 17h-31v-332h-43v674zM283 1165q47 0 47 41v199q0 39 -43 39h-35v-279h31zM600 872q0 -35 -20 -55q-23 -18 -64 -18q-39 0 -63 18q-20 20 -21 55v533q0 37 21 57q25 18 63 19q41 0 64 -19q20 -20 20 -57v-533zM557 1405q0 20 -10 31 q-10 10 -31 10q-20 0 -31 -10q-10 -10 -10 -31v-531q0 -18 10 -32q14 -10 31 -11q16 0 31 11q10 14 10 32v531zM657 1477h82q45 0 64 -17q20 -18 20 -57v-526q0 -39 -20 -58q-23 -16 -64 -16h-82v674zM735 836q45 0 45 36v533q0 39 -45 39h-35v-608h35zM1049 1477v-605 q0 -35 -21 -55q-23 -18 -63 -18q-37 0 -62 18q-20 20 -20 55v605h43v-603q0 -18 10 -32q14 -10 29 -11q16 0 30 11q10 14 11 32v603h43zM1094 1405q0 37 22 57q14 18 58 19q37 0 59 -19q20 -25 20 -57v-113h-43v109q0 10 -2 17t-6 16q-6 12 -28 12q-20 0 -29 -8 q-10 -14 -10 -29v-539q0 -14 10 -28q10 -10 29 -11q23 0 28 13q8 12 8 35v116h43v-123q0 -31 -20 -55q-23 -18 -59 -18q-43 0 -58 18q-23 20 -22 55v533zM1298 1477h132v-33h-91v-279h84v-30h-84v-299h97v-33h-138v674zM1470 1477h80q47 0 66 -17q20 -18 20 -57v-526 q0 -39 -20 -58q-23 -16 -66 -16h-80v674zM1546 836q47 0 47 36v533q0 39 -47 39h-35v-608h35zM1280 674h82q35 0 57 -19q23 -16 23 -53v-196q0 -25 -12 -37q-10 -14 -31 -21q20 -8 33 -18q16 -16 16 -45v-209q0 -39 -23 -58q-23 -18 -53 -18h-92v674zM1358 362q23 0 33 15 q8 20 8 31v194q0 16 -8 29q-10 10 -35 10h-35v-279h37zM1321 330v-295h35q25 0 37 8q10 10 10 29v211q0 47 -43 47h-39zM1626 674h43l-78 -410v-264h-43v264q-4 25 -8 49.5t-10 51.5q-6 29 -11.5 54t-9.5 52q-6 27 -11 53.5t-9 53.5q-12 47 -19 96h43l58 -346z" />
<glyph unicode="k" horiz-adv-x="1548" d="M0 1477h84q43 0 61 -17q23 -18 23 -57v-526q0 -39 -23 -58q-23 -16 -61 -16h-84v674zM80 836q47 0 47 36v533q0 39 -47 39h-37v-608h37zM227 1477h43v-674h-43v674zM328 1477h88q37 0 57 -15q20 -20 21 -49v-199q0 -12 -2.5 -22t-6.5 -21q-6 -14 -34 -24q14 -2 30 -19 q12 -16 13 -41v-284h-43v284q0 16 -11 31q-10 16 -37 17h-32v-332h-43v674zM406 1165q45 0 45 41v199q0 39 -41 39h-39v-279h35zM553 1477h133v-33h-90v-279h84v-30h-84v-299h96v-33h-139v674zM713 1405q0 37 20 57q25 18 62 19q39 0 57 -19q20 -25 20 -57v-113h-43v109 q0 16 -6 33q-10 12 -28 12t-29 -8q-10 -14 -10 -29v-539q0 -14 10 -28q14 -10 29 -11q18 0 28 13q6 8 6 35v116h43v-123q0 -31 -20 -55q-18 -18 -57 -18q-37 0 -62 18q-20 20 -20 55v533zM944 1444h-65v33h174v-33h-66v-641h-43v641zM1073 1477h133v-33h-90v-279h82v-30h-82 v-299h94v-33h-137v674zM1245 1477h84q43 0 62 -17q23 -18 22 -57v-526q0 -39 -22 -58q-23 -16 -62 -16h-84v674zM1325 836q43 0 43 36v533q0 39 -43 39h-37v-608h37zM1055 674h84q37 0 55 -19q25 -18 25 -53v-196q0 -25 -13 -37q-6 -8 -14 -12.5t-14 -8.5q6 -4 14 -8t16 -10 q14 -14 15 -45v-209q0 -39 -23 -58q-23 -18 -51 -18h-94v674zM1137 362q23 0 32 15q8 20 9 31v194q0 18 -11 29q-10 10 -32 10h-37v-279h39zM1098 330v-295h37q25 0 36 8q10 10 11 29v211q0 47 -45 47h-39zM1401 674h45l-80 -410v-264h-39v264q-4 25 -9 49.5t-11 51.5 q-4 29 -9.5 54t-11.5 52q-4 27 -10 53.5t-10 53.5q-6 25 -10.5 49t-8.5 47h43l60 -346z" />
<glyph unicode="l" horiz-adv-x="2080" d="M0 1405q0 35 23 57q20 18 61 19q35 0 57 -19q18 -23 19 -57v-113h-41v109q0 16 -6 33q-10 12 -29 12q-23 0 -31 -8q-8 -10 -8 -29v-539q0 -18 8 -28q10 -10 31 -11q18 0 29 13q6 8 6 35v116h41v-123q0 -35 -19 -55q-23 -18 -57 -18q-41 0 -61 18q-23 23 -23 55v533z M371 872q0 -35 -21 -55q-23 -18 -61 -18q-39 0 -64 18q-20 25 -20 55v533q0 33 20 57q25 18 64 19q39 0 61 -19q20 -20 21 -57v-533zM328 1405q0 18 -9 31q-10 10 -30 10t-31 -10q-10 -10 -10 -31v-531q0 -18 10 -32q14 -10 31 -11q16 0 30 11q8 16 9 32v531zM408 1053h90 v-31h-90v31zM532 1477h84q43 0 62 -17q23 -18 22 -57v-526q0 -39 -22 -58q-23 -16 -62 -16h-84v674zM612 836q47 0 47 36v533q0 39 -47 39h-37v-608h37zM760 1477h43v-674h-43v674zM860 1477h88q37 0 58 -15q20 -20 20 -49v-199q0 -12 -2 -22t-6 -21q-6 -14 -35 -24 q14 -2 31 -19q12 -16 12 -41v-284h-43v284q0 16 -10 31q-10 16 -37 17h-33v-332h-43v674zM938 1165q45 0 45 41v199q0 39 -41 39h-39v-279h35zM1085 1477h134v-33h-91v-279h84v-30h-84v-299h97v-33h-140v674zM1245 1405q0 37 21 57q25 18 61 19q39 0 57 -19q20 -25 21 -57 v-113h-43v109q0 16 -6 33q-10 12 -29 12q-18 0 -29 -8q-10 -14 -10 -29v-539q0 -14 10 -28q14 -10 29 -11q18 0 29 13q6 8 6 35v116h43v-123q0 -31 -21 -55q-18 -18 -57 -18q-37 0 -61 18q-20 20 -21 55v533zM1477 1444h-66v33h174v-33h-65v-641h-43v641zM1606 1477h133v-33 h-90v-279h82v-30h-82v-299h94v-33h-137v674zM1778 1477h84q43 0 61 -17q23 -18 23 -57v-526q0 -39 -23 -58q-23 -16 -61 -16h-84v674zM1858 836q43 0 43 36v533q0 39 -43 39h-37v-608h37zM1587 674h84q37 0 55 -19q25 -18 25 -53v-196q0 -25 -12 -37q-6 -8 -14.5 -12.5 t-14.5 -8.5q6 -4 14.5 -8t16.5 -10q14 -14 14 -45v-209q0 -39 -22 -58q-23 -18 -52 -18h-94v674zM1669 362q23 0 33 15q8 20 8 31v194q0 18 -10 29q-10 10 -33 10h-37v-279h39zM1630 330v-295h37q25 0 37 8q10 10 10 29v211q0 47 -45 47h-39zM1933 674h45l-80 -410v-264h-38 v264q-4 25 -9.5 49.5t-11.5 51.5q-4 29 -9 54t-11 52q-4 27 -10.5 53.5t-10.5 53.5q-6 25 -10 49t-8 47h43l59 -346z" />
<glyph unicode="m" horiz-adv-x="1083" d="M39 866q0 -16 8 -26q6 -12 31 -13q23 0 33 11q10 4 10 30v115q0 12 -1 23.5t-3 21.5q-4 10 -7.5 19.5t-9.5 23.5l-75 143q-14 27 -19 48q-6 25 -6 45v98q0 33 20 53q25 18 58 19q23 0 36 -4.5t23 -10.5q23 -16 23 -49v-123h-41v119q0 33 -37 33q-18 0 -29 -10 q-8 -12 -8 -25v-102q0 -16 4 -33t10 -33q10 -16 19.5 -34.5t19.5 -39.5q10 -16 18.5 -33.5t18.5 -37.5q14 -25 21 -47q8 -23 8 -54v-127q0 -16 -4 -28.5t-17 -22.5q-16 -18 -61 -18t-66 18q-16 20 -16 55v119h39v-123zM236 1440h-66v35h174v-35h-65v-639h-43v639zM535 870 q0 -33 -23 -55q-23 -18 -63 -18q-41 0 -62 18q-25 20 -25 55v533q0 31 25 55q20 18 62 19q41 0 63 -19q10 -10 16.5 -24.5t6.5 -30.5v-533zM492 1403q0 18 -13 29q-10 10 -30 10t-31 -10q-10 -8 -10 -29v-533q0 -20 10 -32q14 -10 31 -11q16 0 30 11q12 14 13 32v533z M590 1475h84q37 0 57 -17q23 -18 23 -49v-199q0 -25 -9 -41q-10 -18 -34 -24q18 -8 28 -21q14 -12 15 -41v-282h-43v282q0 14 -11 31q-12 16 -36 16h-33v-329h-41v674zM666 1163q45 0 45 39v201q0 37 -41 37h-39v-277h35zM936 1475h45l-80 -408v-266h-43v266q-4 23 -8 47.5 t-10 48.5q-4 29 -9.5 54.5t-9.5 52.5t-9 53.5t-11 52.5q-6 27 -10.5 50.5t-8.5 48.5h43l58 -347zM590 670h82q35 0 57 -17q25 -20 25 -57v-195q0 -23 -15 -36q-6 -6 -13 -12.5t-15 -10.5q16 -2 30 -16q16 -14 17 -45v-211q0 -37 -23 -58q-20 -14 -53 -14h-92v672zM670 360 q20 0 32 13q4 8 6.5 14t2.5 14v197q0 10 -2 17.5t-7 13.5q-10 8 -34 8h-37v-277h39zM631 326v-295h37q25 0 37 8q10 10 10 27v213q0 47 -45 47h-39zM936 670h45l-80 -408v-264h-43v264q-6 43 -18 100q-10 49 -19 105q-4 27 -9 53.5t-11 52.5q-6 25 -10.5 49.5t-8.5 47.5h43 l58 -346z" />
<glyph unicode="n" horiz-adv-x="2351" d="M0 1475h84q33 0 57 -19q20 -18 21 -55v-197q0 -25 -10 -39q-14 -14 -33 -16q23 -6 35 -21q12 -12 12 -45v-209q0 -43 -21 -57q-20 -16 -53 -16h-92v674zM80 1163q25 0 33 15q6 12 6 28v197q0 20 -6 27q-10 10 -33 10h-37v-277h37zM43 1130v-299h37q25 0 35 11q8 10 8 28 v213q0 47 -43 47h-37zM352 993h-88q-2 -23 -4 -47t-6 -51q-4 -23 -5 -47.5t-3 -46.5h-39l74 674h55l80 -674h-43zM348 1028q-10 59 -12 109q-4 27 -6 53.5t-6 54.5q0 4 -1 9.5t-1 9.5q0 12 -3 18q-2 10 -2 19.5t-2 17.5q0 8 -1 16t-1 15q-2 8 -2 14t-2 14q-2 10 -2 18.5 v18.5q-2 -8 -2 -16t-2 -19v-17t-2 -17q0 -14 -1 -26.5t-3 -25.5q0 -12 -1 -24.5t-3 -24.5q-4 -29 -6 -55.5t-6 -52.5q-8 -55 -13 -109h80zM477 866q0 -10 8 -26q8 -12 33 -13q20 0 31 11q10 6 10 30v115q0 12 -1 23.5t-3 21.5t-6 19.5t-8 23.5l-78 143q-14 27 -19 48 q-6 25 -6 45v98q0 33 23 53q20 18 59 19q33 0 58 -15q10 -8 14 -20t4 -29v-123h-39v119q0 33 -35 33q-20 0 -28 -10q-10 -10 -11 -25v-102q0 -16 4.5 -33t10.5 -33q10 -16 19 -34.5t20 -39.5q10 -16 19 -33.5t19 -37.5q6 -10 11.5 -23.5t9.5 -23.5q6 -25 6 -54v-127 q0 -31 -16 -51q-23 -18 -66 -18t-61 18q-20 18 -21 55v119h39v-123zM647 1475h131v-35h-88v-277h84v-33h-84v-299h98v-30h-141v674zM819 1475h84q41 0 64 -19q20 -20 20 -55v-527q0 -41 -20 -57q-23 -16 -64 -16h-84v674zM899 831q45 0 45 39v533q0 37 -45 37h-37v-609h37z M1317 870q0 -37 -21 -55q-23 -18 -63 -18q-39 0 -64 18q-20 18 -20 55v533q0 35 20 55q25 18 64 19q41 0 63 -19q20 -20 21 -55v-533zM1274 1403q0 18 -10 29q-10 10 -31 10q-20 0 -31 -10q-10 -10 -10 -29v-533q0 -16 10 -32q14 -10 31 -11q16 0 31 11q10 16 10 32v533z M1374 1475h62l61 -435q4 -35 10 -74.5t15 -86.5q-2 29 -2 53t-2 47v65v431h43v-674h-64l-63 426q-4 14 -6.5 31.5t-4.5 41.5q-4 23 -6 48.5t-6 52.5v-26.5t2 -24.5q0 -14 1 -24.5t1 -20.5v-35q2 -10 2 -21v-448h-43v674zM1747 1440h-64v35h172v-35h-63v-639h-45v639z M1876 1475h43v-312h82v312h41v-674h-41v329h-82v-329h-43v674zM2101 1475h133v-35h-90v-277h84v-33h-84v-299h97v-30h-140v674zM754 670h61l62 -434q6 -66 24 -160q-2 29 -2 52.5t-4 45.5q0 23 -1 39t-1 31v426h43v-672h-62l-63 426q-2 12 -4 30.5t-4 41.5q-4 25 -6 48 t-6 52q2 -12 2 -25.5v-25.5q0 -10 1 -21.5t1 -21.5v-35q2 -10 2 -23v-446h-43v672zM1161 66q0 -33 -20 -56q-23 -18 -62 -18q-43 0 -63 18q-23 23 -23 56v532q0 39 23 55q20 18 63 19q39 0 62 -19q20 -18 20 -55v-532zM1120 598q0 14 -12 31q-12 12 -29 12q-20 0 -32 -12 q-10 -14 -11 -31v-530q0 -16 11 -31q14 -10 32 -10q14 0 29 10q4 6 8 13t4 18v530zM1186 670h43l43 -443l6 -61q0 -14 2 -28.5t2 -31.5q2 -14 3 -28.5t3 -28.5q2 10 2 22.5t2 22.5v20.5t2 22.5q2 10 2 21.5v21.5q2 12 2 24.5t2 22.5l43 443h41l-71 -672h-56zM1409 670h133 v-33h-90v-277h84v-34h-84v-295h96v-33h-139v672zM1581 670h45v-639h96v-33h-141v672zM1860 670h84q31 0 57 -17q20 -18 20 -57v-195q0 -23 -10 -36q-8 -6 -15 -12.5t-18 -10.5q23 -4 35 -16q12 -16 12 -45v-211q0 -37 -20 -58q-20 -14 -53 -14h-92v672zM1937 360q27 0 33 13 q8 14 8 28v197q0 10 -2 17.5t-6 13.5q-8 8 -35 8h-32v-277h34zM1903 326v-295h32q23 0 39 8q8 8 8 27v213q0 47 -45 47h-34zM2206 670h43l-78 -408v-264h-41v264q-4 23 -9 47.5t-10 52.5q-6 25 -11 50.5t-11 54.5q-4 27 -9 53.5t-12 52.5q-4 25 -8 49.5t-8 47.5h41l57 -346z " />
<glyph unicode="o" horiz-adv-x="2084" d="M39 866q0 -16 8 -26q6 -12 31 -13q23 0 33 11q10 6 10 30v115q0 27 -6 45q-2 10 -6.5 19.5t-8.5 23.5l-77 143q-4 12 -8.5 23.5t-8.5 24.5q-6 25 -6 45v98q0 33 20 53q25 18 58 19q23 0 36 -4.5t23 -10.5q20 -14 21 -49v-123h-39v119q0 33 -37 33q-20 0 -29 -10 q-8 -8 -8 -25v-102q0 -35 14 -66q10 -16 19.5 -34.5t19.5 -39.5q10 -16 18.5 -33.5t18.5 -37.5q14 -25 21 -47q8 -23 8 -54v-127q0 -33 -19 -51q-23 -18 -63 -18q-47 0 -66 18q-16 20 -16 55v119h39v-123zM193 1403q0 16 6 30.5t16 24.5q20 18 61 19q39 0 58 -19 q18 -23 18 -55v-113h-41v109q0 16 -8 31q-10 12 -27 12q-18 0 -28 -8t-10 -29v-539q0 -18 10 -28q14 -10 28 -11q16 0 27 13q8 10 8 34v119h41v-123q0 -37 -18 -55t-58 -18q-41 0 -61 18q-23 23 -22 55v533zM397 1475h86q35 0 58 -17q20 -18 20 -49v-199q0 -23 -6 -41 q-10 -18 -37 -24q20 -6 31 -21q12 -12 12 -41v-282h-43v282q0 14 -10 31q-10 16 -35 16h-33v-329h-43v674zM475 1163q43 0 43 39v201q0 37 -39 37h-39v-277h35zM623 1475h133v-35h-90v-277h86v-33h-86v-299h96v-30h-139v674zM795 1475h133v-35h-90v-277h86v-33h-86v-299h96 v-30h-139v674zM969 1475h61l64 -435q4 -35 9 -74.5t13 -86.5q-2 29 -3 53t-3 47v65v431h43v-674h-61l-64 426q-4 14 -6 31.5t-6 41.5q-4 23 -5 48.5t-5 52.5v-51q2 -14 2 -24.5t2 -20.5v-35v-21v-448h-41v674zM1210 1475h86q78 0 78 -68v-217q0 -31 -20 -49q-18 -18 -58 -19 h-43v-321h-43v674zM1288 1155q23 0 33 8q10 10 10 29v211q0 16 -10 27q-10 10 -33 10h-35v-285h35zM1417 1475h41v-644h98v-30h-139v674zM1714 993h-84q-2 -23 -5 -47t-7 -51q-4 -23 -5 -47.5t-5 -46.5h-39l76 674h57l76 -674h-41zM1712 1028q-4 29 -6 55.5t-6 53.5t-6 53.5 t-4 54.5q0 4 -1 9.5t-1 9.5q-2 6 -2 18q-2 10 -3.5 19.5t-1.5 17.5q-4 8 -4 16v15q-2 8 -3 14t-1 14q-2 10 -2 18.5t-2 18.5v-16t-2 -19v-17t-2 -17q-2 -14 -2 -26.5t-2 -25.5q-2 -12 -2 -24.5t-2 -24.5q-4 -29 -6 -55.5t-6 -52.5q-4 -29 -6.5 -55.5t-4.5 -53.5h78z M1937 1475h45l-75 -408v-266h-45v266q-4 23 -8.5 47.5t-10.5 48.5q-6 29 -11 54.5t-9 52.5t-9.5 53.5t-11.5 52.5q-4 27 -9 50.5t-9 48.5h43l57 -347zM1591 670h82q35 0 58 -17q25 -18 24 -57v-195q0 -25 -12 -36q-12 -16 -31 -23q18 -2 35 -16q12 -16 12 -45v-211 q0 -37 -20 -58q-20 -14 -53 -14h-95v672zM1671 360q27 0 33 13q8 14 8 28v197q0 20 -8 31q-8 8 -35 8h-35v-277h37zM1634 326v-295h35q16 0 24.5 2t12.5 6q10 8 10 27v213q0 47 -45 47h-37zM1937 670h45l-75 -408v-264h-45v264q-6 43 -19 100q-6 25 -11 50.5t-9 54.5 q-4 27 -9.5 53.5t-11.5 52.5q-4 25 -9 49.5t-9 47.5h43l57 -346z" />
<glyph unicode="p" horiz-adv-x="1765" d="M119 1479h133v-35h-90v-279h84v-32h-84v-297h98v-33h-141v676zM262 1479h43l55 -283q8 35 14.5 69.5t14.5 71.5q8 35 14.5 71t14.5 71h39l-72 -326q10 -43 19.5 -87t19.5 -89t19.5 -88t19.5 -86h-45l-60 309q-4 -18 -7 -37.5t-7 -38.5q-4 -23 -8 -41t-8 -39 q-4 -20 -8.5 -39.5t-8.5 -39.5q-4 -18 -8 -37t-8 -37h-39l76 350zM483 1479h133v-35h-90v-279h84v-32h-84v-297h97v-33h-140v676zM641 1407q0 35 23 53q20 20 61 21q39 0 57 -19q18 -23 19 -55v-115h-43v109q0 16 -6 33q-6 12 -27 12q-20 0 -31 -8q-8 -10 -8 -29v-539 q0 -20 8 -28q14 -10 31 -11q20 0 27 13q6 8 6 35v116h43v-123q0 -35 -19 -55q-18 -18 -57 -18q-41 0 -61 18q-23 23 -23 55v535zM1014 1479v-607q0 -35 -21 -55q-23 -18 -63 -18q-41 0 -62 18q-23 23 -22 55v607h43v-607q0 -23 12 -30q10 -10 29 -11q16 0 31 11q10 8 10 30 v607h43zM1100 1444h-68v35h176v-35h-65v-641h-43v641zM1231 1479h43v-676h-43v676zM1298 1479h45l43 -447q2 -16 3.5 -30.5t1.5 -28.5q4 -16 4 -29.5t2 -30.5q0 -31 6 -57v21.5t2 21.5t2 21.5t2 21.5q0 10 1 22.5t1 22.5q0 12 1 23.5t3 21.5l43 447h41l-72 -676h-55z M1524 1479h133v-35h-90v-279h84v-32h-84v-297h96v-33h-139v676zM0 674h84q80 0 80 -68v-219q0 -31 -21 -49q-18 -18 -59 -19h-41v-321h-43v676zM80 354q20 0 29 8q12 12 12 29v211q0 20 -10 27q-10 10 -31 10h-37v-285h37zM207 674h86q35 0 57 -17q20 -18 21 -49v-198 q0 -27 -9 -41q-6 -16 -34 -27q18 -4 30 -20q12 -12 13 -39v-285h-43v285q0 20 -11 30q-10 14 -36 15h-31v-330h-43v676zM283 360q45 0 45 41v201q0 37 -41 37h-37v-279h33zM600 68q0 -35 -22 -56q-18 -18 -62 -18q-41 0 -61 18q-23 20 -23 56v534q0 35 23 55q20 18 61 19 q43 0 62 -19q23 -20 22 -55v-534zM557 600q0 23 -10 33q-10 8 -31 8q-20 0 -29 -8q-12 -12 -12 -33v-532q0 -18 12 -31q10 -10 29 -10q16 0 31 10q10 10 10 31v532zM657 674h82q23 0 38.5 -5t25.5 -14q23 -18 22 -57v-526q0 -39 -22 -56q-23 -18 -64 -18h-82v676zM735 31 q47 0 47 37v534q0 37 -47 37h-35v-608h35zM1051 674v-606q0 -35 -23 -56q-18 -18 -61 -18q-41 0 -62 18q-23 20 -22 56v606h43v-606q0 -16 10 -31q14 -10 31 -10q16 0 30 10q10 14 11 31v606h43zM1094 602q0 35 22 55q20 18 60 19q37 0 59 -19q18 -23 18 -55v-115h-41v109 q0 10 -2 17.5t-6 15.5q-6 12 -28 12q-18 0 -27 -8q-12 -12 -12 -29v-538q0 -20 12 -29q10 -10 27 -10q23 0 28 12q8 12 8 35v116h41v-122q0 -35 -18 -56q-23 -18 -59 -18q-39 0 -60 18q-23 20 -22 56v534zM1298 674h134v-35h-91v-279h84v-32h-84v-297h97v-33h-140v676z M1470 674h86q35 0 58 -17q23 -18 22 -49v-198q0 -27 -8 -41q-8 -16 -37 -27q18 -4 31 -20q14 -12 14 -39v-285h-43v285q0 16 -10 30q-14 14 -37 15h-30v-330h-46v676zM1548 360q45 0 45 41v201q0 37 -43 37h-34v-279h32z" />
<glyph unicode="q" horiz-adv-x="2179" d="M0 1407q0 35 20 53q20 20 62 21q39 0 57 -19q20 -25 21 -55v-115h-43v109q0 18 -8 33q-6 12 -27 12q-20 0 -29 -8q-10 -14 -10 -29v-539q0 -18 10 -28t29 -11q20 0 27 13q8 8 8 35v116h43v-123q0 -18 -5 -31.5t-16 -23.5q-18 -18 -57 -18q-41 0 -62 18q-20 20 -20 55v535 zM371 872q0 -35 -21 -55q-23 -18 -63 -18q-41 0 -60 18q-25 20 -24 55v535q0 35 24 53q18 20 60 21q43 0 63 -21q20 -18 21 -53v-535zM330 1405q0 20 -13 31q-8 10 -30 10q-18 0 -29 -10q-10 -10 -10 -31v-533q0 -20 10 -30q14 -10 29 -11q20 0 30 11q12 8 13 30v533z M406 1051h92v-29h-92v29zM532 1479h134v-35h-91v-279h84v-32h-84v-297h99v-33h-142v676zM676 1479h43l55 -283q8 35 14.5 69.5t14.5 71.5q8 35 14 71t14 71h39l-71 -326q10 -43 19 -87t20 -89q10 -45 19 -88t20 -86h-46l-59 309q-4 -18 -7 -37.5t-7 -38.5q-4 -23 -8.5 -41 t-8.5 -39q-4 -20 -8 -39.5t-8 -39.5q-4 -18 -8 -37t-8 -37h-39l75 350zM897 1479h133v-35h-90v-279h84v-32h-84v-297h96v-33h-139v676zM1055 1407q0 35 22 53q20 20 62 21q39 0 57 -19q18 -23 18 -55v-115h-43v109q0 16 -6 33q-6 12 -26 12t-31 -8q-8 -10 -8 -29v-539 q0 -20 8 -28q14 -10 31 -11q20 0 26 13q6 8 6 35v116h43v-123q0 -35 -18 -55q-18 -18 -57 -18q-41 0 -62 18q-23 23 -22 55v535zM1427 1479v-607q0 -35 -20 -55q-23 -18 -64 -18t-61 18q-23 23 -22 55v607h43v-607q0 -23 12 -30q10 -10 28 -11q16 0 31 11q10 8 10 30v607h43 zM1513 1444h-67v35h176v-35h-66v-641h-43v641zM1645 1479h43v-676h-43v676zM1712 1479h45l43 -447q2 -16 3 -30.5t1 -28.5q4 -16 4 -29.5t2 -30.5q0 -31 7 -57v21.5t2 21.5t2 21.5t2 21.5q0 10 1 22.5t1 22.5q0 12 1 23.5t3 21.5l43 447h41l-72 -676h-55zM1937 1479h134v-35 h-91v-279h84v-32h-84v-297h97v-33h-140v676zM414 674h84q80 0 80 -68v-219q0 -31 -21 -49q-18 -18 -59 -19h-41v-321h-43v676zM494 354q20 0 28 8q12 12 13 29v211q0 20 -11 27q-10 10 -30 10h-37v-285h37zM621 674h86q35 0 57 -17q20 -18 20 -49v-198q0 -27 -8 -41 q-6 -16 -35 -27q18 -4 31 -20q12 -12 12 -39v-285h-43v285q0 20 -10 30q-10 14 -37 15h-30v-330h-43v676zM696 360q45 0 45 41v201q0 37 -41 37h-36v-279h32zM1014 68q0 -35 -23 -56q-18 -18 -61 -18q-41 0 -62 18q-23 20 -22 56v534q0 35 22 55q20 18 62 19q43 0 61 -19 q23 -20 23 -55v-534zM971 600q0 23 -10 33q-10 8 -31 8q-20 0 -29 -8q-12 -12 -12 -33v-532q0 -18 12 -31q10 -10 29 -10q16 0 31 10q10 10 10 31v532zM1071 674h82q23 0 38 -5t26 -14q23 -18 22 -57v-526q0 -39 -22 -56q-23 -18 -64 -18h-82v676zM1149 31q47 0 47 37v534 q0 37 -47 37h-35v-608h35zM1464 674v-606q0 -35 -22 -56q-18 -18 -62 -18q-41 0 -61 18q-23 20 -23 56v606h43v-606q0 -16 11 -31q14 -10 30 -10t31 10q10 14 10 31v606h43zM1507 602q0 35 23 55q20 18 59 19q37 0 60 -19q18 -23 18 -55v-115h-41v109q0 10 -2 17.5t-6 15.5 q-6 12 -29 12q-18 0 -26 -8q-12 -12 -13 -29v-538q0 -20 13 -29q10 -10 26 -10q23 0 29 12q8 12 8 35v116h41v-122q0 -35 -18 -56q-23 -18 -60 -18q-39 0 -59 18q-23 20 -23 56v534zM1712 674h133v-35h-90v-279h84v-32h-84v-297h96v-33h-139v676zM1884 674h86q35 0 58 -17 q23 -18 22 -49v-198q0 -27 -8 -41q-8 -16 -37 -27q18 -4 31 -20q14 -12 14 -39v-285h-43v285q0 16 -10 30q-14 14 -37 15h-31v-330h-45v676zM1962 360q45 0 45 41v201q0 37 -43 37h-35v-279h33z" />
<glyph unicode="r" horiz-adv-x="1609" d="M639 1130h80v-309l-8 -8q-10 -8 -29 -10q-10 -2 -21.5 -3t-25.5 -1q-41 0 -62 18q-23 23 -22 55v535q0 35 22 53q20 20 62 21q41 0 63 -19q20 -20 21 -55v-113h-43v109q0 18 -12 31q-12 12 -29 12q-16 0 -29 -12q-12 -12 -12 -33v-531q0 -20 12 -28q14 -10 29 -11 q8 0 13 1.5t11 1.5q4 2 8.5 4t8.5 4v254h-37v34zM944 1479v-607q0 -35 -20 -55q-23 -18 -64 -18t-61 18q-23 23 -23 55v607h43v-607q0 -23 12 -30q10 -10 29 -11q16 0 31 11q10 10 10 30v607h43zM1001 1479h134v-35h-91v-279h84v-32h-84v-297h97v-33h-140v676zM1200 868 q0 -16 8 -24q8 -12 33 -13q23 0 31 9q10 10 10 30v115v24.5t-4 20.5t-7 19.5t-9 21.5l-76 148q-12 20 -19 47q-6 25 -6 45v98q0 33 21 53q20 18 59 19q35 0 59 -15q18 -18 19 -49v-123h-37v119q0 33 -39 33q-18 0 -29 -10q-8 -12 -8 -25v-104q0 -33 17 -64q8 -18 17 -35.5 t20 -36.5q10 -18 19 -36.5t19 -36.5q4 -12 9.5 -24.5t9.5 -24.5q8 -23 8 -54v-127q0 -33 -18 -51t-64 -18q-45 0 -63 18t-19 55v121h39v-125zM1399 1444h-68v35h176v-35h-65v-641h-43v641zM0 674h82q41 0 63 -19q25 -18 25 -57v-526q0 -41 -25 -56q-18 -18 -63 -18h-82v676z M78 31q49 0 49 37v534q0 37 -49 37h-35v-608h35zM229 674h43v-676h-43v676zM330 674h88q33 0 55 -17q23 -16 23 -49v-198q0 -27 -9 -41q-8 -16 -36 -27q18 -4 30 -20q14 -12 15 -39v-285h-43v285q0 18 -13 30q-10 14 -34 15h-33v-330h-43v676zM408 360q45 0 45 41v201 q0 37 -43 37h-37v-279h35zM557 674h131v-35h-88v-279h84v-32h-84v-297h96v-33h-139v676zM715 602q0 31 20 55q25 18 62 19q37 0 59 -19q18 -23 18 -55v-115h-43v109q0 16 -6 33q-10 12 -28 12t-29 -8q-10 -14 -10 -29v-538q0 -18 10 -29q14 -10 29 -10q18 0 28 12q6 8 6 35 v116h43v-122q0 -35 -18 -56q-23 -18 -59 -18q-37 0 -62 18q-20 25 -20 56v534zM948 639h-67v35h176v-35h-66v-641h-43v641zM1245 68q0 -33 -22 -56q-23 -18 -62 -18t-63 18q-20 20 -21 56v534q0 35 21 55q25 18 63 19q39 0 62 -19q23 -23 22 -55v-534zM1202 600q0 20 -12 33 q-10 8 -29 8q-20 0 -31 -8q-12 -12 -12 -33v-532q0 -18 12 -31q14 -10 31 -10q14 0 29 10q12 12 12 31v532zM1303 674h83q33 0 60 -17q20 -20 20 -49v-198q0 -27 -8 -41q-8 -18 -37 -27q23 -4 31 -20q14 -12 14 -39v-285h-43v285q0 16 -10 30q-14 14 -37 15h-30v-330h-43 v676zM1376 360q47 0 47 41v201q0 37 -43 37h-34v-279h30z" />
<glyph unicode="s" horiz-adv-x="1800" d="M475 868q0 -16 8 -24q8 -12 33 -13q23 0 33 9q8 8 8 30v115v24.5t-4 20.5q-2 10 -6 19.5t-8 21.5l-78 148q-6 10 -10.5 22t-8.5 25q-6 25 -6 45v98q0 29 21 53q25 18 59 19q37 0 59 -15q20 -20 21 -49v-123h-39v119q0 33 -37 33q-20 0 -28 -10q-10 -10 -11 -25v-104 q0 -16 4 -31.5t11 -32.5q10 -18 19 -35.5t20 -36.5q20 -37 36 -73q6 -12 11.5 -24.5t9.5 -24.5q8 -23 8 -54v-127q0 -35 -18 -51q-18 -18 -64 -18q-43 0 -63 18q-18 18 -19 55v121h39v-125zM645 1479h86q80 0 80 -68v-219q0 -29 -20 -49q-23 -18 -60 -19h-43v-321h-43v676z M725 1159q20 0 31 8q12 8 12 29v211q0 16 -12 27q-10 10 -31 10h-37v-285h37zM852 1479h135v-35h-92v-279h84v-32h-84v-297h98v-33h-141v676zM1012 1407q0 37 22 53q20 20 60 21q37 0 59 -19q18 -23 18 -55v-115h-43v109q0 16 -6 33q-6 12 -28 12q-20 0 -29 -8 q-10 -14 -10 -29v-539q0 -18 10 -28t29 -11q23 0 28 13q6 8 6 35v116h43v-123q0 -35 -18 -55q-23 -18 -59 -18q-39 0 -60 18q-23 20 -22 55v535zM1219 1479h43v-676h-43v676zM1448 997h-86q-4 -23 -6 -47t-6 -49q-2 -27 -4.5 -51.5t-4.5 -46.5h-41l76 676h58l77 -676h-43z M1444 1032q-2 27 -4 53.5t-6 53.5q-4 29 -6.5 54.5t-6.5 53.5q-2 6 -2 10.5t-2 10.5v18q-2 10 -3 19.5t-1 17.5q-4 20 -4 31q0 12 -4 28v18.5t-2 18.5q-2 -8 -2 -16v-19q0 -10 -1 -17t-3 -17q0 -14 -1 -26.5t-3 -25.5q0 -12 -1 -24t-3 -27q-4 -27 -6.5 -53.5t-6.5 -54.5 q-4 -27 -6 -53.5t-4 -53.5h78zM1548 1479h43v-643h99v-33h-142v676zM0 674h133v-35h-90v-279h84v-32h-84v-297h98v-33h-141v676zM174 674h133v-35h-90v-279h86v-32h-86v-330h-43v676zM330 674h133v-35h-90v-279h86v-32h-86v-330h-43v676zM485 674h133v-35h-90v-279h84v-32 h-84v-297h97v-33h-140v676zM645 602q0 35 21 55q20 18 61 19q39 0 57 -19q20 -20 21 -55v-115h-43v109q0 16 -6 33q-10 12 -29 12q-20 0 -29 -8q-10 -14 -10 -29v-538q0 -18 10 -29q10 -10 29 -10q18 0 29 12q6 8 6 35v116h43v-122q0 -35 -21 -56q-18 -18 -57 -18 q-41 0 -61 18q-20 20 -21 56v534zM879 639h-68v35h176v-35h-67v-641h-41v641zM1030 63q0 -12 8 -24t33 -12q20 0 33 8q10 10 10 31v114q0 14 -1 24.5t-3 20.5q-4 10 -7 19.5t-9 21.5l-78 148q-10 27 -17 47q-6 25 -6 45v98q0 33 21 53q20 18 59 19q35 0 60 -14 q18 -18 18 -50v-123h-39v119q0 33 -37 33q-18 0 -28 -8q-8 -10 -9 -27v-104q0 -33 15 -64q10 -18 18 -35.5t19 -35.5q10 -18 19 -37t19 -37q6 -12 11.5 -24.5t9.5 -24.5t6 -24.5t2 -29.5v-127q0 -33 -18 -51t-64 -18q-45 0 -65 18q-16 20 -17 56v120h37v-125zM1305 674h84 q18 0 32.5 -5t24.5 -14q23 -18 22 -57v-195q0 -25 -12 -36q-10 -14 -31 -21q20 -6 35 -20q14 -14 15 -43v-211q0 -39 -23 -56q-23 -18 -53 -18h-94v676zM1386 360q23 0 31 15q8 14 8 31v196q0 20 -8 29q-6 8 -33 8h-34v-279h36zM1350 328v-297h34q20 0 37 8q10 14 11 29v215 q0 45 -46 45h-36zM1653 674h45l-78 -410v-266h-43v266q-10 45 -18 98q-4 27 -10.5 53.5t-10.5 53.5q-6 27 -11 52.5t-11 51.5q-4 29 -8.5 52.5t-10.5 48.5h45l57 -348z" />
<glyph unicode="t" horiz-adv-x="1798" d="M569 1479h43l43 -445q4 -14 4 -28.5t3 -30.5q2 -16 2 -29.5t2 -30.5q2 -16 3 -29.5t3 -27.5q0 10 1 21.5t3 21.5v21.5t2 21.5t2 21.5v23.5q2 12 3 23.5t1 21.5l43 445h43l-74 -674h-55zM795 1479h45v-674h-45v674zM926 872q0 -16 6 -28q10 -10 33 -10q25 0 32 8 q10 10 11 30v115v24.5t-4 20.5t-7.5 20.5t-9.5 20.5l-76 148q-12 23 -18 47q-6 25 -6 45v96q0 35 20 53q20 20 60 21q37 0 59 -17q18 -16 18 -49v-121h-36v117q0 35 -39 35q-14 0 -29 -10q-8 -12 -8 -25v-104q0 -35 14 -64q10 -18 19.5 -35.5t19.5 -35.5q20 -43 39 -76 l9 -22.5t9 -24.5q8 -23 9 -54v-125q0 -35 -19 -53q-18 -18 -63 -18t-64 18q-18 18 -18 55v121h39v-123zM1262 1479v-605q0 -37 -21 -55q-23 -18 -63 -18q-41 0 -60 18q-25 18 -24 55v605h45v-602q0 -18 10 -33q10 -10 29 -10q23 0 30 10q12 12 13 33v602h41zM1446 999h-86 q-4 -25 -5 -48t-5 -50q-4 -25 -6.5 -49.5t-4.5 -46.5h-39l76 674h56l79 -674h-43zM1444 1032q-4 29 -6 55.5t-6 53.5q-4 29 -6.5 55.5t-6.5 52.5q0 4 -1 9.5t-1 11.5q0 10 -2 18q-2 10 -2 18.5t-2 18.5q-2 6 -2 14.5v14.5q-4 20 -4 30t-1 18.5t-3 18.5v-18t-2 -17 q0 -10 -1 -18t-1 -18q-2 -12 -3 -24.5t-1 -25.5q0 -14 -2 -26t-2 -25q-4 -27 -6.5 -53.5t-6.5 -52.5q-4 -29 -6 -55.5t-6 -55.5h80zM1548 1479h43v-641h97v-33h-140v674zM0 672h131v-33h-88v-279h84v-32h-84v-297h96v-33h-139v674zM172 672h133v-33h-90v-279h86v-32h-86 v-330h-43v674zM328 672h133v-33h-90v-279h86v-32h-86v-330h-43v674zM483 672h133v-33h-90v-279h84v-32h-84v-297h97v-33h-140v674zM643 600q0 37 21 55q20 20 61 21q39 0 57 -21q20 -20 21 -53v-115h-43v109q0 16 -8 33q-6 14 -27 14q-18 0 -31 -12q-8 -8 -8 -27v-538 q0 -18 8 -29q14 -10 31 -10q20 0 27 12q4 6 6 14t2 23v114h43v-120q0 -35 -21 -56q-18 -20 -57 -20q-41 0 -61 20q-20 18 -21 56v530zM877 639h-68v33h176v-33h-65v-641h-43v641zM1030 66q0 -10 8 -27q6 -12 33 -12q18 0 31 8q12 12 12 33v114q0 27 -6 43q-2 10 -6 20.5 t-8 22.5l-78 146q-6 10 -9 22.5t-8 24.5q-8 25 -8 45v98q0 33 23 51q18 20 57 21q43 0 59 -17q20 -12 21 -47v-123h-39v119q0 35 -37 35q-20 0 -28 -12q-10 -10 -11 -25v-104q0 -27 17 -64q10 -16 19 -34.5t20 -36.5q14 -37 36 -74q6 -10 11.5 -22.5t9.5 -24.5q8 -23 8 -56 v-124q0 -33 -18 -54q-18 -18 -64 -18q-45 0 -63 18q-20 20 -21 56v122h39v-124zM1305 672h84q39 0 57 -17q23 -18 22 -55v-197q0 -25 -12 -38q-12 -12 -31 -19q20 -4 35 -18q12 -16 13 -45v-211q0 -41 -21 -56q-25 -18 -55 -18h-92v674zM1384 360q27 0 33 15q8 14 8 31v194 q0 18 -8 31q-12 8 -33 8h-34v-279h34zM1350 328v-297h34q23 0 37 10q8 8 9 29v213q0 45 -46 45h-34zM1653 672h43l-78 -408v-266h-43v266q-4 23 -9 47.5t-10 50.5q-4 27 -9 52.5t-11 54.5q-4 27 -9 53.5t-11 52.5q-4 25 -9.5 49.5t-9.5 47.5h43l57 -346z" />
<glyph unicode="u" horiz-adv-x="1802" d="M121 1163h10q18 0 33 11q10 14 10 43v192q0 20 -8 27q-10 12 -27 12q-16 0 -22 -12q-8 -6 -8 -27v-96h-39v102q0 63 69 64q41 0 56 -17q16 -14 16 -49v-207q0 -27 -10 -41t-23 -16q10 -2 27 -19q12 -12 12 -45v-219q0 -35 -18 -49q-16 -16 -58 -16q-37 0 -55 16 q-18 14 -18 49v113h38v-109q2 -37 35 -36q37 0 37 36v215q0 29 -10 37q-8 8 -35 8h-12v33zM274 1479h86q39 0 64 -19q20 -14 20 -55v-526q0 -43 -20 -58q-23 -16 -64 -16h-86v674zM354 838q49 0 49 36v535q0 37 -49 37h-35v-608h35zM573 1479h43l46 -445q0 -14 2 -28.5 t2 -30.5q2 -16 3 -29.5t1 -30.5q2 -16 3 -29.5t3 -27.5q2 10 2 21.5v21.5q2 10 3 21.5t1 21.5t1 21.5t3 23.5v23.5t2 21.5l45 445h41l-72 -674h-55zM801 1479h43v-674h-43v674zM928 872q0 -18 8 -28q6 -10 33 -10q23 0 30 8q10 8 11 30v115q0 14 -1 24.5t-3 20.5t-6.5 20.5 t-8.5 20.5l-78 148q-12 23 -18 47q-6 25 -6 45v96q0 33 20 53t60 21q39 0 59 -17q20 -16 21 -49v-121h-41v117q0 35 -35 35q-18 0 -29 -10q-10 -8 -10 -25v-104q0 -29 14 -64q10 -18 19.5 -35.5t19.5 -35.5q10 -20 18.5 -39t18.5 -37q6 -10 11 -22.5t9 -24.5q8 -23 9 -54 v-125q0 -35 -19 -53q-18 -18 -63 -18t-64 18q-18 18 -18 55v121h39v-123zM1266 1479v-605q0 -37 -23 -55q-18 -18 -61 -18q-39 0 -64 18q-20 18 -20 55v605h43v-602q0 -23 10 -33t31 -10q18 0 28 10q12 12 13 33v602h43zM1448 999h-86q-2 -25 -4 -48t-6 -50q-4 -25 -5 -49.5 t-6 -46.5h-38l75 674h58l75 -674h-43zM1444 1032q-2 29 -4 55.5t-6 53.5q-4 29 -6.5 55.5t-6.5 52.5q0 12 -2 21q0 4 -1 8t-1 10q0 10 -1 18.5t-3 18.5q0 12 -4 29q0 20 -2 30t-2 18.5v18.5q-2 -10 -3 -18t-1 -17v-18t-2 -18q-2 -12 -2 -24.5t-2 -25.5q-2 -14 -2 -26t-2 -25 q-4 -27 -6.5 -53.5t-6.5 -52.5q-4 -29 -6 -55.5t-6 -55.5h78zM1550 1479h43v-641h99v-33h-142v674zM0 672h135v-33h-90v-279h82v-32h-82v-297h94v-33h-139v674zM174 672h133v-33h-90v-279h86v-32h-86v-330h-43v674zM330 672h135v-33h-90v-279h86v-32h-86v-330h-45v674z M487 672h134v-33h-91v-279h84v-32h-84v-297h97v-33h-140v674zM647 600q0 37 21 55q20 20 61 21q39 0 57 -21q20 -18 21 -53v-115h-43v109q0 20 -6 33q-8 14 -29 14q-20 0 -29 -12q-10 -10 -10 -27v-538q0 -14 10 -29q10 -10 29 -10q18 0 29 12q6 12 6 37v114h43v-120 q0 -37 -21 -56q-18 -20 -57 -20q-41 0 -61 20q-20 18 -21 56v530zM879 639h-66v33h174v-33h-65v-641h-43v641zM1032 66q0 -10 8 -27q8 -12 33 -12q20 0 33 8q8 10 8 33v114v23.5t-2 19.5q-4 10 -7 20.5t-9 22.5l-78 146l-9 22.5t-10 24.5q-6 27 -6 45v98q0 33 23 51 q20 20 59 21q41 0 58 -17q20 -12 20 -47v-123h-39v119q0 35 -37 35q-20 0 -28 -12q-8 -8 -9 -25v-104q0 -33 15 -64q10 -16 18 -34.5t19 -36.5q10 -18 19 -37t19 -37q6 -10 11.5 -22.5t9.5 -24.5t6 -25.5t2 -30.5v-124q0 -29 -20 -54q-18 -18 -64 -18q-45 0 -63 18 q-18 20 -19 56v122h39v-124zM1307 672h84q39 0 57 -17q23 -18 22 -55v-197q0 -25 -12 -38q-12 -12 -31 -19q20 -2 33 -18q14 -14 15 -45v-211q0 -41 -21 -56q-23 -18 -53 -18h-94v674zM1389 360q23 0 30 15q8 14 8 31v194q0 23 -8 31q-12 8 -35 8h-34v-279h39zM1350 328 v-297h34q27 0 37 10q12 8 13 29v213q0 45 -45 45h-39zM1655 672h45l-80 -408v-266h-43v266q-4 23 -8 47.5t-8 50.5q-6 27 -12.5 52.5t-10.5 54.5q-4 27 -10 53.5t-10 52.5q-4 25 -9.5 49.5t-9.5 47.5h45l55 -346z" />
<glyph unicode="v" horiz-adv-x="1804" d="M145 999h-86q-4 -25 -5 -48t-5 -50q-4 -25 -5 -49.5t-5 -46.5h-39l76 674h55l80 -674h-43zM143 1032q-4 29 -6 55.5t-6 53.5q-4 29 -6 55.5t-6 52.5q0 4 -1 9.5t-1 11.5q0 10 -2 18q-2 10 -2 18.5v18.5q-4 16 -4 29q-2 8 -2.5 15t-2.5 15q0 10 -1 18.5t-1 18.5 q-2 -10 -2 -18v-17q-2 -10 -3 -18t-1 -18q0 -12 -1 -24.5t-3 -25.5q0 -14 -1 -26t-3 -25q-4 -27 -6 -53.5t-6 -52.5q-4 -29 -6 -55.5t-7 -55.5h80zM272 872q0 -18 9 -28q10 -10 32 -10q23 0 33 8q8 8 8 30v115v24.5t-4 20.5q-2 10 -6 20.5t-8 20.5l-78 148q-6 10 -10 21 t-8 26q-6 25 -7 45v96q0 33 21 53q23 20 61 21q37 0 58 -17q20 -16 20 -49v-121h-39v117q0 35 -37 35q-18 0 -28 -10t-10 -25v-104q0 -31 16 -64q10 -18 18.5 -35.5t18.5 -35.5q10 -20 19 -39t20 -37q12 -20 18 -47q8 -23 8 -54v-125q0 -37 -18 -53q-18 -18 -64 -18 q-43 0 -63 18q-18 18 -19 55v121h39v-123zM469 872q0 -18 8 -28q6 -10 33 -10q20 0 31 8q10 10 10 30v115q0 27 -6 45q-2 10 -6 20.5t-9 20.5l-77 148q-4 10 -8.5 21t-8.5 26q-4 12 -5 23.5t-1 21.5v96q0 35 21 53q20 20 59 21q37 0 59 -17q18 -16 19 -49v-121h-39v117 q0 35 -37 35q-18 0 -29 -10q-10 -10 -10 -25v-104q0 -31 16 -64q16 -35 39 -71q10 -20 18.5 -39t18.5 -37q6 -10 11.5 -22.5t9.5 -24.5q8 -23 8 -54v-125q0 -35 -19 -53q-18 -18 -63 -18t-63 18q-18 16 -19 55v121h39v-123zM641 1479h43v-674h-43v674zM768 872q0 -18 8 -28 q6 -10 31 -10t33 8q10 10 10 30v115q0 14 -1 24.5t-3 20.5t-6 20.5t-9 20.5l-77 148q-12 23 -19 47q-6 25 -6 45v96q0 35 21 53q20 20 59 21q37 0 59 -17q18 -16 19 -49v-121h-39v117q0 35 -37 35q-14 0 -29 -10q-8 -8 -8 -25v-104q0 -35 14 -64q20 -37 39 -71 q20 -43 39 -76q6 -10 10.5 -22.5t8.5 -24.5q8 -23 8 -54v-125q0 -35 -19 -53q-18 -18 -63 -18t-63 18t-19 55v121h39v-123zM967 1446h-68v33h174v-33h-65v-641h-41v641zM1223 999h-88q-4 -25 -5.5 -48t-5.5 -50q-4 -25 -6 -49.5t-6 -46.5h-37l74 674h59l78 -674h-43z M1217 1032q-4 29 -5.5 55.5t-5.5 53.5q-4 29 -6 55.5t-6 52.5q-2 6 -2 21q0 4 -1 8t-3 10v18.5t-2 18.5q-2 6 -2 14.5t-2 14.5q0 8 -1 15t-1 15q-2 10 -3 18.5t-1 18.5q0 -10 -1 -18t-1 -17v-18t-3 -18q-2 -12 -2 -24.5t-2 -25.5q-2 -14 -2 -26t-4 -25q-4 -55 -12 -106 q-4 -29 -6 -55.5t-6 -55.5h80zM1325 1479h59l64 -435q4 -35 10 -74.5t15 -86.5q-2 29 -3.5 53.5t-1.5 46.5q-2 23 -2 39v29v428h43v-674h-61l-66 428q-2 12 -4 30.5t-6 41.5q-2 23 -4 47t-6 53v-25.5t2 -25.5q0 -12 1 -22.5t1 -20.5v-35q0 -8 1 -13.5t1 -9.5v-448h-43v674z M1595 1446h-67v33h174v-33h-66v-641h-41v641zM197 672h82q45 0 63 -17q23 -18 23 -55v-528q0 -39 -23 -56q-23 -18 -63 -18h-82v674zM274 31q47 0 48 39v532q0 37 -48 37h-34v-608h34zM424 672h43v-674h-43v674zM526 672h86q37 0 56 -17q23 -12 22 -47v-198q0 -25 -8 -41 q-8 -14 -37 -25q18 -6 33 -20q12 -16 12 -41v-285h-43v285q0 20 -10 30q-12 14 -37 15h-31v-330h-43v674zM602 360q45 0 45 41v199q0 39 -41 39h-37v-279h33zM752 672h131v-33h-88v-279h84v-32h-84v-297h96v-33h-139v674zM909 600q0 35 21 55q23 20 61 21q43 0 58 -21 q20 -18 20 -53v-115h-43v109q0 20 -6 33q-8 14 -29 14q-16 0 -28 -12q-10 -10 -11 -27v-538q0 -14 11 -29q14 -10 28 -10q18 0 29 12q6 12 6 37v114h43v-120q0 -37 -20 -56q-14 -20 -58 -20q-39 0 -61 20q-20 20 -21 56v530zM1143 639h-66v33h176v-33h-69v-641h-41v641z M1440 70q0 -37 -21 -56q-20 -20 -61 -20q-43 0 -64 20q-20 18 -20 56v530q0 37 20 55q20 20 64 21q41 0 61 -21q20 -18 21 -55v-530zM1397 600q0 20 -11 31q-12 12 -28 12q-23 0 -31 -12q-10 -8 -10 -31v-530q0 -23 10 -31q8 -12 31 -12q16 0 28 12q10 10 11 31v530z M1497 672h86q39 0 57 -17q23 -12 23 -47v-198q0 -12 -2 -21.5t-6 -19.5q-8 -14 -37 -25q20 -6 31 -20q14 -14 14 -41v-285h-43v285q0 18 -12 30q-8 14 -37 15h-31v-330h-43v674zM1575 360q45 0 45 41v199q0 39 -43 39h-37v-279h35z" />
<glyph unicode="w" horiz-adv-x="1607" d="M1042 999h-88q-2 -25 -4 -48t-4 -50q-4 -25 -6 -49.5t-4 -46.5h-39l74 674h57l78 -674h-43zM1038 1032q-4 29 -6 55.5t-6 53.5q-4 29 -6 55.5t-4 52.5q-2 6 -2 21q0 4 -1 8t-1 10q-2 10 -3 18.5t-1 18.5q-2 6 -2 14.5t-2 14.5q0 8 -1.5 15t-1.5 15q-2 10 -2 18.5t-2 18.5 q0 -10 -1 -18t-1 -17q0 -10 -1 -18t-3 -18q0 -12 -1 -24.5t-1 -25.5q-2 -14 -3 -26t-3 -25q-4 -27 -6 -53.5t-6 -52.5q-4 -29 -6 -55.5t-7 -55.5h80zM1143 1479h86q35 0 57 -17q23 -16 23 -49v-196q0 -12 -2 -22.5t-7 -20.5q-10 -16 -36 -25q10 -2 17 -7t15 -12 q12 -18 13 -43v-282h-43v282q0 16 -11 33q-12 14 -38 15h-31v-330h-43v674zM1221 1167q45 0 45 41v199q0 39 -41 39h-39v-279h35zM1397 1446h-66v33h174v-33h-65v-641h-43v641zM0 672h82q45 0 63 -17q20 -18 21 -55v-528q0 -41 -21 -56q-23 -18 -63 -18h-82v674zM78 31 q45 0 45 39v532q0 37 -45 37h-35v-608h35zM225 672h45v-674h-45v674zM330 672h84q39 0 57 -17q20 -12 21 -47v-198q0 -25 -9 -41q-4 -14 -34 -25q18 -6 32 -20q10 -16 11 -41v-285h-41v285q0 16 -11 30q-12 14 -37 15h-30v-330h-43v674zM406 360q45 0 45 41v199q0 39 -41 39 h-37v-279h33zM553 672h133v-33h-90v-279h84v-32h-84v-297h96v-33h-139v674zM713 600q0 39 22 55q18 20 62 21q39 0 57 -21q20 -18 20 -53v-115h-43v109q0 16 -8 33q-6 14 -26 14t-29 -12q-12 -8 -12 -27v-538q0 -18 12 -29q10 -10 29 -10q20 0 26 12q4 6 6 14t2 23v114h43 v-120q0 -37 -20 -56q-18 -20 -57 -20q-43 0 -62 20q-23 16 -22 56v530zM946 639h-65v33h174v-33h-66v-641h-43v641zM1243 70q0 -39 -22 -56q-18 -20 -62 -20q-41 0 -61 20q-23 16 -23 56v530q0 39 23 55q20 20 61 21q43 0 62 -21q23 -16 22 -55v-530zM1200 600q0 23 -10 31 q-12 12 -31 12q-16 0 -29 -12q-12 -10 -12 -31v-530q0 -23 12 -31q12 -12 29 -12q18 0 31 12q10 8 10 31v530zM1300 672h86q35 0 58 -17q20 -12 20 -47v-198q0 -25 -8 -41q-4 -14 -37 -25q23 -8 33 -20q12 -16 12 -41v-285h-43v285q0 20 -10 30q-8 14 -35 15h-33v-330h-43 v674zM1376 360q45 0 45 41v199q0 39 -41 39h-37v-279h33z" />
<glyph unicode="x" horiz-adv-x="2201" d="M25 1409q0 33 20 53t59 21q39 0 58 -21q20 -18 20 -53v-113h-43v107q0 10 -1 17t-5 16q-4 12 -29 12q-8 0 -15 -2t-11 -8q-12 -10 -12 -25v-539q0 -16 12 -28q4 -6 11 -8t15 -2q23 0 29 10q6 8 6 37v114h43v-120q0 -35 -20 -56q-18 -20 -58 -20q-39 0 -59 20t-20 56v532z M395 877q0 -31 -20 -56q-20 -20 -64 -20q-41 0 -61 20q-23 23 -23 56v532q0 31 23 53q20 20 61 21q43 0 64 -21q20 -25 20 -53v-532zM352 1407q0 23 -12 31q-8 10 -29 10q-23 0 -30 -10q-10 -8 -11 -31v-528q0 -23 11 -33q8 -10 30 -10q20 0 29 10q12 10 12 33v528z M430 1057h88v-31h-88v31zM555 1479h133v-33h-90v-279h86v-32h-86v-295h98v-35h-141v674zM698 1479h43l58 -279q6 35 12 69t12 70q8 35 16.5 70t14.5 70h41l-74 -324q10 -41 18.5 -85t18.5 -89q10 -47 21.5 -89t19.5 -87h-43l-61 307q-4 -18 -7.5 -35.5t-7.5 -40.5 q-4 -18 -8 -36.5t-8 -38.5q-4 -23 -8 -41.5t-8 -38.5q-4 -18 -8.5 -38t-8.5 -38h-39l76 350zM922 1479h131v-33h-90v-279h84v-32h-84v-295h98v-35h-139v674zM1079 1409q0 31 23 53q20 20 61 21q37 0 56 -21q23 -18 22 -53v-113h-45v107q0 16 -6 33q-8 12 -27 12 q-20 0 -30 -10q-4 -4 -7.5 -9.5t-3.5 -15.5v-539q0 -10 3 -16t8 -12q10 -10 30 -10q18 0 27 10q6 12 6 37v114h45v-120q0 -33 -22 -56q-18 -20 -56 -20q-41 0 -61 20q-23 23 -23 56v532zM1452 1479v-602q0 -31 -20 -56q-23 -20 -66 -20q-39 0 -59 20q-23 20 -23 56v602h43 v-600q0 -20 12 -33q8 -10 27 -10q20 0 31 10q12 12 12 33v600h43zM1538 1446h-68v33h177v-33h-68v-641h-41v641zM1667 1479h43v-674h-43v674zM1735 1479h45l45 -443v-30.5t4 -28.5q2 -16 3 -30.5t1 -28.5q2 -16 2 -30t2 -30q2 12 3 22.5t1 20.5q2 12 3 22.5t3 20.5v47 q0 10 1 22.5t1 22.5l45 443h43l-73 -674h-56zM1960 1479h135v-33h-90v-279h84v-32h-84v-295h94v-35h-139v674zM0 676h84q78 0 78 -68v-217q0 -35 -19 -51q-18 -16 -59 -16h-41v-324h-43v676zM78 356q20 0 31 9q10 8 10 26v211q0 20 -10 31q-12 8 -31 8h-35v-285h35zM205 676 h86q18 0 32.5 -5t26.5 -12q20 -16 21 -49v-196q0 -29 -9 -43q-8 -16 -36 -27q20 -6 32 -18q12 -16 13 -41v-285h-41v285q0 10 -4 17t-9 15q-12 12 -38 13h-29v-330h-45v676zM283 362q47 0 47 41v199q0 39 -45 39h-35v-279h33zM598 72q0 -37 -20 -58q-18 -16 -64 -16 q-43 0 -61 16q-23 23 -23 58v530q0 35 23 57q20 18 61 19q41 0 64 -19q20 -20 20 -57v-530zM555 602q0 23 -12 31q-10 12 -29 12q-20 0 -27 -12q-12 -8 -12 -31v-530q0 -27 12 -31q6 -12 27 -12q18 0 29 12q12 4 12 31v530zM655 676h82q23 0 39.5 -5t26.5 -14q20 -20 20 -57 v-524q0 -39 -20 -60q-23 -16 -66 -16h-82v676zM733 33q47 0 47 39v530q0 39 -47 39h-33v-608h33zM1049 676v-604q0 -37 -21 -58q-16 -16 -61 -16q-43 0 -62 16q-23 23 -22 58v604h45v-604q0 -27 8 -31q12 -12 31 -12q18 0 28 12q12 4 13 31v604h41zM1094 602q0 37 22 57 q20 18 58 19q39 0 61 -19q18 -23 18 -57v-113h-43v107q0 10 -2 18.5t-4 16.5q-10 14 -30 14q-18 0 -27 -12q-8 -8 -8 -29v-538q0 -18 8 -27q10 -10 27 -10q20 0 30 12q2 4 4 13t2 22v117h43v-123q0 -35 -18 -56q-18 -16 -61 -16q-39 0 -58 16q-23 20 -22 58v530zM1298 676 h134v-35h-91v-279h84v-32h-84v-297h97v-33h-140v676zM1470 676h86q18 0 32 -5t24 -12q23 -16 22 -49v-196q0 -29 -8 -43q-6 -16 -37 -27q20 -8 33 -18q12 -16 12 -41v-285h-43v285q0 10 -2 17t-6 15q-12 12 -39 13h-31v-330h-43v676zM1546 362q45 0 45 41v199q0 39 -39 39 h-39v-279h33zM1741 -143q-10 47 -18.5 97t-12.5 101q-8 53 -10 104.5t-2 104.5t2 103.5t10 103.5q10 106 31 201h33q-10 -47 -16.5 -96.5t-10.5 -102.5q-6 -104 -6 -209q0 -53 1 -105.5t5 -105.5t10 -101t17 -95h-33zM1841 66q0 -12 8 -25q8 -12 33 -12t31 8q12 8 12 31v114 q0 27 -6 43q-4 10 -7 21.5t-7 21.5l-80 148q-4 10 -8.5 21.5t-8.5 25.5q-6 25 -6 45v96q0 33 23 55q18 18 59 19q37 0 58 -16q20 -12 20 -50v-120h-39v118q0 35 -37 35q-20 0 -28 -12q-10 -10 -11 -27v-102q0 -31 17 -64q10 -18 19 -36.5t20 -34.5q8 -20 17 -38t19 -36 q6 -12 11.5 -23.5t9.5 -27.5q4 -10 6 -22.5t2 -28.5v-127q0 -33 -20 -52q-8 -10 -24.5 -13t-37.5 -3q-47 0 -63 16q-20 18 -21 56v123h39v-127zM2028 672q12 -47 20 -97.5t12 -103.5q8 -53 10.5 -103.5t2.5 -103.5t-2.5 -104t-10.5 -105q-4 -51 -12 -101t-20 -97h-29 q18 92 24 196t7 211q0 53 -1 104.5t-4 104.5q-4 53 -10 102.5t-16 96.5h29z" />
<glyph unicode="y" horiz-adv-x="2160" d="M279 1409q0 33 20 53q23 20 61 21q39 0 58 -21q20 -18 20 -53v-113h-43v107q0 18 -8 33q-4 12 -27 12q-18 0 -28 -10t-10 -25v-539q0 -14 10 -28q10 -10 28 -10q20 0 27 10q8 10 8 37v114h43v-120q0 -35 -20 -56q-18 -20 -58 -20q-39 0 -61 20q-20 20 -20 56v532z M483 1479h84q37 0 60 -15q20 -18 20 -49v-198q0 -25 -8 -41q-10 -18 -37 -25q23 -8 33 -21q12 -16 12 -43v-282h-43v285q0 14 -10 30q-14 14 -37 15h-31v-330h-43v674zM559 1167q45 0 45 43v199q0 37 -41 37h-37v-279h33zM709 1479h131v-33h-88v-279h82v-32h-82v-295h94v-35 h-137v674zM1006 999h-86q-4 -23 -6.5 -47t-4.5 -49q-4 -25 -6 -49.5t-4 -48.5h-39l74 674h59l76 -674h-43zM1001 1034q-2 29 -4 54.5t-6 54.5t-6 53.5t-6 52.5v19q-2 8 -2 12t-2 10q-2 10 -2 18.5v14.5q-2 10 -3 17.5t-3 15.5q0 20 -2 30t-2 39q-2 -10 -2 -19t-3 -20 q0 -10 -1 -18t-1 -16q0 -14 -1 -25.5t-3 -26.5q0 -12 -1 -24t-3 -27q-4 -27 -7 -52.5t-7 -53.5q-4 -57 -12 -109h79zM1135 1446h-66v33h176v-33h-65v-641h-45v641zM1434 1479v-602q0 -33 -23 -56q-23 -20 -63 -20q-41 0 -62 20q-23 20 -22 56v602h45v-600q0 -23 10 -33 q8 -10 29 -10q23 0 30 10q10 14 11 33v600h45zM1489 1479h84q39 0 59 -15q20 -18 21 -49v-198q0 -23 -6 -41q-10 -18 -39 -25q20 -6 32 -21q12 -12 13 -43v-282h-41v285q0 8 -4 15t-9 15q-8 14 -36 15h-31v-330h-43v674zM1565 1167q47 0 47 43v199q0 37 -43 37h-37v-279h33z M1716 1479h133v-33h-90v-279h86v-32h-86v-295h99v-35h-142v674zM1913 872q0 -12 10 -26q4 -10 31 -10q25 0 31 8q10 8 10 33v112v23.5t-4 19.5q-2 10 -5.5 20.5l-7.5 22.5l-77 146q-8 10 -12.5 22t-8.5 25q-2 14 -4 25.5t-2 21.5v98q0 31 22 51q20 18 60 19q37 0 57 -17 q23 -16 23 -47v-121h-41v117q0 33 -37 33q-23 0 -27 -10q-10 -8 -10 -23v-106q0 -31 12 -64q10 -16 20.5 -33.5t20.5 -37.5q8 -18 17.5 -38t19.5 -36q6 -10 11.5 -23.5t9.5 -23.5q4 -12 5 -25.5t1 -30.5v-123q0 -37 -17 -55q-23 -18 -63 -18q-45 0 -66 18q-18 20 -18 58v118 h39v-123zM0 676h82q23 0 38 -5t27 -14q23 -18 23 -57v-524q0 -41 -23 -60q-27 -16 -65 -16h-82v676zM80 33q43 0 43 39v530q0 39 -43 39h-37v-608h37zM225 676h133v-35h-90v-279h84v-32h-84v-297h97v-33h-140v676zM424 66q0 -16 8 -25q6 -12 31 -12t33 8q10 10 10 31v114 q0 33 -4 43t-7 21.5t-10 21.5l-77 148q-4 10 -8.5 21.5t-8.5 25.5q-8 23 -8 45v96q0 16 6 30.5t17 24.5q20 18 59 19q37 0 59 -16q18 -10 19 -50v-120h-37v118q0 35 -37 35q-18 0 -31 -12q-8 -12 -8 -27v-102q0 -31 16 -64q16 -39 37 -71q10 -20 18.5 -38t18.5 -36 q14 -25 21 -51q10 -25 10 -51v-127q0 -31 -21 -52q-16 -16 -63 -16t-61 16q-23 18 -23 56v123h41v-127zM596 676h43v-676h-43v676zM784 328h82v-310l-8 -8q-10 -6 -31 -8q-10 -4 -21 -4h-24q-45 0 -61 16q-25 20 -25 58v530q0 35 25 57q18 18 61 19q39 0 62 -19 q23 -23 22 -57v-110h-45v106q0 23 -10 35l-12 8t-17 4q-12 0 -28 -12q-12 -12 -13 -35v-532q0 -18 13 -27q14 -10 28 -10q4 0 10.5 1t12.5 1q12 4 16 8v256h-37v33zM922 676h63l62 -436q4 -33 10 -74t14 -88q-4 29 -4 53.5v46.5q0 23 -1 39t-1 27v432h43v-676h-61l-64 428 q-4 12 -5 30.5t-5 41.5t-6 48t-6 54q2 -16 2 -28.5v-24.5v-21.5t2 -21.5q0 -27 2 -37v-23v-446h-45v676zM1163 676h135v-35h-90v-279h84v-32h-84v-297h97v-33h-142v676zM1337 676h82q20 0 37 -5t27 -14q23 -18 22 -57v-524q0 -41 -22 -60q-23 -16 -64 -16h-82v676zM1415 33 q45 0 45 39v530q0 39 -45 39h-35v-608h35zM1667 676h86q16 0 30.5 -5t24.5 -14q25 -20 25 -57v-197q0 -20 -14 -34q-14 -18 -31 -21q20 -6 35 -18q14 -14 14 -45v-209q0 -41 -22 -60q-23 -16 -54 -16h-94v676zM1749 362q23 0 31 15q8 14 8 31v194q0 23 -8 31t-33 8h-35v-279 h37zM1712 330v-297h35q27 0 37 10q4 4 7 11t3 18v213q0 45 -45 45h-37zM2015 676h43l-78 -410v-266h-41v266q-10 45 -18 99q-8 29 -12 54l-8 50q-8 29 -12.5 54.5t-10.5 51.5q-4 29 -8 53.5t-10 47.5h43l59 -348z" />
<glyph unicode="z" horiz-adv-x="3514" d="M0 1409q0 33 20 53t60 21q39 0 59 -21q20 -20 21 -53v-113h-45v107q0 16 -6 33q-8 12 -29 12q-18 0 -27 -10q-10 -8 -10 -25v-539q0 -18 10 -28q8 -10 27 -10q20 0 29 10q6 12 6 37v114h45v-120q0 -31 -21 -56q-20 -20 -59 -20t-60 20q-20 20 -20 56v532zM203 1479h86 q35 0 57 -15q23 -18 23 -49v-198q0 -10 -2 -20.5t-7 -20.5q-8 -18 -36 -25q20 -6 30 -21q14 -18 15 -43v-282h-43v285q0 8 -4.5 15t-8.5 15q-8 14 -34 15h-33v-330h-43v674zM281 1167q45 0 45 43v199q0 37 -43 37h-37v-279h35zM426 1479h135v-33h-90v-279h84v-32h-84v-295 h96v-35h-141v674zM727 999h-88q-2 -23 -4 -47t-6 -49t-4 -49.5t-4 -48.5h-37l73 674h58l76 -674h-43zM725 1034q-4 29 -6 54.5t-6 54.5t-6 53.5t-7 52.5q-2 8 -2 19q0 8 -1 12t-1 10q0 16 -4 33q-2 10 -3 17.5t-1 15.5t-1 15t-1 15t-1 17.5t-1 21.5q-2 -10 -3 -19t-1 -20 q-2 -10 -2 -18v-16q-2 -14 -3 -25.5t-1 -26.5q-2 -12 -3 -24t-3 -27q-2 -27 -4 -52.5t-7 -53.5q-8 -55 -12 -109h80zM856 1446h-65v33h174v-33h-66v-641h-43v641zM1155 1479v-602q0 -31 -20 -56q-20 -20 -66 -20q-39 0 -59 20q-23 23 -23 56v602h43v-600q0 -16 12 -33 q8 -10 27 -10q20 0 31 10q12 12 12 33v600h43zM1212 1479h84q37 0 58 -15q23 -16 22 -49v-198q0 -23 -6 -41q-10 -18 -39 -25q18 -6 33 -21q12 -16 12 -43v-282h-43v285q0 18 -10 30q-12 14 -37 15h-31v-330h-43v674zM1288 1167q45 0 45 43v199q0 37 -41 37h-37v-279h33z M1438 1479h133v-33h-90v-279h82v-32h-82v-295h94v-35h-137v674zM1634 872q0 -16 8 -26q4 -10 33 -10q23 0 33 8q10 10 10 33v112q0 27 -6 43q-4 20 -14 43l-80 146q-4 10 -7 22t-7 25q-4 14 -5.5 25.5t-1.5 21.5v98q0 16 5.5 28.5t13.5 22.5q20 18 59 19q37 0 60 -17 q18 -16 18 -47v-121h-37v117q0 33 -37 33q-20 0 -28 -10q-10 -10 -11 -23v-106q0 -27 17 -64q10 -16 19.5 -33.5t19.5 -37.5q10 -18 18 -38t19 -36q6 -10 11 -23.5t9 -23.5q4 -12 6 -25.5t2 -30.5v-123q0 -16 -5 -30.5t-13 -24.5q-18 -18 -64 -18q-47 0 -65 18 q-16 23 -17 58v118h37v-123zM1911 1479h80q43 0 65 -17q23 -23 23 -57v-526q0 -33 -23 -56q-23 -18 -65 -18h-80v674zM1989 840q47 0 47 37v532q0 37 -47 37h-37v-606h37zM2136 1479h131v-33h-90v-279h84v-32h-84v-295h94v-35h-135v674zM2331 872q0 -12 10 -26q4 -10 33 -10 q20 0 30 8q12 12 13 33v112q0 29 -9 43q-4 10 -6 20.5t-8 22.5l-78 146q-10 27 -16 47q-8 25 -8 47v98q0 29 22 51q20 18 60 19q37 0 59 -17q18 -12 18 -47v-121h-36v117q0 33 -41 33q-20 0 -25 -10q-10 -10 -10 -23v-106q0 -33 14 -64q10 -16 19.5 -33.5t19.5 -37.5 q10 -18 18.5 -38t18.5 -36q14 -25 20 -47q8 -23 9 -56v-123q0 -35 -19 -55q-18 -18 -65 -18q-43 0 -62 18q-20 25 -20 58v118h39v-123zM2505 1479h43v-674h-43v674zM2697 1133h80v-308l-10 -8q-10 -8 -29 -12q-10 -2 -21.5 -3t-25.5 -1q-41 0 -61 20q-23 23 -23 56v532 q0 31 23 53q20 20 61 21q43 0 64 -21q23 -18 22 -53v-111h-45v105q0 23 -10 33q-12 12 -31 12q-18 0 -27 -12q-12 -10 -12 -33v-529q0 -18 12 -28q8 -10 27 -10q18 0 23 2q14 4 18 8v254h-35v33zM2832 1479h64l61 -432q4 -35 9.5 -75t15.5 -89q-2 29 -3 54.5t-3 47.5v66v428 h41v-674h-60l-65 430q0 10 -3 28.5t-7 43.5q-4 47 -13 100q0 -14 1 -26.5t1 -24.5q2 -12 2 -23.5t2 -19.5q0 -25 2 -35v-23v-450h-45v674zM3074 1479h133v-33h-88v-279h84v-32h-84v-295h96v-35h-141v674zM3248 1479h84q37 0 57 -15q23 -16 23 -49v-198q0 -10 -2 -20.5 t-6 -20.5q-10 -18 -37 -25q20 -6 31 -21q14 -18 14 -43v-282h-43v285q0 14 -10 30q-8 14 -37 15h-31v-330h-43v674zM3324 1167q45 0 45 43v199q0 37 -41 37h-37v-279h33zM831 195h-88q-2 -23 -4 -47.5t-6 -49.5q-2 -25 -3 -50t-5 -48h-39l76 676h57l78 -676h-45zM829 227 q-4 29 -6 55.5t-6 53.5t-6 54.5t-6 53.5q-2 6 -2 21v9t-2 9q-2 10 -3 18.5t-1 16.5q-2 8 -2 15.5t-2 15.5v15t-2 18q-2 8 -3.5 16t-1.5 18q0 -10 -1 -18t-1 -16q0 -10 -1 -17.5t-1 -15.5q-2 -16 -3 -28.5t-3 -24.5q0 -12 -1 -25.5t-3 -26.5q-2 -25 -5 -52t-5 -56 q-8 -51 -12 -109h79zM932 676h63l64 -436q4 -33 9 -74t13 -88q-2 29 -2 53.5v46.5q-2 23 -2 39v27v432h43v-676h-61l-66 428q-2 12 -4 30.5t-4 41.5q-4 23 -7 48t-7 54q0 -16 2 -28.5t2 -24.5v-43q2 -10 2 -19.5v-17.5q0 -6 1 -11t1 -12v-446h-47v676zM1176 676h84 q20 0 35.5 -5t25.5 -14q23 -16 22 -57v-524q0 -43 -22 -60q-23 -16 -61 -16h-84v676zM1255 33q45 0 45 39v530q0 39 -45 39h-36v-608h36zM1532 66q0 -18 8 -25q6 -12 33 -12q23 0 33 8q8 12 8 31v114q0 27 -6 43q0 10 -4.5 21.5t-8.5 21.5l-77 148q-14 25 -17 47 q-4 12 -6 23.5t-2 21.5v96q0 31 20 55q25 18 62 19q35 0 55 -16q20 -12 21 -50v-120h-39v118q0 35 -37 35q-20 0 -29 -12q-8 -8 -8 -27v-102q0 -35 14 -64q10 -18 19.5 -36.5t19.5 -34.5q10 -20 18.5 -38t18.5 -36q6 -12 11.5 -23.5t9.5 -27.5q4 -10 6 -22.5t2 -28.5v-127 q0 -33 -21 -52q-14 -16 -61 -16q-49 0 -64 16q-18 18 -18 56v123h39v-127zM1868 676v-604q0 -37 -21 -58q-23 -16 -61 -16q-43 0 -66 16q-8 10 -14 23.5t-6 34.5v604h43v-604q0 -25 10 -31q14 -12 33 -12q18 0 31 12q10 6 10 31v604h41zM1927 676h86q76 0 76 -68v-217 q0 -33 -21 -51q-16 -16 -55 -16h-45v-324h-41v676zM2005 356q18 0 33 9q10 8 10 26v211q0 20 -10 31q-16 8 -33 8h-37v-285h37zM2134 676h131v-35h-90v-279h84v-32h-84v-297h96v-33h-137v676zM2306 676h86q18 0 32.5 -5t24.5 -12q23 -16 23 -49v-196q0 -27 -10 -43 q-6 -16 -35 -27q18 -6 31 -18q14 -14 14 -41v-285h-45v285q0 20 -10 32q-12 12 -37 13h-31v-330h-43v676zM2382 362q45 0 45 41v199q0 39 -43 39h-35v-279h33zM2497 676h43l45 -445q2 -14 3 -29.5t3 -31.5q0 -16 1 -29.5t3 -29.5q0 -14 1 -28.5t5 -29.5q0 10 1 21.5t3 21.5 t2 21.5v21.5v22.5t2 22.5q0 12 1 23.5t3 23.5l45 445h43l-73 -676h-58zM2724 676h43v-676h-43v676zM2853 66q0 -8 2 -14.5t4 -10.5q12 -12 33 -12q25 0 30 8q8 4 9.5 12t1.5 19v114q0 33 -2 43q-4 10 -7.5 21.5t-7.5 21.5l-77 148q-12 23 -19 47q-4 12 -6 23.5t-2 21.5v96 q0 33 22 55q20 18 60 19q37 0 59 -16q20 -14 21 -50v-120h-41v118q0 35 -35 35q-20 0 -29 -12q-10 -8 -10 -27v-102q0 -31 16 -64q10 -18 19.5 -36.5t17.5 -34.5q8 -20 17.5 -38t19.5 -36q6 -12 11.5 -23.5t9.5 -27.5q8 -18 8 -51v-127q0 -33 -19 -52q-18 -16 -63 -16 q-47 0 -64 16q-20 20 -20 56v123h41v-127zM3191 72q0 -35 -23 -58q-18 -16 -61 -16t-62 16q-20 18 -20 58v530q0 39 20 57t62 19q39 0 61 -19q23 -23 23 -57v-530zM3148 602q0 20 -10 31q-12 12 -31 12q-20 0 -29 -12q-12 -10 -12 -31v-530q0 -25 12 -31q8 -12 29 -12 q18 0 31 12q10 6 10 31v530zM3248 676h84q18 0 32.5 -5t24.5 -12q23 -14 23 -49v-196q0 -23 -8 -43q-8 -16 -37 -27q18 -6 31 -18q14 -18 14 -41v-285h-43v285q0 16 -10 32q-10 12 -37 13h-31v-330h-43v676zM3324 362q45 0 45 41v199q0 39 -41 39h-37v-279h33z" />
<glyph unicode="{" horiz-adv-x="454" d="M63 614q41 0 81 34t40 97v494q0 133 31 183.5t102 50.5h70v-72h-57q-39 0 -50.5 -42t-11.5 -120v-477q0 -82 -30.5 -126t-69.5 -58q37 -16 68.5 -61.5t31.5 -119.5v-479q0 -78 11.5 -120t50.5 -42h57v-71h-70q-72 0 -102.5 50t-30.5 183v496q0 61 -40 95t-81 34v71z" />
<glyph unicode="|" horiz-adv-x="454" d="M184 1481h84v-1489h-84v1489z" />
<glyph unicode="}" horiz-adv-x="454" d="M63 -244h60q39 0 50 42t11 120v479q0 80 30 125t71 60q-39 14 -70 59t-31 121v477q0 78 -11 120t-50 42h-60v72h72q70 0 101.5 -50.5t31.5 -183.5v-494q0 -63 40 -97t79 -34v-71q-39 0 -79 -34t-40 -95v-496q0 -133 -31.5 -183t-101.5 -50h-72v71z" />
<glyph unicode="~" horiz-adv-x="614" d="M70 449q23 72 49 123t78 51q33 0 62.5 -21.5t55.5 -50.5q25 -25 49.5 -45.5t47.5 -20.5q18 0 32.5 14.5t26.5 37t21.5 50t15.5 54.5l31 -53q-23 -78 -48.5 -126t-78.5 -48q-31 0 -59.5 21.5t-55.5 49.5q-25 23 -50.5 44.5t-49.5 21.5q-16 0 -30.5 -13.5t-25 -34 t-18.5 -45t-14 -44.5v2q-2 -4 -4.5 -10.5t-2.5 -10.5z" />
<glyph unicode="&#xa3;" horiz-adv-x="2725" d="M1399 874q0 -14 6 -26q8 -12 35 -12q23 0 30 10q10 8 11 31v112q0 16 -1 26.5t-3 20.5q-2 14 -17 41l-78 146q-4 12 -8 23t-8 24q-6 27 -6 47v98q0 33 20 53q12 8 26.5 13.5t33.5 5.5q35 0 59 -14q10 -10 15.5 -21.5t5.5 -30.5v-123h-41v121q0 33 -35 33q-16 0 -29 -8 q-10 -10 -10 -27v-104q0 -35 16 -66q8 -16 17.5 -34.5t19.5 -36.5t19.5 -37t19.5 -37l9 -22.5t10 -24.5q10 -31 10 -54v-127q0 -33 -21 -53q-18 -18 -63 -18t-66 18q-16 20 -16 56v122h39v-125zM1569 1483h86q80 0 80 -66v-219q0 -29 -21 -49q-23 -18 -59 -19h-43v-325h-43 v678zM1649 1163q20 0 30 11q10 10 11 26v211q0 16 -11 31q-12 8 -30 8h-37v-287h37zM1778 1483h133v-33h-92v-279h86v-32h-86v-299h96v-35h-137v678zM1937 1411q0 37 21 55q25 20 59 21q37 0 60 -19q18 -18 18 -55v-115h-43v109q0 16 -6 33q-6 12 -29 12q-14 0 -26 -8 q-12 -12 -13 -29v-541q0 -16 13 -28q10 -10 26 -10q23 0 29 12t6 35v118h43v-122q0 -39 -18 -56q-18 -20 -60 -20q-39 0 -59 20q-20 18 -21 56v532zM2144 1483h43v-678h-43v678zM2374 1004h-88q-4 -25 -5.5 -49.5t-5.5 -49.5q-2 -25 -4 -50.5t-6 -49.5h-39l76 678h57 l78 -678h-43zM2370 1036q-4 29 -6.5 55.5t-6.5 53.5t-5 53.5t-5 54.5q-2 4 -2 9.5t-2 9.5q0 14 -2 20q0 18 -4 35q0 10 -1 16.5t-1 14.5q-2 10 -3 16t-1 17q-2 6 -2 15t-2 19v-34q0 -10 -1.5 -18.5t-3.5 -18.5q0 -12 -1 -25.5t-3 -25.5q0 -10 -1 -23.5t-3 -26.5 q-4 -29 -6 -54t-6 -54t-6 -55.5t-6 -53.5h80zM2476 1483h41v-643h98v-35h-139v678zM143 197h-84q-4 -25 -6 -48.5t-6 -50.5t-5 -50t-3 -48h-39l74 676h57l78 -676h-41zM143 229q-4 29 -6 55.5t-6 53.5t-7 53.5t-5 54.5q-2 6 -2 21v9t-2 9q-2 10 -2 19.5t-2 17.5t-2 15.5 t-3 13.5q0 8 -1 16t-1 15q-2 10 -3 19t-1 20q-2 -10 -2 -18.5v-18.5q-2 -8 -2 -17.5t-2 -17.5q0 -14 -1 -26.5t-1 -26.5q0 -10 -1 -22.5t-3 -27.5q-4 -27 -7 -53t-7 -55t-6 -54.5t-5 -54.5h80zM246 676h88q78 0 78 -66v-219q0 -31 -19 -49q-23 -18 -59 -18h-43v-324h-45v676 zM328 356q14 0 30 11q12 8 13 26v211q0 18 -13 29q-10 10 -30 10h-37v-287h37zM455 676h86q80 0 80 -66v-219q0 -29 -21 -49q-23 -18 -59 -18h-41v-324h-45v676zM535 356q16 0 30 11q12 8 13 26v211q0 18 -13 29q-10 10 -30 10h-35v-287h35zM664 676h133v-33h-90v-278h84 v-33h-84v-297h96v-35h-139v676zM963 197h-86q-4 -25 -5.5 -48.5t-5.5 -50.5t-5 -50t-5 -48h-39l74 676h57l78 -676h-41zM961 229q-4 29 -6.5 55.5t-6.5 53.5t-6 53.5t-4 54.5q-4 12 -4 21v9t-2 9q-2 10 -2 19.5t-2 17.5t-2 15.5t-2 13.5q0 8 -1 16t-1 15q-2 10 -2 19t-2 20 q0 -10 -1.5 -18.5t-1.5 -18.5q-2 -8 -2 -17.5v-17.5q0 -14 -1 -26.5t-3 -26.5q0 -10 -1 -22.5t-3 -27.5q-4 -27 -7 -53t-7 -55t-5 -54.5t-5 -54.5h80zM1065 676h86q37 0 57 -14t21 -50v-198q0 -27 -8 -43q-6 -14 -35 -25q20 -8 33 -20q10 -14 10 -41v-285h-41v287 q0 14 -12 30q-10 14 -35 15h-33v-332h-43v676zM1143 365q45 0 45 41v198q0 39 -43 39h-37v-278h35zM1417 197h-88q-2 -25 -3 -48.5t-5 -50.5t-6 -50t-4 -48h-39l76 676h55l78 -676h-43zM1413 229q-4 29 -6 55.5t-6 53.5q-2 27 -4 53.5t-6 54.5q-2 6 -2 21q0 4 -1.5 9t-1.5 9 q-2 10 -3 19.5t-1 17.5q-4 20 -4 29q-2 8 -2 16v15q-2 10 -2 19v20q-2 -10 -2 -18.5t-2 -18.5q0 -8 -1 -17.5t-1 -17.5q-2 -14 -3 -26.5t-1 -26.5q-4 -23 -6 -50q-4 -27 -6 -53t-4 -55q-4 -29 -7.5 -54.5t-7.5 -54.5h80zM1520 676h61l64 -436q4 -33 10 -73t12 -87 q-2 29 -2 53.5t-2 46.5q-2 23 -2 39.5v26.5v430h45v-676h-64l-63 430q-2 12 -4 30.5t-6 41.5t-6 48t-7 52v-24.5t3 -26.5v-21.5t2 -21.5v-37q2 -6 2 -11v-9v-451h-43v676zM1747 604q0 37 22 55q20 20 62 21q39 0 57 -21q20 -16 21 -55v-110h-45v106v18.5t-4 14.5 q-8 14 -29 14q-18 0 -29 -10q-12 -12 -12 -29v-540q0 -16 12 -29q12 -8 29 -8q18 0 29 10q4 8 4 35v117h45v-121q0 -33 -21 -58q-23 -18 -57 -18q-20 0 -35.5 5t-26.5 13q-23 23 -22 58v532zM1954 676h133v-33h-92v-278h86v-33h-86v-297h98v-35h-139v676zM2230 676h84 q37 0 60 -17q20 -16 20 -57v-194q0 -27 -12 -39q-10 -14 -31 -21q25 -4 33 -18q16 -16 16 -43v-213q0 -39 -22 -58q-23 -16 -54 -16h-94v676zM2312 365q25 0 31 14q8 14 8 31v194q0 20 -8 31q-8 8 -33 8h-37v-278h39zM2273 332v-297h37q29 0 37 8q8 12 8 29v213q0 47 -43 47 h-39zM2580 676h43l-79 -410v-266h-41v266q-4 23 -9.5 48.5t-11.5 52.5q-4 27 -9 52t-11 52q-4 29 -9.5 55.5t-9.5 51.5q-6 27 -10 51t-8 47h43l57 -346z" />
<glyph unicode="&#xa4;" horiz-adv-x="1138" d="M51 1167h12q16 0 31 11q10 8 10 43v192q0 18 -6 29q-10 10 -28 10q-16 0 -23 -10q-8 -12 -8 -29v-96h-37v102q0 66 68 66q41 0 57 -17q16 -20 16 -51v-207q0 -14 -2 -23t-6 -18q-14 -14 -24 -16q6 -4 13 -7t11 -11q14 -12 15 -48v-217q0 -31 -19 -49q-18 -18 -57 -18 q-37 0 -56 18q-18 14 -18 49v111h39v-107q0 -37 33 -36q39 0 39 36v213q0 29 -11 39q-8 8 -34 9h-15v32zM209 1485h82q20 0 36.5 -5t26.5 -14q23 -18 23 -57v-528q0 -39 -23 -56q-23 -18 -63 -18h-82v678zM287 842q45 0 45 35v536q0 37 -45 37h-37v-608h37zM524 1411 q0 35 23 57q20 18 59 19q37 0 60 -19q18 -23 18 -57v-113h-43v109q0 16 -6 33q-8 14 -29 14q-16 0 -28 -12q-6 -4 -7.5 -11.5t-1.5 -15.5v-541q0 -10 1 -16t8 -12q10 -8 28 -8q23 0 29 10q6 12 6 35v118h43v-124q0 -35 -18 -54q-25 -20 -60 -20t-59 20q-23 18 -23 54v534z M817 1135h80v-310l-6 -6q-16 -8 -31 -10q-23 -6 -47 -6q-37 0 -61 20q-20 18 -21 54v534q0 37 21 57q20 18 61 19q39 0 64 -19q20 -20 20 -57v-111h-43v107q0 18 -10 33q-12 14 -31 14q-16 0 -29 -14q-12 -16 -12 -33v-533q0 -10 4 -16l8 -12q10 -8 29 -8q16 0 25 2 q14 4 16 6v256h-37v33zM956 1485h45v-678h-45v678zM643 678h84q35 0 57 -19q23 -16 23 -57v-194q0 -25 -12 -37q-10 -14 -31 -21q25 -6 33 -20q16 -12 16 -43v-213q0 -37 -22 -56q-18 -16 -56 -16h-92v676zM723 365q23 0 33 14q8 14 8 29v196q0 23 -8 31q-10 10 -35 10h-35 v-280h37zM686 332v-297h35q29 0 37 8q10 14 10 29v213q0 47 -45 47h-37zM991 678h45l-80 -410v-266h-43v266q-4 23 -8 47.5t-10 51.5q-4 27 -9 53t-9 51q-6 29 -12.5 54.5t-10.5 54.5q-10 51 -18 98h43l59 -348z" />
<glyph unicode="&#xa5;" horiz-adv-x="2002" d="M561 877q0 -35 -20 -54q-20 -20 -62 -20q-23 0 -37 5t-26 15q-20 18 -21 54v534q0 37 21 57q25 18 63 19q43 0 62 -19q20 -20 20 -57v-534zM520 1411q0 18 -12 31q-12 12 -29 12q-18 0 -30 -12q-12 -10 -13 -31v-532q0 -20 13 -33q6 -4 13 -6t17 -2t16.5 2t12.5 6 q12 16 12 33v532zM621 1485h86q35 0 57 -17q23 -18 22 -49v-198q0 -25 -10 -41q-8 -16 -37 -27q23 -6 31 -20q16 -16 16 -41v-285h-45v285q0 23 -10 32q-12 12 -37 13h-30v-330h-43v678zM696 1171q45 0 45 41v199q0 39 -41 39h-36v-279h32zM848 1485h43v-678h-43v678z M1038 1135h80v-310l-8 -6q-10 -8 -31 -10q-18 -6 -45 -6q-37 0 -61 20q-23 18 -23 54v534q0 35 23 57q20 18 61 19q43 0 62 -19q23 -23 22 -57v-111h-41v107q0 18 -14 33q-8 14 -29 14q-16 0 -28 -14q-12 -12 -13 -33v-533q0 -16 13 -28q10 -8 28 -8q16 0 25 2q4 2 9 2t9 4 v256h-39v33zM1178 1485h45v-678h-45v678zM1282 1485h61l62 -436q4 -35 10 -75t15 -87q-2 29 -2.5 53.5t-2.5 46.5q-2 23 -2 38v28v432h43v-678h-61l-66 430q-2 12 -3 30.5t-5 41.5q-4 25 -6 49t-6 51v-51q2 -12 2 -22.5v-20.5q2 -10 2 -18.5v-18.5v-21v-450h-41v678z M1649 1004h-86q-2 -25 -4.5 -48.5t-6.5 -50.5q-4 -25 -6 -49.5t-2 -48.5h-39l74 678h57l78 -678h-43zM1647 1036q-4 29 -6.5 55.5t-6.5 53.5q-4 29 -6 54.5t-4 53.5q-2 8 -2 21q0 6 -4 18q0 18 -4 35q0 10 -1 16.5t-1 14.5q-2 10 -2 33q-2 8 -2 16t-2 18q0 -8 -1 -16t-1 -18 q-2 -10 -2 -18.5t-3 -16.5q-2 -14 -2 -26.5t-2 -24.5t-2 -24.5t-2 -27.5q-4 -27 -6 -53t-6 -55t-6 -55.5t-6 -53.5h80zM1753 1485h41v-643h98v-35h-139v678zM0 604q0 39 23 58q25 20 61 20q20 0 33.5 -5t23.5 -15q18 -16 19 -56v-114h-41v108q0 10 -2 17.5t-6 15.5 q-6 14 -27 14q-18 0 -29 -10q-10 -8 -10 -29v-540q0 -18 10 -27q10 -10 29 -10q20 0 27 10q8 16 8 37v117h41v-123q0 -37 -19 -56q-10 -10 -23.5 -15t-33.5 -5q-37 0 -61 20q-23 23 -23 56v532zM375 72q0 -35 -23 -56q-25 -20 -63 -20q-37 0 -62 20q-20 20 -20 56v532 q0 39 20 58q25 20 62 20q39 0 63 -20q23 -16 23 -58v-532zM332 604q0 20 -13 31q-10 12 -30 12q-16 0 -29 -12q-10 -10 -10 -31v-532q0 -16 10 -31q14 -10 29 -10q20 0 30 10q12 12 13 31v532zM432 678h62l63 -436q4 -35 9 -75t14 -87q-2 29 -2 53.5v46.5q-2 23 -2.5 39.5 t-0.5 26.5v432h41v-676h-61l-63 428q-4 12 -5.5 30.5t-5.5 43.5q-4 23 -6 47t-6 53q0 -14 1 -27.5t1 -23.5q0 -12 1 -23.5t1 -21.5t1 -18.5t1 -16.5v-20v-451h-43v676zM659 604q0 39 23 58q25 20 59 20q23 0 36.5 -5t23.5 -15q18 -16 18 -56v-114h-41v108q0 10 -2 17.5 t-6 15.5q-6 14 -29 14q-14 0 -28 -10q-8 -8 -8 -29v-540q0 -18 8 -27q14 -10 28 -10q23 0 29 10q8 16 8 37v117h41v-123q0 -37 -18 -56q-10 -10 -23.5 -15t-36.5 -5q-35 0 -59 20q-23 23 -23 56v532zM866 678h131v-33h-88v-280h84v-33h-84v-297h97v-33h-140v676zM1038 678 h86q80 0 80 -68v-219q0 -25 -20 -49q-16 -16 -60 -16h-43v-324h-43v676zM1118 358q20 0 31 9q10 10 10 28v209q0 23 -10 29q-12 12 -31 12h-37v-287h37zM1274 645h-66v33h176v-33h-67v-643h-43v643zM1509 678h84q33 0 56 -19q25 -16 24 -57v-194q0 -23 -14 -37 q-8 -14 -31 -21q23 -6 35 -20q12 -10 12 -43v-213q0 -37 -18 -56q-18 -16 -55 -16h-93v676zM1589 365q23 0 33 14q6 14 6 29v196q0 23 -8 31q-10 10 -33 10h-35v-280h37zM1552 332v-297h35q27 0 37 8q10 14 10 29v213q0 47 -45 47h-37zM1855 678h46l-80 -410v-266h-41v266 q-4 23 -8.5 47.5t-10.5 51.5q-4 27 -10 53t-12 51q-4 29 -9.5 54.5t-9.5 54.5q-12 51 -18 98h43l57 -348z" />
<glyph unicode="&#xa6;" horiz-adv-x="1169" d="M61 1485h70l39 -408q4 -31 6 -47q0 -10 1 -21.5t3 -21.5v-23.5t2 -23.5q0 -10 1 -23.5t1 -29.5q2 25 4 49.5t5 50.5q2 25 3 47.5t5 42.5q4 49 9 99.5t13 101.5q4 53 10.5 104.5t10.5 102.5h65v-678h-41v420v30v35v43q0 10 1 24.5t1 31.5q-2 -10 -3 -18.5t-3 -18.5 q0 -10 -1 -18.5t-1 -16.5q-2 -18 -3 -35.5t-3 -34.5q-4 -16 -5 -31.5t-3 -29.5q-6 -92 -19 -191q-4 -51 -8 -98t-8 -92h-53l-39 377q0 12 -2 20q0 6 -1 12.5t-1 12.5q0 12 -1 23.5t-3 21.5q-2 8 -2 16t-2 19q-2 10 -2.5 17t-2.5 17t-2 20.5t-2 20.5q0 -12 1 -24t1 -25v-21 t2 -22v-37v-28v-420h-43v678zM498 1004h-86q-4 -25 -5 -48.5t-6 -50.5q-4 -25 -6 -49.5t-4 -48.5h-39l74 678h59l78 -678h-43zM496 1036q-4 29 -6.5 55.5t-6.5 53.5q-4 29 -6 54.5t-6 53.5q0 12 -2 21v9t-2 9q-2 10 -2 19.5t-2 15.5q-2 10 -2 16.5t-2 14.5q0 8 -1 15t-3 18 v34q-2 -8 -2 -16t-2 -18q0 -10 -1 -18.5t-1 -16.5q-2 -14 -3.5 -26.5t-1.5 -24.5q-2 -12 -3 -24.5t-3 -27.5q-4 -53 -12 -108q-4 -29 -5 -55.5t-5 -53.5h80zM629 1450h-68v35h176v-35h-67v-643h-41v643zM786 1450h-67v35h174v-35h-66v-643h-41v643zM915 1485h134v-35h-93 v-279h86v-34h-86v-295h97v-35h-138v678zM145 197h-88q-2 -23 -4 -47.5t-4 -49.5q-6 -53 -12 -98h-37l74 676h59l76 -676h-43zM141 229q-4 29 -6 55.5t-4 55.5q-4 27 -7 53.5t-7 55.5v18q0 4 -1 9t-1 11q-2 10 -3 18.5t-1 16.5q-4 20 -5 31q-2 8 -2 14t-2 17q-2 8 -2 16v18 q0 -8 -1 -16t-1 -18t-1 -17.5t-3 -17.5q0 -12 -1 -25.5t-3 -25.5q0 -12 -1 -24.5t-3 -24.5q-4 -57 -12 -109q-4 -29 -6 -56.5t-7 -54.5h80zM246 678h86q33 0 59 -16q20 -18 21 -50v-198q0 -20 -9 -41q-8 -18 -36 -27q10 -4 18 -7t14 -13q12 -12 13 -41v-283h-43v283 q0 18 -11 32q-14 14 -36 15h-31v-330h-45v676zM324 365q45 0 45 43v196q0 41 -43 41h-35v-280h33zM502 645h-68v33h176v-33h-67v-643h-41v643zM633 678h43v-676h-43v676zM760 68q0 -16 8 -27q10 -10 33 -10t30 8q10 8 11 29v116v24.5t-2 20.5q-4 10 -8.5 20.5t-8.5 20.5 l-78 148q-14 23 -16 47q-8 25 -8 45v98q0 35 22 54q25 20 58 20q39 0 59 -16q20 -14 21 -50v-122h-39v118q0 35 -37 35q-20 0 -29 -12q-10 -10 -10 -25v-104q0 -25 14 -64q10 -16 19.5 -35.5t19.5 -35.5q10 -20 19.5 -38t19.5 -38q12 -20 19 -47q10 -27 10 -53v-127 q0 -31 -21 -52q-16 -20 -63 -20q-43 0 -64 20q-18 18 -18 54v123h39v-125zM958 645h-67v33h176v-33h-66v-643h-43v643z" />
<glyph unicode="&#xa7;" horiz-adv-x="1509" d="M188 874q0 -12 11 -26q6 -10 32 -10q18 0 31 6q10 14 10 30v117q0 23 -6 45q-4 18 -14 41l-78 148q-6 10 -9 22.5t-7 24.5t-5 23.5t-1 21.5v98q0 33 20 53q20 18 59 19q43 0 60 -17q20 -16 20 -47v-123h-41v119q0 35 -37 35q-16 0 -28 -12q-8 -8 -8 -25v-104 q0 -33 14 -64q10 -16 18.5 -35.5t18.5 -35.5l19 -38t20 -38q6 -10 11 -22.5t9 -24.5q4 -14 6 -26.5t2 -27.5v-127q0 -33 -20 -51q-16 -20 -64 -20q-39 0 -63 20q-16 16 -16 54v122h36v-125zM360 1485h84q80 0 80 -68v-219q0 -29 -18 -49q-23 -18 -62 -19h-41v-323h-43v678z M440 1165q20 0 31 9q10 10 10 26v211q0 23 -10 29q-10 10 -31 10h-37v-285h37zM569 1485h131v-35h-90v-279h86v-34h-86v-295h99v-35h-140v678zM727 1411q0 37 21 57q25 18 63 19q35 0 57 -19q18 -23 19 -57v-113h-43v109q0 16 -6 33q-10 14 -27 14q-23 0 -31 -12 q-10 -6 -10 -27v-541q0 -14 10 -28q8 -8 31 -8q16 0 27 10q6 12 6 35v118h43v-124q0 -35 -19 -54q-25 -20 -57 -20q-23 0 -37 5t-26 15q-20 18 -21 54v534zM934 1485h43v-678h-43v678zM1163 1004h-86q-4 -25 -6 -48.5t-4 -50.5l-12 -98h-37l74 678h59l78 -678h-45z M1161 1036q-8 55 -12 109q-4 29 -6 54.5t-6 53.5q-2 8 -2 21v9t-2 9q-2 10 -2.5 19.5t-2.5 15.5q-2 10 -2 16.5t-2 14.5q0 8 -1 15t-3 18q0 8 -1 16t-1 18v-16t-2 -18q0 -10 -1 -18.5t-1 -16.5q-2 -14 -3 -26.5t-1 -24.5q-2 -12 -3 -24.5t-3 -27.5q-4 -53 -12 -108 q-4 -29 -5.5 -55.5t-5.5 -53.5h80zM1264 1485h45v-643h98v-35h-143v678zM0 678h68l38 -408q2 -12 3.5 -24.5t3.5 -22.5t2 -21.5t2 -21.5t2 -22.5v-24.5q0 -10 1 -23.5t3 -27.5q2 45 6 98q4 25 5 48.5t3 41.5q6 49 11.5 99.5t11.5 103.5q4 53 10 104.5t12 100.5h66v-676h-43 v418v33v34v41q2 10 2 24.5v31.5q-2 -10 -3 -18.5t-1 -18.5q-4 -20 -4 -33q-2 -18 -3 -35.5t-3 -36.5q-2 -16 -4.5 -31.5t-4.5 -29.5q-6 -90 -18 -191q-4 -49 -8 -96t-8 -92h-52l-41 375q0 14 -2 20q0 16 -2 27q0 10 -1 21.5t-3 21.5q0 10 -1 18.5t-3 18.5q0 12 -4 33 q-2 10 -2 20t-2 21q0 -12 1 -24.5t1 -23.5v-22t2 -21v-38v-29v-418h-41v676zM434 197h-86q-4 -23 -5 -47.5t-5 -49.5q-4 -27 -6 -51t-4 -47h-39l76 676h57l78 -676h-43zM432 229l-12 111q-4 27 -6 53.5t-4 55.5q-2 6 -2 18q-2 4 -2 9t-3 11q0 14 -4 35q-2 8 -2 15.5t-2 15.5 q0 8 -1 14t-1 17q0 8 -1 16t-1 18q-2 -8 -2 -16t-2 -18v-17.5t-2 -17.5q-2 -12 -2 -25.5t-2 -25.5t-3 -24.5t-1 -24.5q-4 -29 -6 -55.5t-6 -53.5q-6 -59 -13 -111h80zM539 678h41v-676h-41v676zM573 358l93 320h41l-93 -320q12 -43 24.5 -87t27.5 -91q12 -47 24 -91t25 -87 h-43zM729 678h131v-33h-90v-280h86v-33h-86v-297h98v-33h-139v676zM877 360h94v-28h-94v28zM1174 678v-606q0 -35 -23 -56q-10 -10 -24.5 -15t-36.5 -5q-39 0 -64 20q-20 20 -20 56v606h43v-606q0 -16 10 -31q14 -10 31 -10q18 0 28 10q12 12 12 31v606h44zM1231 678h86 q78 0 78 -68v-219q0 -31 -19 -49q-18 -16 -59 -16h-43v-324h-43v676zM1311 358q20 0 30 9q10 14 11 28v209q0 23 -11 29q-12 12 -30 12h-37v-287h37z" />
<glyph unicode="&#xa8;" horiz-adv-x="3500" d="M0 678h43v-676h-43v676zM102 678h62l63 -436q4 -35 10.5 -75t12.5 -87q-2 29 -3 53.5t-1 46.5v66v432h41v-676h-62l-63 428q-2 12 -4 30.5t-6 43.5q-2 23 -5.5 47t-7.5 53q0 -14 1 -27.5t1 -23.5q2 -12 2 -23.5v-21.5q2 -10 2 -18.5v-16.5v-20v-451h-43v676zM575 197h-86 q-2 -23 -4 -47.5t-6 -49.5q-4 -27 -6 -51t-4 -47h-39l74 676h59l78 -676h-43zM571 229q-4 29 -5 55.5t-5 55.5q-4 27 -6 53.5t-4 55.5q-2 4 -3 8t-1 10q0 12 -2 20q-2 10 -2 18.5t-2 16.5t-2 15.5t-2 15.5v14t-2 17q0 8 -1.5 16t-1.5 18q-2 -8 -2 -16t-2 -18q0 -10 -1 -17.5 t-1 -17.5q-2 -12 -3 -25.5t-1 -25.5q-2 -12 -2 -24.5t-2 -24.5q-4 -29 -7 -55.5t-7 -53.5q-2 -29 -4 -56.5t-6 -54.5h77zM702 68q0 -12 11 -27q6 -10 32 -10q20 0 31 8q10 10 10 29v116q0 27 -6 45q-4 23 -14 41l-78 148l-9 22.5t-9 24.5q-4 14 -4 24.5v20.5v98q0 35 20 54 q25 20 59 20q37 0 60 -16q18 -16 18 -50v-122h-39v118q0 35 -36 35q-16 0 -29 -12q-8 -8 -8 -25v-104q0 -33 14 -64q10 -16 18.5 -35.5t18.5 -35.5q10 -20 19.5 -38t19.5 -38q8 -10 12 -22.5t8 -24.5t6 -25.5t2 -27.5v-127q0 -33 -18 -52q-10 -10 -25.5 -15t-40.5 -5 q-39 0 -63 20q-16 16 -16 54v123h36v-125zM899 68q0 -16 8 -27q6 -10 33 -10q23 0 31 8q12 8 12 29v116q0 27 -6 45q-4 10 -6 20.5t-8 20.5l-78 148q-12 20 -19 47q-4 14 -6 24.5t-2 20.5v98q0 35 23 54q25 20 59 20q39 0 59 -16q20 -14 21 -50v-122h-39v118q0 35 -39 35 q-18 0 -27 -12q-8 -6 -8 -25v-104q0 -14 2 -30.5t13 -33.5q10 -16 18 -35.5t18 -35.5q10 -20 19.5 -38t19.5 -38q4 -10 10.5 -22.5t10.5 -24.5q6 -25 6 -53v-127q0 -35 -18 -52q-20 -20 -64 -20q-43 0 -63 20t-21 54v123h41v-125zM1237 72q0 -31 -20 -56q-25 -20 -64 -20 q-37 0 -61 20q-23 23 -23 56v532q0 39 23 58q25 20 61 20q39 0 64 -20q20 -20 20 -58v-532zM1196 604q0 23 -14 31q-10 12 -29 12q-16 0 -29 -12q-12 -10 -12 -31v-532q0 -18 12 -31q14 -10 29 -10q18 0 29 10q14 12 14 31v532zM1280 604q0 39 23 58q25 20 61 20 q20 0 33.5 -5t25.5 -15q16 -16 17 -56v-114h-41v108q0 10 -2 17.5t-6 15.5q-6 14 -27 14q-18 0 -29 -10q-10 -8 -10 -29v-540q0 -18 10 -27q10 -10 29 -10q20 0 27 10q8 16 8 37v117h41v-123q0 -37 -17 -56q-12 -10 -25.5 -15t-33.5 -5q-37 0 -61 20q-23 23 -23 56v532z M1487 678h45v-676h-45v676zM1716 197h-84q-4 -23 -6 -47.5t-6 -49.5q-4 -27 -5 -51t-5 -47h-39l76 676h57l78 -676h-43zM1714 229q-2 29 -5 55.5t-7 55.5q-4 27 -5 53.5t-5 55.5q-2 4 -2 8t-2 10q0 12 -2 20q-2 10 -2.5 18.5t-2.5 16.5q0 20 -2 31q0 8 -1 14t-3 17 q0 8 -1 16t-1 18q-2 -8 -2 -16t-2 -18v-17.5t-2 -17.5q-2 -12 -2 -25.5v-25.5l-6 -49q-4 -29 -6 -55.5t-6 -53.5q-6 -59 -13 -111h80zM1847 645h-65v33h174v-33h-66v-643h-43v643zM1978 678h43v-676h-43v676zM2249 72q0 -35 -21 -56q-25 -20 -63 -20q-37 0 -62 20 q-20 20 -20 56v532q0 39 20 58q25 20 62 20q39 0 63 -20q20 -18 21 -58v-532zM2208 604q0 20 -13 31q-12 12 -30 12q-16 0 -29 -12q-12 -12 -12 -31v-532q0 -10 4 -17.5t8 -13.5q14 -10 29 -10q16 0 30 10q12 12 13 31v532zM2308 678h62l61 -436q4 -35 10 -75t15 -87 q-2 29 -2 53.5t-3 46.5q0 23 -1 39.5t-1 26.5v432h43v-676h-61l-66 428q-2 12 -4 30.5t-4 43.5q-4 23 -6 47t-6 53v-27.5t2 -23.5v-23.5t2 -21.5v-35q2 -8 2 -13v-7v-451h-43v676zM2793 428q0 16 -2 27v11t-2 11q-2 10 -2 19.5t-2 17.5t-2 16.5t-2 14.5q0 6 -1 14t-1 16 q-2 10 -2 37q0 -10 -1 -21t-1 -22q0 -10 -1 -20t-1 -21q-2 -12 -2 -24t-2 -27q-2 -12 -2 -24.5t-2 -26.5l-37 -424h-53l-47 676h36l29 -414q0 -4 1 -10t1 -12q0 -14 2 -23v-41q0 -10 1 -18t1 -19q0 -8 1 -17t1 -20q2 -10 2 -20t2 -21q0 12 1 24.5t1 25.5q2 12 2.5 24.5 t0.5 24.5q2 12 2 25.5v25.5t1 24.5t1 26.5l36 414h60l33 -414q4 -14 4 -26.5t2 -24.5q2 -10 2 -20.5t2 -20.5t2 -21.5t2 -21.5v-23.5t2 -27.5v12t2 16v27q0 16 1 32.5t3 33.5q0 16 1 32.5t1 32.5l31 414h39l-51 -676h-54zM2970 678h43v-676h-43v676zM3099 645h-66v33h176 v-33h-67v-643h-43v643zM3228 678h45v-313h82v313h43v-676h-43v330h-82v-330h-45v676z" />
<glyph unicode="&#xa9;" horiz-adv-x="704" d="M430 840q-20 94 -123 94q-74 0 -108.5 -50t-34.5 -106q0 -66 36 -113t101 -47q57 0 88 27t41 74h37q-10 -61 -53 -98t-113 -37q-76 0 -126 48t-50 146q0 90 52 140.5t130 50.5q63 0 106.5 -32t53.5 -97h-37zM565 776q0 55 -20.5 103.5t-56 85t-84 57t-103.5 20.5 q-53 0 -101 -20.5t-84 -57t-57.5 -85t-21.5 -103.5t21.5 -103t57.5 -85t84 -57.5t101 -20.5q55 0 103.5 20.5t84 57.5t56 85t20.5 103zM0 776q0 61 23.5 116.5t64.5 96.5t96.5 64.5t116.5 23.5t116.5 -23.5t96.5 -64.5t64.5 -96t23.5 -117q0 -61 -23.5 -116.5t-64.5 -96.5 t-96.5 -64.5t-116.5 -23.5t-116.5 23.5t-96.5 64.5t-64.5 96.5t-23.5 116.5z" />
<glyph unicode="&#xaa;" horiz-adv-x="2127" d="M645 1485h68l39 -406q0 -14 1 -25.5t3 -21.5t3 -22.5t3 -22.5q0 -10 1 -21.5t1 -21.5q2 -14 2 -27.5t2 -29.5q0 47 6 100q2 27 4 49.5t4 42.5q4 47 10.5 97.5t10.5 103.5q6 55 12 106.5t10 98.5h66v-676h-41v418v30v35v22.5t2 22.5v54q-4 -20 -4 -35q-2 -10 -3 -17.5 t-1 -15.5q-6 -41 -6 -72q-2 -33 -7 -63q-4 -45 -9 -92t-11 -97q-4 -49 -9 -98t-9 -92h-52l-39 377v9t-2 9v27q-4 25 -6 43q-2 10 -2 18t-2 19q-2 10 -2 18t-2 17q-2 10 -2 20v20v-47v-23t2 -24v-37v-28v-418h-41v676zM954 1485h131v-33h-90v-281h84v-32h-84v-297h97v-33 h-138v676zM1124 1485h84q41 0 64 -17q20 -14 20 -57v-528q0 -43 -20 -58q-23 -16 -64 -16h-84v676zM1204 842q45 0 45 37v536q0 37 -45 37h-35v-610h35zM1352 1485h43v-676h-43v676zM1442 1413q0 37 20 57q20 18 62 19q35 0 57 -19q18 -16 18 -55v-115h-40v109 q0 10 -2.5 17.5t-6.5 15.5q-6 14 -26 14t-29 -12q-12 -6 -12 -27v-543q0 -18 12 -26q8 -10 29 -10q20 0 26 12q8 12 9 33v118h40v-122q0 -39 -18 -56q-25 -20 -57 -20q-23 0 -37 5t-25 15q-20 18 -20 56v534zM1769 1004h-86q-2 -23 -3 -47.5t-5 -51.5q-4 -25 -6 -49.5 t-4 -46.5h-39l74 676h57l78 -676h-43zM1767 1038q-2 51 -12 109q-4 27 -5 53.5t-5 54.5q-2 6 -2 19q0 10 -4 18q0 12 -1 21.5t-3 17.5q0 8 -1 15.5t-1 15.5q0 20 -2 29q-2 10 -2 18t-3 18q0 -8 -1 -16t-1 -18q-2 -10 -2 -18.5t-2 -18.5q0 -12 -1 -24.5t-3 -24.5v-26.5 t-2 -25.5q-4 -27 -7 -53t-7 -55q-2 -29 -5 -55.5t-7 -53.5h79zM1872 1485h45v-643h96v-33h-141v676zM0 608q0 31 20 56q18 16 62 16q41 0 57 -16q20 -25 21 -56v-114h-45v108q0 12 -4 33q-8 12 -29 12q-20 0 -29 -8q-10 -10 -10 -29v-540q0 -20 10 -31q12 -8 29 -8 q18 0 29 10q2 6 3 14t1 21v119h45v-123q0 -35 -21 -56q-20 -20 -57 -20t-62 20q-20 20 -20 56v536zM371 72q0 -37 -23 -56q-20 -20 -61 -20q-37 0 -62 20q-23 18 -22 56v536q0 33 22 56q10 10 26.5 13t35.5 3q45 0 61 -16q23 -23 23 -56v-536zM330 606q0 18 -13 31 q-10 10 -30 10t-29 -10q-12 -12 -12 -31v-534q0 -23 12 -31q10 -10 29 -10q16 0 30 10q12 8 13 31v534zM428 680h61l62 -438q4 -33 10 -74t17 -88q-4 55 -7 98q-2 23 -2 41.5v28.5v432h45v-678h-63l-64 428q-4 12 -5 30.5t-5 41.5q-6 49 -12 104q0 -14 1 -27.5t1 -25.5 t1 -22.5t1 -20.5q0 -12 1 -20.5t1 -16.5v-22v-449h-43v678zM694 68q0 -10 8 -27q10 -10 33 -10t33 8q10 10 10 31v116q0 27 -6 43q-4 10 -6 20.5t-8 22.5l-76 146q-8 10 -11 22.5t-7 24.5q-8 23 -9 45v100q0 31 23 54q18 16 57 16q20 0 34.5 -2t25.5 -12q20 -14 20 -50v-122 h-39v118q0 35 -37 35q-18 0 -28 -10q-10 -14 -11 -25v-104q0 -31 17 -64l37 -73q10 -18 19 -37t20 -37q10 -23 20 -47q4 -12 5 -25.5t1 -29.5v-127q0 -35 -16 -52q-25 -20 -66 -20q-43 0 -63 20q-18 23 -19 56v121h39v-125zM1032 680v-608q0 -35 -20 -56q-25 -20 -64 -20 q-37 0 -61 20q-23 16 -23 56v608h43v-608q0 -23 13 -31q10 -10 28 -10q20 0 31 10q10 8 10 31v608h43zM1090 680h43v-645h96v-33h-139v678zM1292 645h-67v35h174v-35h-66v-643h-41v643zM1546 199h-86q-4 -27 -6 -51.5t-6 -49.5q-2 -25 -4 -49t-6 -47h-37l74 678h57l78 -678 h-45zM1542 231q-4 29 -6 55.5t-6 53.5q-2 27 -5 52.5t-7 53.5q0 6 -1 11.5t-1 9.5q0 12 -3 18q0 10 -1 19.5t-1 17.5q-2 8 -2 15.5t-2 15.5t-2 16.5t-2 14.5q0 10 -1 18t-1 19q-4 -20 -4 -35q0 -8 -1 -17.5t-1 -19.5q0 -14 -1 -26.5t-1 -24.5q-2 -12 -3 -24.5t-3 -27.5 q-4 -27 -6 -52t-6 -54t-6.5 -55.5t-6.5 -53.5h80zM1649 680h59l61 -438q6 -33 11.5 -74t15.5 -88q-4 55 -6 98q-2 23 -2 41.5v28.5v432h45v-678h-64l-63 428q-4 12 -5 30.5t-3 41.5q-4 25 -7 50.5t-8 53.5q0 -14 1.5 -27.5t1.5 -25.5t1 -22.5t1 -20.5q0 -12 1 -20.5t1 -16.5 v-22v-449h-41v678zM1917 645h-66v35h174v-35h-67v-643h-41v643z" />
<glyph unicode="&#xab;" horiz-adv-x="1480" d="M10 1485h68l41 -406q2 -14 3 -25.5t1 -21.5q2 -10 3 -22.5t1 -22.5t1 -21.5t3 -21.5q0 -14 1 -27.5t1 -29.5q2 23 4 48.5t4 51.5q2 27 3 49.5t6 42.5q4 47 9 97.5t11 103.5q6 55 11 106.5t12 98.5h65v-676h-43v418v30q0 10 1 17.5t1 17.5v45v54q-2 -8 -2 -16.5t-2 -18.5 t-2 -17.5v-15.5q-2 -20 -4 -37.5t-4 -34.5q-2 -33 -6 -63q-4 -45 -9.5 -92t-9.5 -97q-4 -49 -9 -98t-9 -92h-51l-39 377v9t-2 9q0 16 -2 27q-4 25 -7 43v18t-2 19q0 14 -4 35q0 10 -1 20t-3 20q2 -12 2 -24v-23q0 -12 1 -23t1 -24v-37v-28v-418h-43v676zM319 1485h132v-33 h-89v-281h84v-32h-84v-297h97v-33h-140v676zM492 1485h81q41 0 64 -17q23 -16 22 -57v-528q0 -41 -22 -58q-23 -16 -64 -16h-81v676zM569 842q47 0 47 37v536q0 37 -47 37h-34v-610h34zM719 1485h43v-676h-43v676zM807 1413q0 35 22 57q20 18 60 19q37 0 59 -19 q18 -18 19 -55v-115h-43v109q0 16 -6 33q-8 14 -29 14q-16 0 -29 -12q-10 -6 -10 -27v-543q0 -16 10 -26t29 -10q18 0 29 12q6 8 6 33v118h43v-122q0 -37 -19 -56q-25 -20 -59 -20q-35 0 -60 20q-23 18 -22 56v534zM1139 1004h-86q-6 -47 -13 -99q-2 -25 -4 -49.5t-6 -46.5 h-39l76 676h57l78 -676h-45zM1135 1038q-4 29 -6.5 54.5t-4.5 54.5q-4 27 -7 53.5t-7 54.5q0 4 -1 9.5t-1 9.5v18q-2 12 -3 21.5t-1 17.5q-4 20 -4 31q-2 8 -2 15t-2 14q-2 10 -2 18t-2 18q0 -8 -1 -16t-1 -18v-18.5t-3 -18.5q0 -12 -1 -24.5t-3 -24.5q0 -14 -1 -26.5 t-3 -25.5q-4 -27 -6 -53t-6 -55t-6 -55.5t-4 -53.5h78zM1239 1485h43v-643h96v-33h-139v676zM143 199h-84q-2 -27 -4 -51.5t-6 -49.5t-5 -49t-5 -47h-39l76 678h55l80 -678h-45zM143 231q-4 29 -6 55.5t-6 53.5t-6 52.5t-6 53.5q0 6 -1 11.5t-1 9.5t-1 9t-1 9q-2 10 -3 19.5 t-1 17.5t-1 15.5t-1 15.5q-2 8 -2.5 16.5t-2.5 14.5q-2 10 -2 18t-2 19q0 -8 -1 -17.5t-1 -17.5t-1 -17.5t-3 -19.5v-26.5t-2 -24.5q0 -12 -1 -24.5t-3 -27.5q-4 -27 -6 -52t-6 -54t-6 -55.5t-7 -53.5h80zM246 680h84q23 0 38 -5t25 -13q20 -18 21 -58v-530q0 -41 -21 -56 q-18 -16 -63 -16h-84v678zM326 35q47 0 47 37v536q0 37 -47 37h-35v-610h35zM438 680h43l45 -447l6 -61v-30.5t3 -30.5q2 -14 3 -28.5t3 -27.5q2 10 2 21.5t2 21.5q0 10 1 20.5t3 20.5v49q0 10 1 22.5t3 22.5l45 447h41l-72 -678h-55zM666 680h43v-678h-43v678zM793 68 q0 -16 8 -27q6 -10 33 -10q20 0 30 8q10 10 10 31v116q0 23 -4 43q-2 14 -16 43l-76 146q-12 20 -18 47q-4 12 -6 23.5t-2 21.5v100q0 31 22 54q18 16 60 16q20 0 34.5 -2t24.5 -12q18 -16 18 -50v-122h-39v118q0 35 -34 35q-20 0 -31 -10q-4 -6 -6 -11t-2 -14v-104 q0 -35 14 -64q10 -18 19.5 -36.5t19.5 -36.5l37 -74q6 -12 11 -23.5t9 -23.5q8 -23 9 -55v-127q0 -33 -19 -52q-20 -20 -63 -20t-64 20q-20 20 -20 56v121h41v-125zM1128 72q0 -18 -4 -31.5t-16 -24.5q-25 -20 -61 -20q-37 0 -62 20q-23 18 -22 56v536q0 33 22 56 q18 16 62 16q43 0 61 -16q12 -10 16 -24.5t4 -31.5v-536zM1087 606q0 18 -12 31q-8 10 -28 10q-23 0 -31 -10q-10 -10 -10 -31v-534q0 -23 10 -31q10 -10 31 -10q18 0 28 10q12 8 12 31v534zM1188 680h86q33 0 55 -16q23 -18 23 -52v-198q0 -12 -2 -21.5t-7 -19.5 q-10 -18 -36 -25q18 -6 32 -20q4 -8 8.5 -17.5t4.5 -23.5v-285h-43v285q0 18 -13 30q-6 14 -36 15h-31v-330h-41v678zM1262 365q47 0 47 43v198q0 39 -41 39h-39v-280h33z" />
<glyph unicode="&#xad;" horiz-adv-x="227" d="M12 547h201v-66h-201v66z" />
<glyph unicode="&#xae;" horiz-adv-x="688" d="M182 963h135q117 0 117 -99q0 -43 -27.5 -65.5t-64.5 -28.5q25 -39 51.5 -79t50.5 -79h-36l-103 158h-86v-158h-37v351zM305 803q41 0 66.5 13t25.5 48t-24.5 50.5t-59.5 15.5h-94v-127h86zM293 528q53 0 99 20.5t81 55.5t55.5 82t20.5 100t-20.5 100.5t-55.5 83.5 t-81 56.5t-99 20.5t-99.5 -20.5t-81 -56.5t-55 -83t-20.5 -101q0 -53 20.5 -100t55 -82t81 -55.5t99.5 -20.5zM0 786q0 61 22.5 114.5t62.5 93.5t93 62.5t115 22.5q61 0 114.5 -22.5t93.5 -62.5t62.5 -93t22.5 -115q0 -61 -22.5 -114.5t-62.5 -93t-93.5 -62t-114.5 -22.5 t-114.5 22.5t-93.5 62t-62.5 93t-22.5 114.5z" />
<glyph unicode="&#xb1;" horiz-adv-x="2129" d="M557 1485h66l41 -406q2 -14 2 -25.5t2 -21.5t3 -22.5t1 -22.5q2 -10 3 -21.5t1 -21.5q2 -14 2 -27.5t2 -29.5q2 23 2 48.5t2 51.5q4 27 5 49.5t5 42.5q4 47 10.5 97.5t12.5 103.5q4 55 10 106.5t10 98.5h66v-676h-41v418v30v35v45q2 12 2 25.5v28.5q-4 -20 -4 -35 q-2 -10 -3 -17.5t-1 -15.5q-6 -41 -6 -72q-2 -18 -4.5 -33.5t-4.5 -29.5q-4 -45 -8 -92t-10 -97q-4 -49 -9 -98t-9 -92h-52l-39 377v18q0 6 -1 12.5t-3 14.5q-2 12 -2 22.5t-2 20.5t-2 18t-2 19q-2 10 -2 18t-2 17q0 10 -1 20t-1 20v-24t2 -23v-47v-37v-28v-418h-41v676z M868 1485h41v-676h-41v676zM969 1485h43v-643h96v-33h-139v676zM1143 1485h45v-676h-45v676zM1274 1452h-68v33h176v-33h-65v-643h-43v643zM1528 1004h-84q-6 -47 -12 -99q-4 -25 -5.5 -49.5t-3.5 -46.5h-39l74 676h58l77 -676h-43zM1526 1038q-4 29 -6 54.5t-7 54.5 q-4 53 -12 108q0 4 -1 9.5t-1 9.5q0 14 -2 18q-2 12 -2 21.5t-2 17.5q0 20 -2 31q0 12 -4 29q0 10 -1 18t-1 18q-2 -8 -2 -16t-2 -18q0 -10 -1 -18.5t-1 -18.5q-2 -12 -2 -24.5v-24.5q-2 -14 -3 -26.5t-4 -25.5q-4 -27 -6 -53t-6 -55t-6 -55.5t-6 -53.5h80zM1630 1485h84 q39 0 60 -15q23 -18 22 -49v-200q0 -25 -10 -41q-8 -18 -37 -25q18 -2 33 -20q14 -18 14 -41v-285h-45v285q0 16 -10 30q-12 14 -37 15h-31v-330h-43v676zM1706 1171q45 0 45 43v199q0 39 -41 39h-37v-281h33zM1980 1485h43l-77 -410v-266h-43v266q-4 23 -9.5 47.5 t-11.5 51.5q-4 27 -10 53t-10 53q-6 29 -10.5 55.5t-10.5 53.5t-10 50l-8 46h43l59 -348zM0 608q0 35 23 56q10 10 25 13t34 3q37 0 59 -16q16 -18 17 -56v-114h-41v108q0 12 -8 33q-4 12 -27 12q-20 0 -29 -8q-12 -12 -12 -29v-540q0 -18 12 -31q12 -8 29 -8q20 0 27 10 q4 6 6 14t2 21v119h41v-123q0 -39 -17 -56q-12 -10 -25.5 -15t-33.5 -5q-39 0 -59 20q-23 16 -23 56v536zM371 72q0 -35 -21 -56q-25 -20 -61 -20q-23 0 -37 5t-27 15q-20 18 -20 56v536q0 35 20 56q23 16 64 16q18 0 34.5 -3t26.5 -13q20 -25 21 -56v-536zM328 606 q0 20 -11 31q-8 10 -28 10q-23 0 -31 -10q-12 -12 -12 -31v-534q0 -23 12 -31q10 -10 31 -10q18 0 28 10q10 8 11 31v534zM428 680h61l64 -438q4 -33 9 -74t16 -88q-4 55 -7 98q0 23 -1 41.5t-1 28.5v432h45v-678h-63l-64 428q-2 12 -4 30.5t-4 41.5q-4 25 -7 50.5t-7 53.5 q0 -14 1 -27.5t1 -25.5q2 -12 2 -22.5v-20.5q2 -12 2 -20.5v-16.5v-22v-449h-43v678zM696 68q0 -14 6 -27q10 -10 33 -10q25 0 31 8q12 8 12 31v116q0 27 -6 43q-4 20 -14 43l-76 146q-6 10 -11 22.5t-7 24.5q-4 12 -6.5 23.5t-2.5 21.5v100q0 31 23 54q18 16 57 16 q23 0 37 -2t25 -12q18 -16 18 -50v-122h-39v118q0 35 -37 35q-20 0 -28 -10q-10 -14 -11 -25v-104q0 -31 17 -64l37 -73q10 -18 19 -37t20 -37q10 -23 20 -47q4 -12 6 -25.5t2 -29.5v-127q0 -33 -20 -52q-20 -20 -62 -20q-43 0 -63 20t-21 56v121h41v-125zM1034 680v-608 q0 -37 -22 -56q-25 -20 -62 -20q-39 0 -63 20q-20 18 -21 56v608h41v-608q0 -23 13 -31q10 -10 30 -10q14 0 29 10q10 8 10 31v608h45zM1090 680h43v-645h98v-33h-141v678zM1290 645h-65v35h174v-35h-66v-643h-43v643zM1544 199h-84q-4 -27 -6 -51.5t-6 -49.5t-5 -49t-3 -47 h-39l76 678h55l78 -678h-43zM1542 231q-4 29 -6 55.5t-6 53.5q-2 27 -4 52.5t-6 53.5q-2 6 -2 11.5t-2 9.5q0 12 -3 18q-2 10 -2 19.5v17.5q-2 8 -2 15.5t-2 15.5q0 8 -1 16.5t-1 14.5q-2 10 -3 18t-1 19q-2 -8 -2 -17.5t-2 -17.5v-17.5t-2 -19.5q-2 -14 -2 -26.5v-24.5 q-2 -12 -3 -24.5t-3 -27.5q-4 -27 -6 -52t-4 -54q-4 -29 -7.5 -55.5t-7.5 -53.5h80zM1647 680h63l62 -438q4 -33 9 -74t15 -88q-4 55 -6 98q0 23 -1 41.5t-1 28.5v432h43v-678h-62l-63 428q-2 12 -4 30.5t-6 41.5q-4 49 -13 104q2 -14 2.5 -27.5t0.5 -25.5q2 -12 2 -22.5 v-20.5q2 -12 2 -20.5v-16.5v-22v-449h-43v678zM1919 645h-70v35h179v-35h-66v-643h-43v643z" />
<glyph unicode="&#xb2;" horiz-adv-x="1568" d="M0 1485h68l38 -406q4 -31 7 -47q2 -10 3 -22.5t3 -22.5v-43q2 -14 2 -27.5t2 -29.5q2 23 3 48.5t5 51.5q2 51 6 92q6 47 11.5 97.5t11.5 103.5q6 55 11 106.5t11 98.5h66v-676h-43v418v30v35v22.5t2 22.5v54q-4 -20 -4 -35q0 -10 -1 -17.5t-1 -15.5q-4 -20 -5 -37.5 t-3 -34.5q-2 -33 -7 -63q-4 -45 -9 -92t-9 -97q-4 -49 -9 -98t-9 -92h-52l-39 377v9t-2 9q0 6 -1 12.5t-1 14.5q-2 12 -3 22.5t-1 20.5q-2 10 -2 18t-2 19q-2 10 -2 18t-2 17q-2 10 -2 20t-2 20q0 -12 1 -24t1 -23v-23t2 -24v-37v-28v-418h-43v676zM311 1485h43v-676h-43 v676zM414 1485h43v-643h96v-33h-139v676zM590 1485h41v-676h-41v676zM719 1452h-66v33h174v-33h-67v-643h-41v643zM973 1004h-86q-4 -23 -6 -47.5t-4 -51.5q-4 -25 -6.5 -49.5t-4.5 -46.5h-39l76 676h58l75 -676h-41zM969 1038q-4 29 -5 54.5t-6 54.5q-4 27 -6 53.5t-6 54.5 q0 12 -2 19q0 14 -2 18q-2 12 -2 21.5t-2 17.5t-2 15.5t-2 15.5q0 8 -1 15t-1 14q-2 10 -2 18v18q-2 -8 -2 -16t-2 -18v-18.5t-2 -18.5q-2 -12 -2 -24.5t-2 -24.5q-2 -14 -3.5 -26.5t-3.5 -25.5q-2 -27 -4 -53t-6 -55t-6 -55.5t-6 -53.5h78zM1075 1485h86q35 0 56 -15 q23 -16 22 -49v-200q0 -20 -8 -41q-4 -8 -12.5 -14.5t-24.5 -10.5q14 -2 33 -20q12 -16 12 -41v-285h-43v285q0 16 -10 30q-8 14 -37 15h-33v-330h-41v676zM1151 1171q45 0 45 43v199q0 39 -41 39h-39v-281h35zM1421 1485h45l-80 -410v-266h-40v266q-10 45 -19 99 q-6 27 -11 53t-11 53q-4 29 -9.5 55.5t-11.5 53.5q-4 27 -8 50l-8 46h43l57 -348zM223 199h-86q-2 -27 -4 -51.5t-6 -49.5t-6 -49t-2 -47h-39l72 678h59l76 -678h-41zM219 231q-2 29 -4 55.5t-6 53.5t-6 52.5t-6 53.5q0 6 -1 11.5t-1 9.5q0 12 -2 18q-2 10 -2.5 19.5 t-2.5 17.5q-2 10 -2 31q0 14 -4 31q0 10 -1 18t-1 19q-2 -8 -2 -17.5t-2 -17.5q0 -8 -1 -17.5t-1 -19.5q-2 -14 -3 -26.5t-1 -24.5q-2 -12 -2 -24.5t-2 -27.5q-4 -27 -7 -52t-7 -54q-2 -29 -4.5 -55.5t-6.5 -53.5h78zM326 680h82q23 0 38 -5t25 -13q20 -18 21 -58v-530 q0 -41 -21 -56q-18 -16 -63 -16h-82v678zM406 35q45 0 45 37v536q0 37 -45 37h-37v-610h37zM516 680h43l45 -447q2 -16 3 -30.5t1 -30.5q2 -16 3 -30.5t1 -30.5q2 -14 3 -28.5t3 -27.5q2 10 3.5 21.5t1.5 21.5q2 10 2 20.5v20.5q0 12 1 23.5t1 25.5q2 10 2 22.5t2 22.5 l45 447h41l-74 -678h-53zM743 680h43v-678h-43v678zM870 68q0 -16 9 -27q6 -10 32 -10q23 0 33 8q8 12 8 31v116q0 23 -4 43q-2 14 -16 43l-76 146q-6 10 -10 22.5t-8 24.5q-6 25 -7 45v100q0 29 21 54q18 16 61 16q18 0 33 -2t25 -12q20 -16 20 -50v-122h-41v118 q0 35 -37 35q-18 0 -26 -10q-10 -10 -10 -25v-104q0 -37 16 -64q10 -18 18.5 -36.5t18.5 -36.5l37 -74q8 -12 12 -23.5t8 -23.5q10 -27 10 -55v-127q0 -31 -20 -52q-20 -20 -64 -20q-43 0 -63 20q-18 18 -19 56v121h39v-125zM1208 72q0 -37 -22 -56q-25 -20 -62 -20t-61 20 q-23 18 -23 56v536q0 33 23 56q18 16 61 16t62 -16q23 -23 22 -56v-536zM1165 606q0 18 -12 31q-8 10 -29 10q-20 0 -28 -10q-14 -12 -15 -31v-534q0 -23 15 -31q10 -10 28 -10t29 10q12 8 12 31v534zM1266 680h86q33 0 55 -16q23 -18 23 -52v-198q0 -25 -9 -41 q-8 -18 -35 -25q16 -6 31 -20q12 -16 13 -41v-285h-44v285q0 20 -10 30q-12 14 -37 15h-30v-330h-43v678zM1341 365q45 0 45 43v198q0 39 -40 39h-37v-280h32z" />
<glyph unicode="&#xb3;" horiz-adv-x="2131" d="M606 1237q-2 4 -2 11t-2 12q0 18 -2 26q-2 10 -2 19.5v17.5q-2 8 -2 15.5t-2 15.5q0 6 -1 14t-1 16q-2 8 -2 17.5t-2 19.5q0 -10 -1 -21t-1 -22q0 -10 -1 -20t-1 -21q-2 -12 -2 -25.5v-25.5t-1 -25.5t-3 -25.5l-37 -426h-56l-45 676h39l25 -414q2 -6 2 -20q0 -8 1 -13.5 t1 -9.5q0 -12 1 -22.5t1 -20.5q2 -10 2 -17t2 -18v-39v-20t2 -23q2 12 2 24.5t2 25.5v26t2 25q0 12 1 24.5t1 26.5q2 12 2 25.5t2 25.5l37 414h56l34 -414q2 -29 7 -49q0 -10 1 -20.5t3 -20.5v-22.5t2 -22.5q0 -12 1 -24.5t1 -28.5q2 10 2 30v31q2 16 3 31.5t1 32.5 q2 16 2 31.5t2 31.5l29 414h39l-50 -676h-53zM778 1485h133v-33h-92v-281h84v-32h-84v-297h99v-33h-140v676zM1075 1004h-86q-2 -23 -4 -47.5t-6 -51.5q-4 -25 -5 -49.5t-3 -46.5h-39l74 676h57l76 -676h-41zM1073 1038q-2 29 -5 54.5t-7 54.5q-4 27 -5 53.5t-5 54.5 q-2 4 -2 9.5t-2 9.5q0 14 -3 18q0 12 -1 21.5t-3 17.5q-2 10 -2 31q0 8 -1 15t-1 14q-2 10 -3 18t-1 18q-2 -8 -2 -16v-18q-2 -10 -2 -18.5t-2 -18.5q-2 -12 -2 -24.5t-2 -24.5q0 -14 -1 -26.5t-3 -25.5q-4 -27 -6 -53t-6 -55t-6.5 -55.5t-6.5 -53.5h80zM1178 1485h86 q78 0 77 -66v-219q0 -31 -18 -49t-59 -18h-43v-324h-43v676zM1257 1165q14 0 31 9q10 14 10 30v209q0 23 -10 29q-10 10 -31 10h-36v-287h36zM1552 879q0 -37 -22 -56q-20 -20 -62 -20q-37 0 -61 20q-23 18 -23 56v534q0 35 23 57q20 18 61 19q43 0 62 -19q23 -23 22 -57 v-534zM1511 1413q0 20 -12 31q-12 12 -31 12q-20 0 -28 -12q-12 -10 -13 -31v-532q0 -25 13 -33q8 -10 28 -10t31 10q12 8 12 33v532zM1610 1485h61l62 -434q4 -35 11 -76t15 -90q-4 61 -6 102q-2 23 -2 39v29v430h45v-676h-63l-64 430q-4 12 -5 29.5t-5 42.5q-4 23 -6 48 t-6 54q0 -14 1 -27.5t1 -23.5q0 -12 1 -22.5t1 -20.5q0 -12 1 -21.5t1 -17.5v-23v-448h-43v676zM1878 874q0 -12 8 -24t33 -12q23 0 33 8q10 10 10 31v116q0 25 -6 43q-4 10 -6 20.5t-8 22.5l-76 146q-14 20 -19 47q-4 12 -6 24.5t-2 22.5v98q0 35 23 53q20 18 57 19 q37 0 59 -14q20 -18 21 -52v-123h-39v121q0 35 -37 35q-20 0 -29 -12q-10 -10 -10 -25v-104q0 -31 17 -64l36 -73q10 -18 19.5 -37t19.5 -37q10 -23 21 -47q6 -29 6 -56v-127q0 -35 -18 -51q-20 -20 -64 -20q-43 0 -63 20q-18 23 -19 56v122h39v-127zM0 608q0 35 23 56 q18 16 59 16t59 -16q18 -23 19 -56v-114h-43v108q0 18 -8 33q-2 12 -27 12q-20 0 -27 -8q-12 -12 -12 -29v-540q0 -18 12 -31q8 -8 27 -8q23 0 27 10q8 10 8 35v119h43v-123q0 -37 -19 -56q-25 -20 -59 -20q-35 0 -59 20q-23 16 -23 56v536zM373 72q0 -37 -23 -56 q-25 -20 -61 -20q-23 0 -37 5t-25 15q-23 16 -22 56v536q0 35 22 56q18 16 62 16q43 0 61 -16q23 -23 23 -56v-536zM328 606q0 20 -11 31q-8 10 -28 10t-29 -10q-12 -12 -12 -31v-534q0 -23 12 -31q10 -10 29 -10q18 0 28 10q10 8 11 31v534zM430 680h62l61 -438 q4 -33 10 -74t15 -88q-2 29 -2.5 52.5t-2.5 45.5q-2 23 -2 41.5v28.5v432h43v-678h-61l-66 428q-2 12 -4 30.5t-4 41.5q-6 49 -12 104v-27.5t2 -25.5q0 -12 1 -22.5t1 -20.5q0 -27 2 -37v-22v-449h-43v678zM696 68q0 -10 9 -27q10 -10 30 -10q25 0 33 8q12 8 12 31v116 q0 27 -6 43q-4 10 -6 20.5t-8 22.5l-78 146q-14 23 -16 47q-8 23 -9 45v100q0 31 23 54q18 16 57 16q20 0 34.5 -2t25.5 -12q20 -16 20 -50v-122h-39v118q0 35 -37 35q-10 0 -17 -2t-11 -8q-10 -14 -11 -25v-104q0 -29 15 -64q10 -18 19 -36.5t20 -36.5q10 -18 19 -37 t20 -37q4 -12 10 -23.5t10 -23.5q6 -25 6 -55v-127q0 -35 -18 -52q-20 -20 -64 -20q-43 0 -63 20q-18 18 -19 56v121h39v-125zM1034 680v-608q0 -37 -22 -56q-20 -20 -62 -20q-37 0 -63 20q-20 18 -21 56v608h43v-608q0 -20 11 -31q14 -10 30 -10q14 0 31 10q10 10 10 31 v608h43zM1090 680h45v-645h96v-33h-141v678zM1292 645h-67v35h176v-35h-66v-643h-43v643zM1546 199h-86q-2 -27 -4 -51.5t-6 -49.5t-5 -49t-5 -47h-39l76 678h55l80 -678h-45zM1544 231q-4 29 -6 55.5t-6 53.5t-6 52.5t-6 53.5q0 6 -1 11.5t-1 9.5t-1 9t-1 9 q-2 10 -3.5 19.5t-1.5 17.5t-1 15.5t-1 15.5q-2 8 -2 16.5t-2 14.5q-2 10 -2 18v19q-4 -20 -4 -35q0 -8 -1 -17.5t-3 -19.5v-26.5t-2 -24.5q0 -12 -1 -24.5t-3 -27.5q-4 -27 -6 -52t-6 -54t-6.5 -55.5t-6.5 -53.5h80zM1647 680h63l62 -438q4 -33 10 -74t16 -88q-4 55 -6 98 q-2 23 -2 41.5v28.5v432h43v-678h-61l-64 428q-4 12 -6 30.5t-4 41.5q-6 49 -12 104q0 -14 1 -27.5t1 -25.5t1 -22.5t1 -20.5q0 -12 1 -20.5t1 -16.5v-22v-449h-45v678zM1919 645h-66v35h177v-35h-68v-643h-43v643z" />
<glyph unicode="&#xb4;" horiz-adv-x="1665" d="M168 1237q-2 4 -2 11v12q-2 8 -2 14t-2 12q0 16 -4 37q0 10 -4 31q0 6 -1 14t-1 16v37q-2 -10 -3.5 -21t-1.5 -22q0 -10 -1 -20t-1 -21q-2 -12 -2 -25.5t-2 -25.5q0 -12 -1 -25.5t-3 -25.5l-35 -426h-55l-47 676h39l29 -414v-20v-23q2 -12 2 -22.5v-20.5q2 -10 2 -17 t2 -18v-19t2 -20q0 -10 1 -20t1 -23q2 12 2 24.5t2 25.5v26t2 25v51q2 12 2 25.5t2 25.5l37 414h57l35 -414q2 -14 2 -26.5t2 -22.5t2 -20.5t2 -20.5t2 -22.5t2 -22.5q0 -12 1 -24.5t3 -28.5v30q2 10 3 31v64q2 16 2 31.5t2 31.5l30 414h37l-49 -676h-53zM338 1485h135v-33 h-90v-281h82v-32h-82v-297h94v-33h-139v676zM637 1004h-86q-2 -23 -4 -47.5t-6 -51.5q-2 -25 -4 -49.5t-7 -46.5h-38l75 676h58l77 -676h-45zM635 1038q-4 29 -6 54.5t-6 54.5q-4 27 -6.5 53.5t-6.5 54.5q-2 6 -2 19q0 14 -2 18q0 12 -1 21.5t-3 17.5q0 8 -1 15.5t-1 15.5 q-4 20 -4 29q-2 10 -2 18t-2 18q0 -8 -1 -16t-1 -18v-18.5t-2 -18.5q0 -12 -1 -24.5t-3 -24.5q-2 -14 -2 -26.5t-2 -25.5q-4 -27 -6.5 -53t-6.5 -55t-7 -55.5t-5 -53.5h80zM739 1485h86q78 0 78 -66v-219q0 -31 -20 -49q-16 -18 -58 -18h-43v-324h-43v676zM819 1165 q16 0 29 9q14 12 14 30v209q0 23 -12 29q-8 10 -31 10h-37v-287h37zM1114 879q0 -35 -20 -56q-25 -20 -64 -20q-37 0 -61 20q-23 18 -23 56v534q0 35 23 57q20 18 61 19q41 0 64 -19q20 -25 20 -57v-534zM1071 1413q0 20 -10 31q-12 12 -31 12q-18 0 -31 -12 q-10 -10 -10 -31v-532q0 -23 10 -33t31 -10q20 0 31 10q10 10 10 33v532zM1171 1485h62l63 -434q4 -35 9.5 -76t13.5 -90q-2 29 -2 54.5t-2 47.5q0 23 -1 39t-1 29v430h43v-676h-62l-63 430q-4 12 -5 29.5t-5 42.5q-4 23 -6.5 48t-6.5 54q0 -14 1 -27.5t1 -23.5 q2 -12 2 -22.5v-20.5q2 -12 2 -21.5v-17.5v-23v-448h-43v676zM1438 874q0 -16 8 -24q8 -12 33 -12q23 0 30 8q10 8 11 31v116v22.5t-4 20.5q-2 10 -6.5 20.5t-8.5 22.5l-78 146l-9 22.5t-9 24.5q-2 12 -4 24.5t-2 22.5v98q0 35 20 53q25 18 60 19q35 0 59 -14q18 -16 18 -52 v-123h-36v121q0 35 -37 35q-18 0 -31 -12q-8 -12 -8 -25v-104q0 -29 14 -64q10 -18 19.5 -36.5t19.5 -36.5t19.5 -37t19.5 -37q4 -12 9 -23.5t9 -23.5q8 -25 9 -56v-127q0 -33 -19 -51q-20 -20 -63 -20q-45 0 -62 20q-20 18 -20 56v122h39v-127zM340 199h-86 q-2 -27 -3 -51.5t-5 -49.5t-6 -49t-4 -47h-39l73 678h58l78 -678h-44zM338 231q-4 57 -12 109q-4 27 -5.5 52.5t-5.5 53.5q-2 8 -2 21q0 6 -4 18q0 16 -4 37q0 8 -1 15.5t-1 15.5v16.5t-2 14.5q-2 10 -2 18t-2 19q0 -8 -1 -17.5t-1 -17.5q-2 -8 -2 -17.5t-2 -19.5 q0 -14 -1 -26.5t-3 -24.5v-24.5t-2 -27.5q-4 -27 -7.5 -52t-7.5 -54q-2 -29 -5 -55.5t-7 -53.5h80zM442 680h82q23 0 38.5 -5t27.5 -13q20 -18 20 -58v-530q0 -41 -20 -56q-23 -16 -66 -16h-82v678zM522 35q45 0 45 37v536q0 37 -45 37h-35v-610h35zM635 680h41l47 -447 q2 -16 2 -30.5t2 -30.5q0 -16 1 -30.5t3 -30.5q2 -14 3 -28.5t3 -27.5q2 10 2 21.5t2 21.5q0 10 1 20.5t1 20.5v23.5t2 25.5q0 10 1.5 22.5t3.5 22.5l43 447h43l-74 -678h-53zM862 680h41v-678h-41v678zM987 68q0 -12 10 -27q6 -10 33 -10q20 0 31 8q10 10 10 31v116 q0 27 -6 43q-4 20 -14 43l-78 146q-6 10 -9 22.5t-8 24.5q-8 23 -8 45v100q0 31 23 54q18 16 59 16q18 0 32.5 -2t24.5 -12q20 -14 21 -50v-122h-39v118q0 35 -37 35q-18 0 -28 -10q-8 -10 -9 -25v-104q0 -35 15 -64l37 -73q10 -18 19 -37t19 -37q10 -23 21 -47q8 -23 8 -55 v-127q0 -33 -18 -52q-10 -10 -25.5 -15t-40.5 -5q-43 0 -63 20q-18 23 -19 56v121h39v-125zM1325 72q0 -35 -20 -56q-25 -20 -64 -20q-37 0 -61 20q-23 18 -23 56v536q0 33 23 56q10 10 26.5 13t34.5 3q45 0 64 -16q20 -25 20 -56v-536zM1284 606q0 18 -12 31q-8 10 -31 10 q-20 0 -29 -10q-12 -12 -12 -31v-534q0 -23 12 -31q10 -10 29 -10q20 0 31 10q12 8 12 31v534zM1384 680h84q35 0 58 -16q23 -18 22 -52v-198q0 -20 -10 -41q-6 -16 -35 -25q20 -6 31 -20q14 -18 14 -41v-285h-45v285q0 20 -10 30q-8 14 -37 15h-31v-330h-41v678zM1458 365 q45 0 45 43v198q0 39 -41 39h-37v-280h33z" />
<glyph unicode="&#xb5;" horiz-adv-x="1560" d="M0 1483h41l47 -445q2 -16 3 -30.5t3 -28.5v-29.5t2 -29.5t3 -31t3 -29q2 10 2 22.5t2 22.5q0 10 1.5 21.5t3.5 21.5v45q0 12 1 23.5t3 21.5l45 445h41l-72 -676h-55zM225 1483h131v-33h-90v-279h86v-34h-86v-297h99v-33h-140v676zM397 1483h43v-312h84v312h41v-676h-41 v330h-84v-330h-43v676zM627 1483h41v-676h-41v676zM715 1411q0 37 20 55q23 20 62 21q37 0 59 -21q18 -18 18 -55v-113h-43v109q0 18 -8 33q-6 12 -26 12t-29 -8q-10 -10 -10 -31v-539q0 -18 10 -26q8 -10 29 -10q20 0 26 10q8 10 8 35v116h43v-120q0 -33 -18 -58 q-23 -16 -59 -16q-39 0 -62 16q-20 23 -20 58v532zM920 1483h41v-312h83v312h43v-676h-43v330h-83v-330h-41v676zM1145 1483h41v-643h98v-33h-139v676zM1317 1483h133v-33h-90v-279h86v-34h-86v-297h98v-33h-141v676zM324 678h82q43 0 65 -16q20 -18 21 -58v-528 q0 -41 -21 -56q-18 -18 -65 -18h-82v676zM403 35q45 0 46 39v532q0 39 -46 39h-36v-610h36zM549 678h135v-33h-92v-278h84v-33h-84v-299h96v-33h-139v676zM748 70q0 -12 8 -29q10 -10 30 -10t35 10q8 6 8 29v114v25.5t-4 21.5q-4 8 -7 18.5t-7 20.5l-78 150q-12 20 -16 45 q-8 25 -8 45v98q0 35 22 54q25 20 57 20q39 0 60 -16q20 -16 20 -50v-122h-39v120q0 35 -38 35q-18 0 -27 -12q-10 -10 -10 -25v-104q0 -29 16 -66q10 -16 18.5 -34.5t18.5 -36.5t19.5 -37t19.5 -37q6 -10 11 -22.5t9 -24.5q8 -25 8 -53v-127q0 -35 -18 -54q-23 -18 -65 -18 q-45 0 -64 18q-18 18 -18 56v123h39v-125zM922 678h41v-676h-41v676zM1110 330h80v-310l-6 -6q-8 -6 -31 -12q-10 -2 -21.5 -3t-25.5 -1q-41 0 -62 20q-23 18 -22 56v532q0 37 22 56q25 20 62 20q39 0 63 -20q20 -18 21 -56v-112h-41v108q0 20 -14 33q-10 14 -29 14 q-16 0 -27 -14q-14 -12 -14 -33v-532q0 -20 14 -29q10 -10 27 -10q8 0 13 1t11 3l19 6v256h-39v33zM1249 678h60l63 -436q4 -35 10.5 -74t14.5 -88q-2 29 -2 53.5t-2 46.5q0 23 -1 39.5t-1 28.5v430h43v-676h-62l-63 430q-4 10 -5 28.5t-6 43.5q-4 23 -6 47t-6 53 q0 -14 1 -26.5t1 -24.5t1 -22.5t1 -20.5v-35v-22v-451h-41v676z" />
<glyph unicode="&#xb6;" horiz-adv-x="1462" d="M168 1235q-2 8 -2 25q-2 6 -2 12t-2 12q0 10 -1 18.5t-3 18.5q0 10 -4 31q0 6 -1 13t-1 15v39q-2 -10 -3.5 -20t-1.5 -21q0 -12 -1 -22t-1 -21q-2 -12 -2 -24.5t-2 -26.5q0 -12 -1 -24.5t-1 -26.5l-37 -426h-55l-47 676h39l27 -412v-22q2 -8 2 -23q2 -12 2 -22.5v-20.5 q2 -8 2 -16.5t2 -18.5v-18t2 -19q0 -10 1 -20t1 -21q2 12 2 23.5t2 24.5v49q2 14 2 26.5v24.5q2 14 2 26.5t2 26.5l37 412h57l35 -412q2 -16 3 -28.5t1 -22.5q2 -10 2 -20.5t2 -20.5t2 -21.5t2 -23.5q0 -10 1 -22.5t3 -26.5v26q2 10 2.5 17.5t0.5 13.5q0 16 1 31.5t1 32.5 q0 16 1 32.5t1 32.5l32 412h35l-49 -676h-53zM340 1483h133v-33h-90v-279h82v-34h-82v-297h96v-33h-139v676zM637 1004h-86q0 -25 -2 -48.5t-6 -50.5q-4 -25 -6 -49.5t-5 -48.5h-38l73 676h58l80 -676h-46zM637 1036q-4 29 -7 55.5t-7 53.5q-2 29 -4.5 55.5t-6.5 54.5 q-2 4 -2 19q0 6 -4 18q0 18 -4 35v33q-4 16 -4 31q-2 8 -2 16t-2 20q0 -10 -1 -18t-1 -18q-2 -10 -2 -18.5t-2 -16.5q0 -14 -1 -26.5t-1 -24.5q-2 -12 -2 -24.5t-2 -25.5q-4 -29 -7.5 -55t-7.5 -55q-2 -29 -5 -55.5t-7 -53.5h82zM741 1483h86q78 0 78 -66v-219 q0 -33 -20 -47q-18 -20 -58 -21h-43v-323h-43v676zM821 1165q20 0 29 9q12 8 12 28v209q0 20 -10 31q-12 8 -31 8h-37v-285h37zM1116 879q0 -31 -20 -58q-18 -16 -64 -16q-43 0 -61 16q-20 23 -21 58v532q0 37 21 55q20 20 61 21q43 0 64 -21q20 -20 20 -55v-532zM1073 1411 q0 23 -10 33q-16 8 -31 8q-14 0 -31 -8q-10 -14 -10 -33v-532q0 -16 10 -31q10 -10 31 -10q20 0 31 10q10 10 10 31v532zM1176 1483h59l63 -434q4 -35 10.5 -75t14.5 -87q-2 29 -3 53.5t-3 46.5q0 23 -1 39t-1 27v430h45v-676h-64l-63 430q-4 20 -8 72q-4 25 -7.5 49 t-7.5 53q0 -14 1 -26.5t1 -24.5q2 -12 2 -23.5v-21.5q2 -10 2.5 -18.5t0.5 -16.5v-23v-450h-41v676zM250 678h82q41 0 63 -16q23 -16 23 -58v-528q0 -41 -23 -56q-18 -18 -63 -18h-82v676zM328 35q47 0 47 39v532q0 39 -47 39h-37v-610h37zM475 678h133v-33h-90v-278h84v-33 h-84v-299h96v-33h-139v676zM672 70q0 -14 10 -29q10 -10 31 -10q23 0 32 10q12 6 13 29v114q0 25 -6 47q-4 8 -7.5 18.5t-7.5 20.5l-80 150q-10 20 -16 45q-6 27 -6 45v98q0 35 20 54q27 20 60 20q37 0 59 -16q18 -16 19 -50v-122h-37v120q0 35 -37 35q-23 0 -29 -12 q-10 -10 -10 -25v-104q0 -27 14 -66q10 -16 19.5 -34.5t19.5 -36.5t19.5 -37t19.5 -37q4 -10 10 -22.5t11 -24.5q6 -29 6 -53v-127q0 -35 -19 -54q-18 -18 -63 -18t-64 18q-18 16 -18 56v123h37v-125zM846 678h43v-676h-43v676zM1036 330h80v-310l-8 -6q-4 -4 -11 -6t-18 -6 q-10 -2 -21 -3t-26 -1q-41 0 -61 20q-20 18 -21 56v532q0 37 21 56q25 20 61 20q39 0 64 -20q20 -20 20 -56v-112h-43v108q0 23 -12 33q-14 14 -29 14q-14 0 -28 -14q-12 -12 -13 -33v-532q0 -20 13 -29q14 -10 28 -10q10 0 23 4q12 2 18 6v256h-37v33zM1176 678h59l63 -436 q4 -35 10.5 -74t14.5 -88q-2 29 -3 53.5t-3 46.5q0 23 -1 39.5t-1 28.5v430h45v-676h-64l-63 430q-4 10 -5 28.5t-3 43.5q-4 23 -7.5 47t-7.5 53q0 -14 1 -26.5t1 -24.5q2 -12 2 -22.5v-20.5q2 -10 2.5 -19.5t0.5 -15.5v-22v-451h-41v676z" />
<glyph unicode="&#xb7;" horiz-adv-x="1918" d="M0 1483h84q80 0 80 -66v-219q0 -33 -21 -47q-20 -20 -57 -21h-45v-323h-41v676zM78 1165q23 0 31 9q12 8 12 28v209q0 18 -12 31q-12 8 -31 8h-37v-285h37zM207 1483h86q37 0 55 -17q23 -14 23 -47v-198q0 -27 -9 -41q-8 -18 -34 -27q8 -2 15 -7t15 -11q12 -18 13 -43 v-285h-41v285q0 20 -13 32q-8 12 -36 13h-31v-330h-43v676zM283 1171q47 0 47 41v199q0 39 -43 39h-37v-279h33zM600 879q0 -31 -22 -58q-18 -16 -62 -16q-41 0 -63 16q-20 23 -21 58v532q0 37 21 55q23 20 63 21q41 0 62 -21q23 -18 22 -55v-532zM557 1411q0 20 -12 33 q-12 8 -29 8q-16 0 -29 -8q-12 -12 -12 -33v-532q0 -18 12 -31q8 -10 29 -10q20 0 29 10q12 12 12 31v532zM682 874q0 -16 8 -26q4 -10 33 -10q23 0 33 8q8 8 8 28v117v24.5t-2 20.5q-4 10 -8 20.5t-9 20.5l-77 148q-6 10 -10.5 22.5t-8.5 24.5q-6 27 -6 45v96q0 33 21 53 q20 20 61 21q37 0 57 -17q20 -12 21 -47v-123h-39v119q0 33 -37 33q-16 0 -29 -8q-8 -10 -8 -27v-104q0 -33 15 -64q10 -18 19 -35.5t19 -37.5l37 -74q12 -20 19 -47q10 -27 10 -56v-125q0 -16 -5 -29.5t-13 -23.5q-16 -16 -64 -16q-47 0 -65 16q-18 20 -19 56v122h39v-125z M883 1450h-68v33h174v-33h-65v-643h-41v643zM1010 1483h43v-312h82v312h45v-676h-45v330h-82v-330h-43v676zM1235 1483h135v-33h-92v-279h84v-34h-84v-297h96v-33h-139v676zM1438 1450h-66v33h172v-33h-65v-643h-41v643zM1569 1483h43v-676h-43v676zM1657 1411q0 37 22 55 q20 20 60 21q39 0 59 -21q18 -18 19 -55v-113h-43v109q0 16 -7 33q-10 12 -28 12t-29 -8q-10 -10 -10 -31v-539q0 -18 10 -26q10 -10 29 -10q20 0 28 10q6 12 7 35v116h43v-120q0 -33 -19 -58q-18 -16 -59 -16t-60 16q-23 27 -22 58v532zM694 678h84q41 0 64 -16 q20 -20 20 -58v-528q0 -39 -20 -56q-18 -18 -64 -18h-84v676zM774 35q45 0 45 39v532q0 39 -45 39h-37v-610h37zM920 678h135v-33h-92v-278h84v-33h-84v-299h96v-33h-139v676zM1118 70q0 -12 8 -29q6 -10 33 -10q18 0 33 10q8 6 8 29v114q0 14 -1 25.5t-1 21.5q-4 8 -8 18.5 t-8 20.5l-78 150q-6 10 -10 21.5t-9 23.5q-6 27 -6 45v98q0 35 23 54q20 20 59 20q37 0 58 -16q20 -14 20 -50v-122h-41v120q0 35 -35 35q-20 0 -28 -12q-8 -8 -9 -25v-104q0 -16 2 -32.5t13 -33.5q10 -16 19 -34.5t20 -36.5q10 -18 18 -37t16 -37q18 -25 21 -47 q10 -31 10 -53v-127q0 -31 -18 -54q-18 -18 -64 -18q-45 0 -65 18q-18 18 -19 56v123h39v-125zM1290 678h45v-676h-45v676zM1481 330h82v-310l-11 -6q-4 -4 -11 -6t-17 -6q-10 -2 -21.5 -3t-25.5 -1q-41 0 -62 20q-23 18 -22 56v532q0 37 22 56q25 20 62 20q43 0 63 -20 q23 -18 23 -56v-112h-43v108q0 16 -13 33q-14 14 -30 14q-10 0 -29 -14q-10 -14 -10 -33v-532q0 -18 10 -29q16 -10 29 -10q8 0 13 1t11 3t10.5 3t8.5 3v256h-39v33zM1618 678h63l62 -436q4 -35 10 -74t16 -88q-2 29 -3 53.5t-3 46.5q-2 23 -2 39.5v28.5v430h43v-676h-61 l-64 430q-6 20 -12 72q-2 23 -4 47t-6 53q0 -14 1 -26.5t1 -24.5t1 -22.5t1 -20.5t1 -19.5t1 -15.5v-22v-451h-45v676z" />
<glyph unicode="&#xb8;" horiz-adv-x="1966" d="M0 1483h86q80 0 80 -66v-219q0 -33 -19 -47q-20 -20 -61 -21h-41v-323h-45v676zM82 1165q16 0 31 9q10 10 10 28v209q0 16 -10 31q-16 8 -31 8h-37v-285h37zM209 1483h86q39 0 57 -17q23 -16 23 -47v-198q0 -25 -10 -41q-6 -16 -37 -27q10 -2 18 -7t16 -11 q4 -10 8.5 -19.5t4.5 -23.5v-285h-45v285q0 23 -8 32q-10 12 -37 13h-33v-330h-43v676zM287 1171q43 0 43 41v199q0 39 -39 39h-39v-279h35zM604 879q0 -31 -22 -58q-18 -16 -64 -16q-43 0 -61 16q-23 27 -23 58v532q0 37 23 55q20 20 61 21q43 0 64 -21q23 -18 22 -55v-532 zM559 1411q0 18 -10 33q-6 4 -13.5 6t-17.5 2t-16 -2t-13 -6q-12 -12 -12 -33v-532q0 -18 12 -31q10 -10 29 -10q20 0 31 10q10 14 10 31v532zM686 874q0 -14 6 -26q8 -10 35 -10q23 0 31 8q10 10 10 28v117q0 27 -6 45q0 16 -14 41l-76 148q-12 20 -19 47q-6 27 -6 45v96 q0 35 21 53q20 20 59 21q39 0 59 -17q18 -12 19 -47v-123h-39v119q0 33 -37 33q-14 0 -27 -8q-10 -10 -10 -27v-104q0 -33 17 -64q8 -18 16 -35.5t18 -37.5q10 -18 19.5 -37t19.5 -37q8 -10 12.5 -22.5t8.5 -24.5q10 -27 10 -56v-125q0 -29 -20 -53q-18 -16 -64 -16 q-47 0 -63 16q-18 20 -19 56v122h39v-125zM883 1450h-66v33h176v-33h-67v-643h-43v643zM1014 1483h43v-312h82v312h41v-676h-41v330h-82v-330h-43v676zM1239 1483h131v-33h-88v-279h84v-34h-84v-297h96v-33h-139v676zM1438 874q0 -18 6 -26q8 -10 33 -10t32 8q10 10 11 28 v117q0 14 -1 24.5t-3 20.5q-4 10 -7.5 20.5t-7.5 20.5l-80 148l-9 22.5t-9 24.5q-2 14 -3 24.5t-1 20.5v96q0 35 20 53q20 20 60 21q37 0 59 -17q20 -14 21 -47v-123h-41v119q0 33 -37 33q-18 0 -27 -8q-10 -10 -10 -27v-104q0 -33 14 -64q10 -18 19.5 -35.5t19.5 -37.5 q10 -18 19.5 -37t17.5 -37q6 -10 11 -22.5t9 -24.5t6.5 -25.5t2.5 -30.5v-125q0 -33 -19 -53q-16 -16 -63 -16t-64 16q-18 18 -18 56v122h39v-125zM1610 1483h43v-676h-43v676zM1737 874q0 -16 8 -26t33 -10q23 0 32 8q8 8 9 28v117v24.5t-2 20.5q-4 10 -8.5 20.5t-8.5 20.5 l-78 148l-9 22.5t-9 24.5q-6 27 -6 45v96q0 33 20 53t62 21q37 0 57 -17q20 -12 21 -47v-123h-39v119q0 33 -37 33q-16 0 -29 -8q-8 -10 -8 -27v-104q0 -33 14 -64q10 -18 19.5 -35.5t19.5 -37.5q10 -18 18.5 -37t18.5 -37q12 -20 18 -47q10 -27 11 -56v-125q0 -29 -21 -53 q-14 -16 -61 -16t-66 16q-18 20 -18 56v122h39v-125zM741 678h82q41 0 64 -16q23 -18 22 -58v-528q0 -39 -22 -56q-18 -18 -64 -18h-82v676zM819 35q45 0 45 39v532q0 39 -45 39h-35v-610h35zM967 678h133v-33h-90v-278h84v-33h-84v-299h96v-33h-139v676zM1163 70 q0 -14 11 -29q6 -10 30 -10q18 0 33 10q6 4 8 11t2 18v114v25.5t-4 21.5q-4 8 -7 18.5t-7 20.5l-80 150q-10 20 -16 45q-4 14 -5.5 24.5t-1.5 20.5v98q0 35 21 54q25 20 59 20q37 0 58 -16q20 -14 20 -50v-122h-37v120q0 35 -37 35q-18 0 -30 -12q-8 -12 -9 -25v-104 q0 -27 15 -66q10 -16 19 -34.5t20 -36.5q10 -18 19 -37t20 -37l9 -22.5t9 -24.5q8 -25 8 -53v-127q0 -35 -18 -54q-18 -18 -64 -18q-45 0 -65 18q-16 20 -17 56v123h37v-125zM1337 678h43v-676h-43v676zM1526 330h82v-310l-9 -6q-4 -4 -11 -6t-17 -6q-10 -2 -21.5 -3 t-25.5 -1q-41 0 -62 20q-23 18 -22 56v532q0 37 22 56q25 20 62 20q39 0 63 -20q20 -20 21 -56v-112h-43v108q0 18 -11 33q-8 6 -14 10t-16 4q-14 0 -29 -14q-12 -12 -12 -33v-532q0 -20 12 -29q14 -10 29 -10q10 0 22 4q6 2 10.5 3t8.5 3v256h-39v33zM1665 678h61l64 -436 q4 -35 9 -74t16 -88q-2 29 -3.5 53.5t-3.5 46.5q0 23 -1 39.5t-1 28.5v430h45v-676h-63l-64 430q-4 10 -5 28.5t-3 43.5q-4 23 -7 47t-7 53q0 -14 1 -26.5t1 -24.5q2 -12 2 -22.5v-20.5q2 -10 2 -19.5v-15.5v-22v-451h-43v676z" />
<glyph unicode="&#xb9;" horiz-adv-x="1490" d="M158 1483h67l41 -406q2 -12 3 -24.5t1 -22.5q0 -12 1 -22.5t3 -20.5t2 -21.5t3 -23.5q0 -12 1 -25.5t1 -29.5q2 25 4 49.5t2 50.5q2 25 4 47.5t6 42.5q4 49 9 99.5t11 103.5q4 53 10.5 103.5t10.5 99.5h68v-676h-44v418v32q2 10 2.5 17.5t0.5 17.5v43v54 q-2 -8 -2.5 -16.5t-2.5 -18.5t-2 -18.5t-2 -16.5q0 -33 -6 -70q-2 -16 -3 -32.5t-3 -30.5q-4 -45 -8 -91t-10 -100q-4 -49 -9.5 -95t-9.5 -93h-51l-39 377v20q-2 6 -2 12.5t-2 12.5q-2 12 -3 23.5t-3 21.5q0 10 -1 17t-3 18q0 10 -1 17t-1 17t-1 20.5t-3 20.5q2 -14 2 -25 v-24q0 -10 1 -21t1 -22v-37v-30v-418h-43v676zM635 879q0 -35 -21 -58q-18 -16 -63 -16q-43 0 -62 16q-23 27 -22 58v532q0 37 22 55q20 20 62 21q43 0 63 -21q20 -18 21 -55v-532zM592 1411q0 18 -10 33q-6 4 -13.5 6t-17.5 2t-16.5 -2t-14.5 -6q-10 -10 -10 -33v-532 q0 -20 10 -31q12 -10 31 -10q20 0 31 10q10 14 10 31v532zM721 1450h-68v33h176v-33h-65v-643h-43v643zM852 1483h43v-676h-43v676zM1122 879q0 -35 -20 -58q-23 -16 -64 -16q-43 0 -61 16q-23 27 -23 58v532q0 37 23 55q20 20 61 21q41 0 64 -21q20 -18 20 -55v-532z M1079 1411q0 20 -12 33q-12 8 -29 8q-16 0 -28 -8q-12 -12 -13 -33v-532q0 -18 13 -31q8 -10 28 -10t29 10q12 12 12 31v532zM1180 1483h61l64 -434q4 -35 9 -75t13 -87q0 29 -1 53.5t-1 46.5q-2 23 -2 39v27v430h41v-676h-61l-64 430q-2 12 -4 29.5t-6 42.5t-6 49t-6 53 q2 -14 2 -26.5t2 -24.5v-23.5t2 -21.5v-35q2 -8 2 -13v-10v-450h-45v676zM0 606q0 37 23 56q25 20 59 20q39 0 59 -20q18 -18 19 -56v-114h-43v108q0 20 -6 33q-6 16 -29 16q-16 0 -29 -12q-10 -8 -10 -27v-540q0 -20 10 -29q14 -10 29 -10q23 0 29 10q6 12 6 37v119h43 v-123q0 -37 -19 -56q-18 -20 -59 -20q-39 0 -59 20q-23 18 -23 56v532zM332 197h-86q-4 -23 -6 -47.5t-4 -51.5q-4 -25 -6.5 -49t-6.5 -47h-39l76 676h57l78 -676h-43zM328 231q-4 27 -5 53.5t-6 53.5q-10 55 -12 111q0 4 -1 9t-1 9q0 6 -1 10t-1 10q-2 10 -3 18.5t-1 16.5 q-4 20 -4 31q-2 6 -2 14t-2 17q-2 10 -2 18v19q0 -10 -1 -18.5t-1 -18.5q0 -8 -1 -16.5t-1 -18.5q-2 -14 -3 -26.5t-4 -24.5q0 -12 -1 -24.5t-3 -24.5q-2 -51 -12 -111q-4 -29 -6 -54.5t-4 -52.5h78zM432 678h86q80 0 80 -66v-221q0 -29 -18 -47q-23 -18 -62 -18h-41v-324 h-45v676zM512 358q20 0 33 11q10 6 10 26v211q0 18 -10 29q-14 10 -33 10h-35v-287h35zM668 645h-66v33h176v-33h-67v-643h-43v643zM965 678v-604q0 -39 -19 -56q-23 -20 -63 -20q-41 0 -62 20q-23 18 -22 56v604h43v-604q0 -23 10 -33q14 -10 31 -10q18 0 28 10 q12 12 13 33v604h41zM1024 678h86q35 0 57 -16q23 -16 23 -48v-200q0 -20 -10 -41q-8 -16 -37 -25q18 -6 33 -20q14 -18 14 -43v-283h-45v283q0 18 -10 34q-10 14 -37 15h-31v-332h-43v676zM1102 367q43 0 43 39v200q0 39 -41 39h-37v-278h35zM1249 678h133v-33h-90v-278h84 v-33h-84v-299h97v-33h-140v676z" />
<glyph unicode="&#xba;" horiz-adv-x="1779" d="M733 872q0 -16 8 -26q4 -10 33 -10q23 0 33 8q10 10 10 30v115q0 27 -6 45q-4 8 -6 19.5t-8 23.5l-78 146q-6 10 -10 22t-9 25q-6 25 -6 45v98q0 33 21 51q25 20 59 21q37 0 60 -15q20 -14 20 -49v-123h-39v119q0 35 -39 35q-16 0 -26 -10q-8 -8 -9 -27v-104 q0 -16 2 -31.5t13 -32.5q10 -18 18 -35.5t19 -37.5q10 -16 19 -36t19 -36q4 -12 10.5 -24.5t10.5 -24.5q6 -25 6 -54v-127q0 -35 -18 -51q-16 -18 -64 -18q-45 0 -63 18t-19 56v120h39v-125zM932 1448h-66v33h174v-33h-65v-643h-43v643zM1229 877q0 -35 -23 -56 q-18 -18 -61 -18t-64 18q-20 20 -20 56v534q0 35 20 53q27 20 64 21q23 0 37 -5t24 -16q23 -16 23 -53v-534zM1186 1409q0 20 -12 33q-10 10 -29 10q-16 0 -31 -10q-10 -14 -10 -33v-532q0 -20 10 -31q10 -10 31 -10q20 0 29 10q12 8 12 31v532zM1286 1481h86q39 0 58 -17 q20 -12 20 -47v-198q0 -25 -6 -43q-10 -16 -37 -23q16 -6 31 -23q12 -12 12 -38v-287h-41v287q0 14 -10 30q-12 14 -37 15h-33v-332h-43v676zM1364 1169q45 0 45 41v201q0 37 -43 37h-37v-279h35zM1634 1481h43l-78 -408v-268h-40v268q-4 23 -10.5 47.5t-10.5 50.5 q-4 27 -9 52.5t-11 54.5q-4 27 -9.5 52.5t-11.5 51.5q-10 51 -18 99h45l55 -346zM0 676h84q31 0 57 -17q23 -18 23 -57v-196q0 -25 -14 -37q-6 -12 -31 -19q25 -6 35 -20q14 -12 14 -43v-213q0 -41 -21 -56q-23 -18 -55 -18h-92v676zM80 365q23 0 33 12q4 8 5 15t1 16v196 q0 25 -6 29q-8 10 -35 10h-35v-278h37zM43 330v-295h35q29 0 37 8q10 10 10 27v215q0 45 -45 45h-37zM393 70q0 -35 -20 -54q-25 -20 -64 -20q-37 0 -63 20q-20 18 -21 54v534q0 35 21 55q20 18 63 19q45 0 64 -19q20 -20 20 -55v-534zM350 604q0 20 -10 31q-10 10 -31 10 q-20 0 -30 -10t-11 -31v-532q0 -18 11 -33q14 -10 30 -10t31 10q10 14 10 33v532zM578 197h-89q-2 -25 -3 -49.5t-5 -49.5t-6 -49t-4 -49h-39l74 676h59l76 -676h-43zM573 229q-4 29 -6 55.5t-4 53.5q-4 27 -7 53.5t-5 54.5q0 4 -1 9.5t-1 11.5q0 4 -1 8t-1 8q-2 12 -3 20.5 t-1 16.5q-2 10 -3 16.5t-1 14.5q-2 8 -2 15t-2 16v36q-4 -20 -5 -36q0 -12 -4 -33q0 -14 -1 -26.5t-3 -24.5q0 -12 -1 -25.5t-3 -26.5q-4 -53 -12 -108q-4 -29 -6 -55.5t-6 -53.5h79zM678 676h86q37 0 59 -17q20 -14 21 -47v-198q0 -20 -8 -41q-8 -18 -37 -27q23 -8 32 -20 q12 -16 13 -41v-285h-43v285q0 16 -10 32q-12 12 -37 13h-31v-330h-45v676zM756 365q45 0 45 38v201q0 39 -43 39h-35v-278h33zM903 676h84q41 0 64 -17q23 -18 22 -57v-528q0 -39 -22 -56q-23 -18 -64 -18h-84v676zM983 35q47 0 47 35v536q0 37 -47 37h-35v-608h35z M1133 676h43v-676h-43v676zM1235 676h61l64 -434q4 -35 9 -75t13 -87q0 29 -1 53.5t-1 46.5q-2 23 -3 38t-1 28v430h43v-676h-61l-64 430q-4 12 -5 29.5t-5 40.5q-4 25 -6 49t-6 53q0 -14 1 -26.5t1 -24.5t1 -22.5t1 -20.5t1 -18.5t1 -18.5v-20v-451h-43v676zM1565 328h80 v-308l-7 -8q-8 -6 -30 -10q-23 -6 -47 -6q-37 0 -62 20q-20 18 -20 54v534q0 35 20 55q18 18 62 19q45 0 61 -19q23 -20 23 -55v-110h-41v106q0 16 -13 33q-10 12 -30 12q-18 0 -29 -12q-12 -16 -12 -33v-532q0 -10 4 -16.5t8 -12.5q14 -10 29 -10q8 0 13 1t11 3l19 6v256 h-39v33z" />
<glyph unicode="&#xbb;" horiz-adv-x="1832" d="M1008 1481h135v-33h-92v-279h88v-32h-88v-332h-43v676zM1167 1481h41v-676h-41v676zM1270 1481h43v-643h96v-33h-139v676zM1446 1481h65l41 -404q2 -29 7 -49q0 -12 1 -22.5t1 -20.5q2 -10 2 -22.5t2 -22.5q2 -12 2 -25.5t2 -29.5q2 23 3 48t3 52q2 25 3 47.5t5 44.5 q6 47 11 97.5t12 103.5q4 53 10 103.5t10 99.5h66v-676h-41v418v32v35v20.5t2 22.5v53q-2 -8 -2 -16t-2 -18t-2 -17.5t-2 -17.5q-6 -35 -7 -70q-4 -35 -6 -61q-4 -47 -9 -94.5t-11 -96.5q-10 -98 -19 -190h-51l-37 377q-2 6 -2 22q-2 4 -2 10.5t-2 12.5q-2 12 -3 22.5 t-1 20.5q0 16 -4 37q0 14 -4 34q0 10 -1 19.5t-3 21.5q2 -14 2 -26.5v-22.5t1 -21.5t1 -21.5q0 -8 1 -17t1 -20v-30v-418h-43v676zM0 676h133v-33h-90v-278h84v-35h-84v-295h96v-35h-139v676zM172 676h84q41 0 63 -17q23 -18 23 -57v-528q0 -39 -23 -56q-23 -18 -63 -18h-84 v676zM250 35q47 0 47 35v536q0 37 -47 37h-35v-608h35zM401 676h41v-676h-41v676zM532 643h-67v33h176v-33h-68v-643h-41v643zM662 676h45v-676h-45v676zM764 676h61l64 -434q4 -35 10 -75t14 -87q-2 29 -3 53.5t-1 46.5q-2 23 -2 38v28v430h43v-676h-63l-64 430 q-2 12 -3 29.5t-5 40.5q-4 25 -6 49t-6 53q0 -14 1 -26.5t1 -24.5t1 -22.5t1 -20.5v-37v-20v-451h-43v676zM1094 328h80v-308l-7 -8q-10 -6 -28 -10q-18 -6 -47 -6q-23 0 -37.5 5t-24.5 15q-23 16 -22 54v534q0 35 22 55q18 18 62 19q45 0 63 -19q18 -18 19 -55v-110h-41 v106q0 20 -13 33q-10 12 -28 12t-29 -12q-12 -12 -12 -33v-532q0 -16 12 -29q14 -10 29 -10q10 0 22 4q6 2 10 3t9 3v256h-39v33zM1337 676h82q33 0 60 -17q23 -16 22 -57v-196q0 -20 -12 -37q-12 -12 -31 -19q16 -6 35 -20q12 -12 12 -43v-213q0 -39 -20 -56 q-23 -18 -55 -18h-93v676zM1417 365q27 0 33 12q8 14 8 31v196q0 23 -10 29q-6 10 -33 10h-35v-278h37zM1380 330v-295h35q29 0 37 8q10 8 10 27v215q0 45 -45 45h-37zM1686 676h45l-80 -410v-266h-43v266q-4 23 -8.5 47.5t-8.5 53.5q-6 27 -12 52t-10 52q-4 29 -9.5 54.5 t-11.5 52.5q-10 51 -18 98h45l55 -348z" />
<glyph unicode="&#xbc;" horiz-adv-x="1228" d="M0 1481h84q45 0 63 -17q23 -18 23 -57v-526q0 -39 -23 -58q-23 -18 -63 -18h-84v676zM80 838q45 0 45 39v534q0 37 -45 37h-35v-610h35zM229 1481h43v-676h-43v676zM459 1001h-88q-4 -25 -5 -49t-4 -49q-4 -25 -6 -49.5t-6 -48.5h-37l74 676h57l78 -676h-45zM455 1034 q-4 29 -6.5 55.5t-4.5 53.5q-4 29 -7 55.5t-7 54.5q-2 4 -2 8.5v8.5v20q-2 10 -3 19.5t-1 17.5q-4 20 -4 31q-2 6 -2 14t-2 17q-2 6 -2 16t-2 20v-36q-2 -8 -2 -17.5t-2 -17.5q0 -14 -1 -26.5t-4 -27.5q0 -12 -1 -24t-3 -23l-12 -110q-4 -27 -6 -53.5t-6 -55.5h80zM559 1481 h45v-643h96v-33h-141v676zM901 877q0 -33 -22 -56q-18 -18 -62 -18q-45 0 -63 18q-20 20 -21 56v534q0 35 21 53q25 20 63 21q37 0 62 -21q23 -18 22 -53v-534zM858 1409q0 20 -12 33q-10 10 -29 10q-16 0 -31 -10q-10 -14 -10 -33v-532q0 -20 10 -31q10 -10 31 -10 q20 0 29 10q12 8 12 31v532zM1047 1135h79v-312l-10 -4q-4 -4 -11 -7t-18 -7q-10 0 -20 -1t-25 -1q-43 0 -61 18q-25 20 -25 56v534q0 35 25 53q25 20 61 21q37 0 62 -21q23 -18 22 -53v-111h-43v105q0 18 -12 35q-12 12 -29 12q-16 0 -28 -12t-13 -35v-533q0 -18 13 -26 q8 -10 28 -10q16 0 25 2q4 2 8 3t8 5v254h-36v35zM109 604q0 33 22 55q10 10 25.5 14.5t33.5 4.5q41 0 60 -19q18 -23 18 -55v-112h-43v106q0 20 -6 33q-6 14 -29 14q-18 0 -28 -10t-10 -27v-540q0 -14 10 -29q14 -10 28 -10q20 0 29 12q6 12 6 35v119h43v-125 q0 -35 -18 -54q-25 -20 -60 -20q-39 0 -59 20q-23 18 -22 54v534zM481 70q0 -35 -20 -54q-12 -10 -26.5 -15t-37.5 -5q-37 0 -61 20q-23 16 -23 54v534q0 35 23 55q18 18 61 19q43 0 64 -19q20 -20 20 -55v-534zM438 604q0 20 -10 31q-10 10 -31 10q-20 0 -30 -10t-11 -31 v-532q0 -18 11 -33q14 -10 30 -10t31 10q10 14 10 33v532zM666 197h-86q-4 -25 -6.5 -49.5t-4.5 -49.5l-12 -98h-37l74 676h59l78 -676h-45zM662 229q-4 29 -6.5 55.5t-4.5 53.5q-4 27 -6 53.5t-6 54.5q-2 6 -2 21v8t-2 8q-2 12 -2 20.5t-2 16.5q-2 10 -2 16.5t-2 14.5 q0 10 -4 31q0 10 -1 18t-1 18v-17t-3 -19q0 -8 -1 -16.5t-1 -16.5q-2 -14 -3 -26.5t-1 -24.5q-2 -12 -3 -25.5t-3 -26.5q-4 -53 -12 -108q-4 -29 -5 -55.5t-5 -53.5h78zM754 604q0 33 22 55q10 10 25.5 14.5t34.5 4.5q41 0 57 -19q20 -20 20 -55v-112h-43v106q0 23 -8 33 q-2 14 -26 14q-20 0 -29 -10q-10 -8 -10 -27v-540q0 -18 10 -29q10 -10 29 -10q23 0 26 12q8 10 8 35v119h43v-125q0 -35 -20 -54q-20 -20 -57 -20q-39 0 -60 20q-23 18 -22 54v534zM956 676h45v-311h82v311h43v-676h-43v330h-82v-330h-45v676z" />
<glyph unicode="&#xbd;" horiz-adv-x="1650" d="M0 1481h82q43 0 65 -17q20 -18 21 -57v-526q0 -39 -21 -58q-25 -18 -65 -18h-82v676zM78 838q47 0 47 39v534q0 37 -47 37h-35v-610h35zM227 1481h43v-676h-43v676zM455 1001h-84l-13 -98q-2 -25 -4 -49.5t-4 -48.5h-41l78 676h55l78 -676h-43zM453 1034q-4 57 -13 109 q-4 29 -5 55.5t-5 54.5q-2 4 -2 8.5v8.5q-2 6 -2 11t-2 9q0 16 -4 37q0 20 -2 31q0 6 -1 14t-1 17q-4 16 -4 36q-2 -10 -2 -18v-18q-2 -8 -2 -17.5t-2 -17.5q-2 -14 -2.5 -26.5t-0.5 -27.5q-2 -12 -3 -24t-3 -23q-4 -29 -6 -55.5t-4 -54.5q-4 -27 -7 -53.5t-7 -55.5h80z M559 1481h41v-643h98v-33h-139v676zM899 877q0 -35 -20 -56q-18 -18 -64 -18q-43 0 -61 18q-23 23 -23 56v534q0 35 23 53q25 20 61 21q39 0 64 -21q20 -18 20 -53v-534zM856 1409q0 18 -10 33q-14 10 -31 10q-18 0 -29 -10q-12 -12 -12 -33v-532q0 -23 12 -31q8 -10 29 -10 q20 0 31 10q10 10 10 31v532zM1044 1135h80v-312l-8 -4q-12 -8 -29 -14q-10 0 -21 -1t-24 -1q-45 0 -63 18q-23 23 -23 56v534q0 35 23 53q25 20 63 21q37 0 62 -21q20 -18 20 -53v-111h-43v105q0 18 -10 35q-8 4 -14 8t-15 4q-10 0 -17 -4t-13 -8q-12 -16 -13 -35v-533 q0 -18 13 -26q10 -10 30 -10h10.5t10.5 2q10 2 18 8v254h-37v35zM1350 1481v-604q0 -35 -21 -56q-18 -18 -61 -18t-64 18q-23 20 -22 56v604h43v-604q0 -23 12 -31q8 -10 31 -10q18 0 28 10t11 31v604h43zM1409 1481h131v-33h-90v-279h86v-32h-86v-299h98v-33h-139v676z M506 604q0 33 22 55q18 18 60 19q41 0 57 -19q20 -20 21 -55v-112h-43v106q0 20 -7 33q-6 14 -28 14q-20 0 -29 -10q-10 -10 -10 -27v-540q0 -14 10 -29q10 -10 29 -10q20 0 28 12q6 12 7 35v119h43v-125q0 -35 -21 -54q-20 -20 -57 -20q-35 0 -60 20q-23 18 -22 54v534z M879 70q0 -35 -23 -54q-20 -20 -61 -20q-37 0 -62 20q-23 18 -22 54v534q0 33 22 55q18 18 62 19q45 0 61 -19q23 -23 23 -55v-534zM836 604q0 23 -13 31q-8 10 -28 10t-29 -10q-12 -8 -12 -31v-532q0 -23 12 -33q10 -10 29 -10q18 0 28 10q12 10 13 33v532zM1061 197h-84 l-12 -99q-2 -25 -4.5 -49t-4.5 -49h-41l78 676h56l77 -676h-43zM1061 229q-4 29 -7 55.5t-7 53.5q-2 27 -4.5 53.5t-6.5 54.5q-2 6 -2 21q-2 4 -2 8t-2 8q0 12 -1 20.5t-1 16.5q0 10 -1 16.5t-3 14.5q0 8 -1 15t-1 16q-2 10 -3 18t-1 18q-2 -8 -2 -17t-2 -19v-16.5t-2 -16.5 v-26.5t-2 -24.5t-3 -25.5t-3 -26.5q-4 -27 -6.5 -53t-4.5 -55q-8 -55 -12 -109h80zM1151 604q0 35 20 55q20 18 62 19q41 0 57 -19q20 -20 21 -55v-112h-43v106q0 20 -6 33q-8 14 -29 14q-20 0 -29 -10q-10 -10 -10 -27v-540q0 -14 10 -29q10 -10 29 -10q16 0 29 12 q6 12 6 35v119h43v-125q0 -35 -21 -54q-20 -20 -57 -20q-35 0 -62 20q-20 18 -20 54v534zM1356 676h41v-311h84v311h43v-676h-43v330h-84v-330h-41v676z" />
<glyph unicode="&#xc0;" horiz-adv-x="1796" d="M401 1405q0 37 23 57q20 18 59 19q37 0 60 -19q18 -18 18 -55v-113h-43v109q0 16 -8 31q-2 14 -27 14q-18 0 -28 -10t-11 -29v-537q0 -16 11 -30q8 -8 28 -8q23 0 27 10q8 10 8 35v116h43v-121q0 -37 -18 -55q-25 -20 -60 -20t-59 20q-23 16 -23 55v531zM774 1479v-605 q0 -37 -22 -55q-25 -20 -62 -20t-61 20q-23 16 -23 55v605h41v-605q0 -18 15 -32q12 -8 28 -8t29 8q12 12 12 32v605h43zM856 870q0 -16 8 -26q6 -10 33 -10q20 0 31 6q10 10 10 32v115v23.5t-2 19.5q-4 10 -8 20.5t-8 22.5l-78 146q-10 20 -19 49q-6 25 -6 43v98 q0 35 21 53q20 18 61 19q41 0 57 -15q18 -16 19 -49v-123h-37v119q0 35 -37 35q-18 0 -29 -10q-10 -14 -10 -27v-104q0 -16 4 -30.5t13 -31.5q8 -18 17 -36.5t19 -37.5q10 -18 19.5 -36.5t19.5 -36.5q12 -27 19 -47q10 -27 10 -56v-125q0 -31 -20 -51q-16 -20 -62 -20 q-25 0 -40 5t-25 15q-18 18 -19 55v119h39v-123zM1055 1444h-66v35h174v-35h-67v-639h-41v639zM1350 874q0 -18 -4.5 -31.5t-16.5 -23.5q-10 -10 -24.5 -15t-36.5 -5q-37 0 -62 20q-23 18 -22 55v531q0 35 22 57q20 18 62 19q39 0 61 -19q20 -18 21 -57v-531zM1309 1405 q0 20 -13 33q-10 10 -28 10q-16 0 -31 -10q-10 -10 -10 -33v-531q0 -23 10 -32q16 -8 31 -8q16 0 28 8q12 12 13 32v531zM1411 1479h68l39 -406q2 -14 3 -25.5t3 -21.5q0 -10 1 -22.5t3 -22.5t2 -21.5t2 -21.5q0 -12 1 -25.5t1 -29.5q2 45 6 98q2 27 4 48.5t6 43.5 q4 47 9.5 97.5t9.5 103.5q6 53 12 104.5t10 100.5h66v-674h-41v416q0 23 2 30v35v43v55q0 -14 -4 -34q0 -10 -1 -18.5t-3 -16.5q-2 -18 -3 -35.5t-3 -34.5q-2 -33 -7 -63q-4 -45 -9 -92.5t-9 -96.5q-6 -51 -10 -98t-8 -90h-52l-39 375q-2 4 -2 18q-2 6 -2 13.5v13.5 q-2 12 -3 22t-1 21q-2 10 -3 18t-3 17q0 10 -1 18t-3 16q0 10 -1 20.5t-1 20.5v-47q0 -10 1 -22.5t1 -22.5q0 -8 1 -17t1 -20v-28v-416h-43v674zM0 674h43v-641h98v-33h-141v674zM299 195h-86q-2 -25 -4 -49.5t-6 -49.5q-2 -25 -4 -49t-6 -47h-39l75 674h58l75 -674h-40z M297 227q-4 29 -6 55.5t-6 53.5q-4 29 -6.5 54.5t-6.5 53.5v21q-2 4 -2 8t-2 8q0 12 -1 20.5t-3 16.5q0 10 -1 16.5t-1 16.5q-4 16 -4 31q-2 6 -2 15t-2 19v-34q-2 -10 -2 -18.5t-2 -16.5q-2 -14 -2 -26.5t-2 -24.5t-2 -24.5t-2 -27.5q-4 -27 -6.5 -53t-6.5 -55t-6 -55.5 t-6 -53.5h80zM524 674h43l-78 -410v-264h-43v264q-4 23 -9 47.5t-9 50.5q-4 29 -10 54.5t-10 52.5q-4 29 -10.5 54.5t-10.5 51.5q-10 51 -18 99h43l57 -346zM760 70q0 -37 -23 -56q-18 -18 -61 -18q-39 0 -64 18q-20 18 -20 56v532q0 37 20 55q25 18 64 19q43 0 61 -19 q23 -18 23 -55v-532zM717 602q0 20 -12 31q-10 10 -29 10q-18 0 -29 -10q-12 -12 -12 -31v-530q0 -25 12 -33q10 -10 29 -10q18 0 29 10q12 8 12 33v530zM985 674v-604q0 -37 -22 -56q-18 -18 -62 -18q-43 0 -63 18t-21 56v604h43v-602q0 -23 10 -33q14 -10 31 -10 q16 0 31 10q10 10 10 33v602h43zM1071 639h-65v35h172v-35h-66v-639h-41v639zM1305 674h81q35 0 58 -19q23 -14 22 -55v-197q0 -23 -12 -36q-10 -14 -31 -21q20 0 35 -18q12 -12 12 -43v-213q0 -41 -20 -56q-18 -16 -53 -16h-92v674zM1382 362q27 0 33 15q4 6 6 14t2 15v196 q0 20 -8 31q-6 6 -35 6h-32v-277h34zM1348 328v-295h32q29 0 37 8q12 8 13 29v213q0 45 -48 45h-34zM1651 674h43l-76 -410v-264h-43v264q-4 23 -9 47.5t-12 50.5q-4 29 -9 54.5t-11 52.5q-4 29 -9 54.5t-9 51.5q-12 51 -19 99h43l57 -346z" />
<glyph unicode="&#xc2;" horiz-adv-x="1781" d="M0 674h135v-35h-90v-277h86v-34h-86v-328h-45v674zM156 674h133v-35h-88v-277h84v-34h-84v-295h96v-33h-141v674zM457 195h-86l-13 -99q-2 -25 -4 -49t-6 -47h-39l76 674h57l78 -674h-45zM453 227q-4 29 -6.5 55.5t-4.5 53.5q-4 29 -7 54.5t-7 53.5q0 4 -1 9.5t-1 11.5 q0 4 -1 8t-1 8q0 12 -1 20.5t-1 16.5q-2 10 -3 16.5t-1 16.5q-2 6 -2 13t-2 18q-2 8 -2 34q-2 -10 -3 -17t-1 -17v-35q-2 -14 -3.5 -26.5t-1.5 -24.5q-2 -12 -3 -24.5t-3 -27.5q-4 -27 -6 -53t-6 -55t-6 -55.5t-6 -53.5h80zM586 639h-66v35h174v-35h-65v-639h-43v639z M883 674v-604q0 -37 -23 -56q-18 -18 -61 -18t-64 18q-20 18 -20 56v604h43v-602q0 -23 10 -33q14 -10 31 -10q14 0 30 10q10 10 11 33v602h43zM938 674h86q41 0 59 -17q20 -16 21 -49v-196q0 -27 -8 -43q-10 -16 -37 -23q20 -6 31 -20q14 -16 14 -43v-283h-43v283 q0 16 -10 32q-10 12 -37 13h-31v-328h-45v674zM1016 362q45 0 45 41v199q0 37 -41 37h-37v-277h33zM1167 674h43v-674h-43v674zM1270 674h59l66 -434q4 -35 9 -75t13 -87q-2 29 -2 52.5t-2 45.5q0 23 -1 40t-1 28v430h43v-674h-61l-64 428q-2 12 -4 29.5t-6 42.5t-6 49 t-6 53q2 -14 2 -26.5v-24.5q2 -14 2 -24.5v-20.5q2 -10 2 -18.5v-16.5v-22v-449h-43v674zM1599 328h80v-310l-8 -8q-4 -4 -12 -5t-19 -5q-10 -4 -20 -4h-25q-41 0 -61 18q-23 16 -23 56v532q0 39 23 55q20 18 61 19q39 0 62 -19q23 -18 22 -55v-110h-43v106q0 20 -12 33 q-10 12 -29 12q-16 0 -28 -12t-13 -33v-530q0 -20 13 -29q14 -10 28 -10q16 0 25 2l16 8v256h-37v33z" />
<glyph unicode="&#xc3;" horiz-adv-x="1624" d="M0 674h84q80 0 80 -66v-219q0 -33 -21 -47q-20 -20 -59 -20h-41v-322h-43v674zM78 356q23 0 33 11q10 6 10 26v211q0 14 -10 29q-10 8 -33 8h-35v-285h35zM207 674h86q35 0 55 -15q23 -14 23 -49v-196q0 -25 -6 -43q-8 -14 -37 -25q14 -6 30 -20q12 -16 13 -41v-285h-41 v285q0 14 -13 32q-10 12 -34 13h-33v-330h-43v674zM285 365q45 0 45 38v201q0 37 -43 37h-37v-276h35zM432 674h133v-33h-90v-276h84v-35h-84v-295h96v-35h-139v674zM631 68q0 -14 6 -27q8 -12 33 -12q20 0 32 8q10 10 11 31v114v24.5t-4 20.5q-6 20 -15 43l-78 146 q-14 27 -18 47q-4 12 -6 23.5t-2 21.5v98q0 35 22 53q20 18 60 19q35 0 57 -14q20 -12 21 -50v-122h-37v118q0 35 -39 35q-20 0 -27 -10q-10 -10 -10 -27v-104q0 -33 14 -64q20 -37 39 -71q10 -18 19.5 -37t19.5 -37q4 -12 9 -24.5t10 -24.5q8 -23 8 -51v-127q0 -33 -19 -52 q-20 -20 -63 -20t-64 20q-20 20 -20 54v123h41v-125zM801 674h133v-33h-92v-276h86v-35h-86v-295h98v-35h-139v674zM973 674h61l64 -432q4 -35 9 -75t15 -87q-2 27 -3 51.5t-3 46.5q0 23 -1 39t-1 29v428h43v-674h-61l-64 430q-2 12 -4 29.5t-6 40.5q-4 25 -6 49t-4 53 v-26.5t2 -24.5v-43q0 -27 2 -37v-22v-449h-43v674zM1243 641h-65v33h174v-33h-68v-641h-41v641zM1397 68q0 -16 8 -27q8 -12 33 -12q16 0 32 8q10 14 11 31v114q0 27 -6 45q-2 20 -15 43l-78 146q-4 12 -9 23.5t-9 23.5q-2 12 -3 23.5t-1 21.5v98q0 37 18 53q25 18 62 19 q35 0 57 -14q20 -14 21 -50v-122h-39v118q0 35 -37 35q-18 0 -29 -10q-8 -10 -8 -27v-104q0 -33 14 -64q16 -35 39 -71l37 -74q6 -12 11 -24.5t10 -24.5q4 -12 5 -25.5t1 -25.5v-127q0 -35 -17 -52q-25 -20 -63 -20q-43 0 -64 20q-18 16 -18 54v123h37v-125z" />
<glyph unicode="&#xc4;" horiz-adv-x="1964" d="M0 674h84q80 0 80 -66v-219q0 -33 -21 -47q-20 -20 -59 -20h-41v-322h-43v674zM78 356q23 0 33 11q10 6 10 26v211q0 14 -10 29q-10 8 -33 8h-35v-285h35zM207 674h86q35 0 55 -15q23 -14 23 -49v-196q0 -25 -6 -43q-8 -14 -37 -25q14 -6 30 -20q12 -16 13 -41v-285h-41 v285q0 14 -13 32q-10 12 -34 13h-33v-330h-43v674zM285 365q45 0 45 38v201q0 37 -43 37h-37v-276h35zM432 674h133v-33h-90v-276h84v-35h-84v-295h96v-35h-139v674zM631 68q0 -14 6 -27q8 -12 33 -12q20 0 32 8q10 10 11 31v114v24.5t-4 20.5q-6 20 -15 43l-78 146 q-14 27 -18 47q-4 12 -6 23.5t-2 21.5v98q0 35 22 53q20 18 60 19q35 0 57 -14q20 -12 21 -50v-122h-37v118q0 35 -39 35q-20 0 -27 -10q-10 -10 -10 -27v-104q0 -33 14 -64q20 -37 39 -71q10 -18 19.5 -37t19.5 -37q4 -12 9 -24.5t10 -24.5q8 -23 8 -51v-127q0 -33 -19 -52 q-20 -20 -63 -20t-64 20q-20 20 -20 54v123h41v-125zM801 674h133v-33h-92v-276h86v-35h-86v-295h98v-35h-139v674zM973 674h61l64 -432q4 -35 9 -75t15 -87q-2 27 -3 51.5t-3 46.5q0 23 -1 39t-1 29v428h43v-674h-61l-64 430q-2 12 -4 29.5t-6 40.5q-4 25 -6 49t-4 53 v-26.5t2 -24.5v-43q0 -27 2 -37v-22v-449h-43v674zM1243 641h-65v33h174v-33h-68v-641h-41v641zM1397 68q0 -16 8 -27q8 -12 33 -12q16 0 32 8q10 14 11 31v114q0 27 -6 45q-2 20 -15 43l-78 146q-4 12 -9 23.5t-9 23.5q-2 12 -3 23.5t-1 21.5v98q0 37 18 53q25 18 62 19 q35 0 57 -14q20 -14 21 -50v-122h-39v118q0 35 -37 35q-18 0 -29 -10q-8 -10 -8 -27v-104q0 -33 14 -64q16 -35 39 -71l37 -74q6 -12 11 -24.5t10 -24.5q4 -12 5 -25.5t1 -25.5v-127q0 -35 -17 -52q-25 -20 -63 -20q-43 0 -64 20q-18 16 -18 54v123h37v-125zM1798 195h-86 q-2 -25 -4 -48.5t-6 -48.5t-5 -49t-5 -49h-39l76 674h57l76 -674h-41zM1794 227q-2 29 -4 56.5t-6 52.5l-12 110q0 4 -1.5 9.5t-1.5 9.5q0 14 -2 18q-2 10 -3 19.5t-1 17.5q-2 8 -2 15.5t-2 15.5v14t-2 17q0 8 -1 17t-1 19q-2 -10 -3 -18t-1 -18q0 -8 -1 -16.5t-1 -18.5 q-2 -14 -3 -26.5t-1 -24.5t-1 -24.5t-3 -25.5l-12 -110q-4 -27 -6.5 -53.5t-6.5 -55.5h78z" />
<glyph unicode="&#xc5;" horiz-adv-x="2187" d="M0 674h84q80 0 80 -66v-219q0 -33 -21 -47q-20 -20 -59 -20h-41v-322h-43v674zM78 356q23 0 33 11q10 6 10 26v211q0 14 -10 29q-10 8 -33 8h-35v-285h35zM207 674h86q35 0 55 -15q23 -14 23 -49v-196q0 -25 -6 -43q-8 -14 -37 -25q14 -6 30 -20q12 -16 13 -41v-285h-41 v285q0 14 -13 32q-10 12 -34 13h-33v-330h-43v674zM285 365q45 0 45 38v201q0 37 -43 37h-37v-276h35zM432 674h133v-33h-90v-276h84v-35h-84v-295h96v-35h-139v674zM631 68q0 -14 6 -27q8 -12 33 -12q20 0 32 8q10 10 11 31v114v24.5t-4 20.5q-6 20 -15 43l-78 146 q-14 27 -18 47q-4 12 -6 23.5t-2 21.5v98q0 35 22 53q20 18 60 19q35 0 57 -14q20 -12 21 -50v-122h-37v118q0 35 -39 35q-20 0 -27 -10q-10 -10 -10 -27v-104q0 -33 14 -64q20 -37 39 -71q10 -18 19.5 -37t19.5 -37q4 -12 9 -24.5t10 -24.5q8 -23 8 -51v-127q0 -33 -19 -52 q-20 -20 -63 -20t-64 20q-20 20 -20 54v123h41v-125zM801 674h133v-33h-92v-276h86v-35h-86v-295h98v-35h-139v674zM973 674h61l64 -432q4 -35 9 -75t15 -87q-2 27 -3 51.5t-3 46.5q0 23 -1 39t-1 29v428h43v-674h-61l-64 430q-2 12 -4 29.5t-6 40.5q-4 25 -6 49t-4 53 v-26.5t2 -24.5v-43q0 -27 2 -37v-22v-449h-43v674zM1243 641h-65v33h174v-33h-68v-641h-41v641zM1397 68q0 -16 8 -27q8 -12 33 -12q16 0 32 8q10 14 11 31v114q0 27 -6 45q-2 20 -15 43l-78 146q-4 12 -9 23.5t-9 23.5q-2 12 -3 23.5t-1 21.5v98q0 37 18 53q25 18 62 19 q35 0 57 -14q20 -14 21 -50v-122h-39v118q0 35 -37 35q-18 0 -29 -10q-8 -10 -8 -27v-104q0 -33 14 -64q16 -35 39 -71l37 -74q6 -12 11 -24.5t10 -24.5q4 -12 5 -25.5t1 -25.5v-127q0 -35 -17 -52q-25 -20 -63 -20q-43 0 -64 20q-18 16 -18 54v123h37v-125zM1798 195h-86 q-2 -25 -4 -48.5t-6 -48.5t-5 -49t-5 -49h-39l76 674h57l76 -674h-41zM1794 227q-2 29 -4 56.5t-6 52.5l-12 110q0 4 -1.5 9.5t-1.5 9.5q0 14 -2 18q-2 10 -3 19.5t-1 17.5q-2 8 -2 15.5t-2 15.5v14t-2 17q0 8 -1 17t-1 19q-2 -10 -3 -18t-1 -18q0 -8 -1 -16.5t-1 -18.5 q-2 -14 -3 -26.5t-1 -24.5t-1 -24.5t-3 -25.5l-12 -110q-4 -27 -6.5 -53.5t-6.5 -55.5h78zM1901 674h61l63 -432q4 -35 9.5 -75t13.5 -87q-2 27 -2 51.5v46.5q-2 23 -2 39v29v428h41v-674h-62l-63 430q-4 12 -5 29.5t-5 40.5q-4 25 -6 49t-7 53q0 -14 1 -26.5t1 -24.5 t1.5 -22.5t1.5 -20.5t1 -19.5t1 -17.5v-22v-449h-43v674z" />
<glyph unicode="&#xc6;" horiz-adv-x="1523" d="M0 1483h68l41 -406q2 -12 3 -24.5t3 -22.5q2 -12 3 -23.5t1 -21.5v-21.5t2 -23.5q0 -10 1 -24.5t3 -30.5q2 25 3 50.5t3 49.5q2 27 4 49.5t6 42.5q4 47 9.5 98.5t11.5 104.5t11 104.5t9 98.5h66v-678h-41v420v32v35v20.5t2 22.5v54q-2 -10 -2 -17.5t-2 -17.5t-2 -18.5 t-2 -16.5q-2 -18 -3 -35.5t-3 -34.5q-2 -18 -3.5 -32.5t-3.5 -28.5q-10 -92 -18 -191q-4 -51 -10 -98t-10 -94h-52l-37 379q0 4 -1 9t-1 11t-1 11.5t-3 13.5q-2 12 -2 22.5t-2 20.5t-2 18t-2 19q-2 8 -2 16t-2 18t-2 20.5v20.5v-49v-22t2 -21v-37v-30v-420h-43v678z M436 1004h-86q-2 -25 -4 -49.5t-6 -49.5t-6 -50.5t-4 -49.5h-37l74 678h57l78 -678h-45zM434 1036q-4 29 -6 55.5t-6 53.5t-6 53.5t-6 54.5q0 4 -1 9.5t-1 9.5q0 6 -1 11t-1 9q-2 10 -2.5 19.5t-2.5 15.5q0 20 -2 31q0 10 -1 16t-3 17q0 6 -1 15t-1 19q-2 -8 -2 -17t-2 -17 v-18.5t-2 -18.5q-2 -12 -2 -25.5t-2 -25.5q-2 -10 -3 -23.5t-1 -26.5q-4 -29 -6 -54t-6 -54t-6.5 -55.5t-6.5 -53.5h80zM539 1483h43v-678h-43v678zM578 1163l92 320h39l-95 -320q14 -41 26.5 -86t25.5 -92q14 -45 27.5 -90t23.5 -90h-41zM731 1483h133v-33h-90v-279h84v-32 h-84v-299h96v-35h-139v678zM881 1169h92v-30h-92v30zM1176 1483v-604q0 -39 -23 -56q-18 -20 -61 -20t-62 20q-23 18 -22 56v604h43v-604q0 -23 12 -31q8 -12 29 -12q18 0 28 12q12 8 13 31v604h43zM1233 1483h86q80 0 80 -66v-219q0 -29 -23 -49q-18 -18 -57 -19h-43v-325 h-43v678zM1313 1163q20 0 30 11q10 8 11 26v211q0 20 -11 31q-12 8 -30 8h-37v-287h37zM498 197h-86q-4 -25 -6.5 -48.5t-4.5 -50.5q-4 -27 -5 -50t-5 -48h-39l76 676h55l78 -676h-41zM496 229q-4 29 -6.5 55.5t-6.5 53.5t-6 53.5t-6 54.5q0 4 -1 9.5t-1 11.5v9t-2 9 q-2 10 -2 19.5t-2 17.5t-2 15.5t-2 13.5q0 14 -4 31q0 10 -1 19t-1 20v-37q-2 -8 -2 -17.5t-2 -17.5q-2 -14 -2.5 -26.5t-2.5 -26.5q-2 -10 -2 -22.5t-2 -27.5q-4 -27 -7 -53t-5 -55q-4 -29 -6 -54.5t-6 -54.5h80zM600 676h84q39 0 59 -14t21 -50v-198q0 -25 -6 -43 q-8 -14 -37 -25q20 -6 31 -20q12 -12 12 -41v-285h-41v287q0 14 -12 30q-10 14 -35 15h-33v-332h-43v676zM678 365q45 0 45 41v198q0 39 -43 39h-37v-278h35zM854 643h-68v33h179v-33h-68v-643h-43v643zM985 676h43v-676h-43v676zM1114 68q0 -14 6 -27q10 -10 33 -10 q20 0 33 6q10 10 10 31v116v23.5t-4 21.5q-4 8 -7 18.5t-9 22.5l-78 148q-4 10 -8.5 21.5t-8.5 25.5q-8 23 -8 45v98q0 35 23 51q20 20 59 21q39 0 59 -14q18 -18 19 -50v-122h-37v118q0 35 -39 35q-16 0 -29 -12q-8 -8 -8 -25v-104q0 -33 15 -64q10 -16 18 -35.5t18 -37.5 t19.5 -37t19.5 -37q8 -10 12.5 -22.5t8.5 -24.5q8 -23 8 -55v-125q0 -33 -18 -54q-18 -18 -64 -18q-41 0 -63 18q-20 20 -21 56v120h41v-122zM1313 643h-66v33h174v-33h-67v-643h-41v643z" />
<glyph unicode="&#xc7;" horiz-adv-x="2373" d="M279 874q0 -16 8 -26q6 -12 30 -12q23 0 33 10q10 8 10 31v112v26.5t-4 20.5q-4 8 -7 18.5t-9 22.5l-78 146q-4 12 -8 23t-8 24q-8 25 -8 47v98q0 31 22 53q10 8 24.5 13.5t34.5 5.5q35 0 60 -14q18 -18 18 -52v-123h-37v121q0 33 -38 33q-16 0 -29 -8q-8 -10 -8 -27 v-104q0 -35 14 -66q10 -16 19.5 -34.5t19.5 -36.5l37 -74q8 -10 12 -22.5t8 -24.5q8 -25 8 -54v-127q0 -35 -18 -53t-63 -18t-64 18q-20 18 -20 56v122h41v-125zM477 1450h-65v33h174v-33h-68v-645h-41v645zM774 1483v-604q0 -39 -22 -56q-20 -20 -62 -20q-41 0 -63 20 q-20 18 -21 56v604h41v-604q0 -23 12 -31q12 -12 31 -12q18 0 31 12q10 10 10 31v604h43zM831 1483h62l61 -436q4 -33 10.5 -73t14.5 -89q0 29 -1 53.5t-1 46.5q-2 23 -2 39v29v430h41v-678h-62l-63 432q-4 12 -5 29.5t-5 42.5t-6.5 49t-6.5 53q2 -14 2 -27.5v-25.5 q2 -10 2 -21.5v-21.5q2 -10 2 -18.5v-16.5v-23v-452h-43v678zM1102 1450h-68v33h176v-33h-65v-645h-43v645zM1350 1542h32l-137 -794h-35zM1421 1483h133v-33h-88v-279h84v-32h-84v-334h-45v678zM1581 1483h43v-678h-43v678zM1772 1137h79v-312l-8 -6q-8 -8 -28 -12 q-10 -2 -21.5 -3t-26.5 -1q-41 0 -63 20q-20 20 -21 56v532q0 35 21 55q27 20 63 21q39 0 62 -19q23 -20 22 -55v-113h-43v107q0 18 -10 35q-14 10 -31 10q-14 0 -28 -10q-12 -16 -13 -35v-533q0 -16 13 -28q14 -10 28 -10q16 0 25 2l8 4l8 4v256h-36v35zM1909 1483h45v-312 h80v312h45v-678h-45v334h-80v-334h-45v678zM2163 1450h-66v33h174v-33h-65v-645h-43v645zM0 604q0 39 23 55q18 20 59 21q39 0 57 -21q20 -14 21 -55v-110h-43v106q0 23 -8 33q-2 14 -27 14q-18 0 -29 -10q-10 -14 -10 -29v-540q0 -14 10 -29q12 -8 29 -8q23 0 27 10 q8 10 8 35v117h43v-121q0 -37 -21 -58q-23 -18 -57 -18q-37 0 -59 18q-23 20 -23 58v532zM373 72q0 -33 -21 -58q-10 -8 -26.5 -13t-36.5 -5q-23 0 -37 5t-25 13q-23 20 -22 58v532q0 39 22 55q20 20 62 21q43 0 63 -21q20 -20 21 -55v-532zM330 604q0 20 -13 31 q-10 12 -28 12q-20 0 -29 -12q-12 -10 -12 -31v-532q0 -20 12 -33q12 -8 29 -8q16 0 28 8q12 12 13 33v532zM598 72q0 -37 -20 -58q-10 -8 -25.5 -13t-36.5 -5q-23 0 -38 5t-25 13q-23 23 -23 58v532q0 37 23 55q20 20 63 21q41 0 62 -21q20 -18 20 -55v-532zM555 604 q0 20 -12 31q-10 12 -27 12q-23 0 -31 -12q-12 -10 -12 -31v-532q0 -20 12 -33q12 -8 31 -8q14 0 27 8q12 12 12 33v532zM655 676h86q37 0 58 -14q23 -16 22 -50v-198q0 -27 -8 -43q-10 -16 -37 -25q20 -6 31 -20q14 -12 14 -41v-285h-43v287q0 14 -10 30q-14 14 -37 15h-33 v-332h-43v676zM733 365q45 0 45 41v198q0 39 -41 39h-39v-278h35zM881 676h84q45 0 63 -17q23 -16 23 -57v-528q0 -35 -23 -58q-23 -16 -63 -16h-84v676zM961 35q45 0 45 37v534q0 37 -45 37h-35v-608h35zM1110 676h43v-676h-43v676zM1212 676h62l63 -436q6 -70 25 -160 q-2 29 -3 53.5t-1 46.5q-2 23 -2 39.5v26.5v430h41v-676h-60l-65 430q-4 12 -5 30.5t-5 41.5q-4 49 -13 100q2 -12 2 -24.5v-26.5q2 -10 2 -21.5v-21.5q2 -10 2 -18.5v-18.5v-20v-451h-43v676zM1581 197h-88q0 -25 -2 -48.5t-6 -50.5t-6 -50t-4 -48h-39l75 676h58l78 -676 h-45zM1577 229q-4 29 -6 55.5t-4 53.5q-4 27 -6 53.5t-7 54.5q-2 6 -2 21q0 4 -1 9t-1 9q-2 10 -3 19.5t-1 17.5q-2 8 -2 15.5v13.5q-2 8 -2 16t-2 15q0 10 -1 19t-1 20q-2 -10 -2 -18.5t-2 -18.5q0 -8 -1 -17.5t-1 -17.5q-2 -14 -3 -26.5t-1 -26.5q-4 -23 -6 -50 q-4 -27 -5 -53t-6 -55q-4 -29 -7 -54.5t-7 -54.5h80zM1712 643h-65v33h174v-33h-68v-643h-41v643zM2009 72q0 -37 -22 -58q-23 -18 -62 -18q-35 0 -63 18q-20 25 -21 58v532q0 35 21 55q23 20 63 21q43 0 62 -21q23 -16 22 -55v-532zM1966 604q0 20 -12 31q-10 12 -29 12 q-18 0 -31 -12q-10 -10 -10 -31v-532q0 -18 10 -33q16 -8 31 -8q16 0 29 8q12 12 12 33v532zM2066 676h86q37 0 58 -14q23 -16 22 -50v-198q0 -23 -10 -43q-6 -16 -37 -25q20 -6 33 -20q14 -12 14 -41v-285h-45v287q0 16 -8 30q-14 14 -39 15h-31v-332h-43v676zM2142 365 q45 0 45 41v198q0 39 -41 39h-37v-278h33z" />
<glyph unicode="&#xc8;" horiz-adv-x="2279" d="M166 1235q-2 6 -2 25q-2 8 -2 24q0 18 -4 35q0 10 -1 17t-1 14q-2 8 -2 15t-2 15q0 10 -1 18.5t-1 20.5q-2 -12 -2.5 -22.5t-2.5 -20.5v-20t-2 -21q0 -12 -1 -25.5t-1 -25.5q-2 -12 -2 -25.5t-2 -25.5l-35 -428h-55l-47 678h37l26 -414q2 -6 3 -22q0 -6 1 -11.5t1 -9.5 q0 -12 1 -22.5t1 -18.5q2 -10 2 -19.5v-17.5q2 -10 2 -19v-20q2 -8 2 -19t2 -22q0 12 1 24.5t1 25.5q2 12 2 24v25q2 14 2 26.5v24.5q0 14 1 26.5t1 24.5l39 414h57l33 -414q2 -14 3 -25.5t3 -23.5q2 -10 2 -20.5t2 -20.5q2 -12 2 -22.5t2 -22.5q0 -10 1 -22.5t1 -28.5 q2 8 2 28v29q2 16 3.5 32.5t1.5 33.5q2 16 2 31.5v31.5l30 414h39l-51 -678h-53zM340 1483h84q35 0 57 -15q23 -18 23 -49v-200q0 -10 -2 -20.5t-6 -20.5q-8 -14 -37 -25q18 -6 33 -20q12 -16 12 -41v-287h-43v287q0 16 -12 32q-8 14 -35 15h-31v-334h-43v678zM416 1171 q45 0 45 41v199q0 39 -43 39h-35v-279h33zM567 1483h43v-678h-43v678zM698 1450h-67v33h174v-33h-66v-645h-41v645zM854 1450h-66v33h175v-33h-66v-645h-43v645zM983 1483h133v-33h-88v-279h84v-32h-84v-299h96v-35h-141v678zM1157 1483h62l63 -436q4 -33 9 -73t16 -89 q-2 55 -7 100q0 23 -1 39t-1 29v430h45v-678h-61l-68 432q0 12 -2 29.5t-6 42.5q-2 25 -5 49t-7 53q0 -14 1 -27.5t1 -25.5q2 -10 2 -21.5v-21.5q2 -10 2 -18.5v-16.5v-23v-452h-43v678zM1630 1004h-84l-12 -99q-4 -25 -6 -50.5t-4 -49.5h-39l76 678h57l78 -678h-45z M1628 1036q-4 29 -6 55.5t-6 53.5t-6 53.5t-6 54.5q0 4 -1 9.5t-1 9.5q0 6 -1.5 11t-1.5 9q0 10 -1 19.5t-1 15.5q-2 10 -2 16.5t-2 14.5q0 10 -1 16t-3 17q0 6 -1 15t-1 19q-2 -8 -2 -17t-2 -17v-18.5t-2 -18.5q-2 -12 -2 -25.5t-2 -25.5q-2 -10 -3 -23.5t-1 -26.5 q-4 -29 -6 -54t-6 -54t-6.5 -55.5t-6.5 -53.5h80zM1733 1483h63l62 -436q4 -33 10 -73t14 -89q0 29 -1 53.5t-3 46.5q-2 23 -2 39v29v430h43v-678h-64l-63 432q-2 12 -4 29.5t-6 42.5q-2 25 -4 49t-6 53v-27.5t2 -25.5q0 -10 1 -21.5t1 -21.5q0 -25 2 -35v-23v-452h-45v678z M1976 1483h82q41 0 64 -17q23 -16 22 -57v-528q0 -41 -22 -56q-25 -20 -64 -20h-82v678zM2054 840q47 0 47 39v534q0 37 -47 37h-35v-610h35zM203 676h84q45 0 61 -17q23 -14 23 -57v-528q0 -37 -23 -58q-20 -16 -61 -16h-84v676zM283 35q45 0 45 37v534q0 37 -45 37h-37 v-608h37zM430 676h43v-676h-43v676zM532 676h89q35 0 55 -14q25 -16 24 -50v-198q0 -23 -10 -43q-10 -16 -37 -25q18 -6 33 -20q14 -14 14 -41v-285h-45v287q0 14 -10 30q-14 14 -37 15h-33v-332h-43v676zM610 365q45 0 45 41v198q0 39 -41 39h-39v-278h35zM758 676h135v-33 h-90v-278h84v-33h-84v-297h96v-35h-141v676zM920 604q0 37 20 55q20 20 61 21q39 0 60 -21q18 -16 18 -55v-110h-45v106v18.5t-4 14.5q-8 14 -29 14q-18 0 -28 -10q-12 -12 -12 -29v-540q0 -16 12 -29q12 -8 28 -8q18 0 29 10q4 8 4 35v117h45v-121q0 -37 -18 -58 q-10 -8 -24.5 -13t-35.5 -5q-20 0 -35.5 5t-25.5 13q-20 20 -20 58v532zM1153 643h-68v33h177v-33h-68v-643h-41v643zM1282 676h133v-33h-92v-278h86v-33h-86v-297h96v-35h-137v676zM1454 676h82q45 0 63 -17q25 -16 25 -57v-528q0 -37 -25 -58q-23 -16 -63 -16h-82v676z M1532 35q47 0 47 37v534q0 37 -47 37h-35v-608h35zM1784 676h84q37 0 59 -17q20 -16 21 -57v-194q0 -27 -13 -39q-10 -12 -28 -21q23 -4 30 -18q16 -16 17 -43v-213q0 -37 -21 -58q-27 -16 -55 -16h-94v676zM1866 365q25 0 30 14q10 16 11 31v194q0 16 -11 31q-8 8 -32 8 h-35v-278h37zM1829 332v-297h35q29 0 37 8t8 29v213q0 47 -43 47h-37zM2134 676h43l-80 -410v-266h-41v266q-4 23 -9 48.5t-11 52.5q-4 27 -9.5 52t-11.5 52q-4 29 -9 55.5t-9 51.5q-6 27 -10.5 51t-8.5 47h43l58 -346z" />
<glyph unicode="&#xca;" horiz-adv-x="1693" d="M145 195h-86q-4 -25 -6 -48.5t-4 -48.5l-12 -98h-37l74 674h57l78 -674h-43zM141 227q-4 29 -6 56.5t-6 52.5q-2 29 -4 55.5t-6 54.5q-4 8 -4 19q0 14 -2 18q0 27 -2 37q-2 8 -2 15.5t-3 15.5q0 10 -4 31q0 8 -1 17t-1 19q-2 -10 -2 -18v-18q0 -8 -1 -16.5t-1 -18.5 q-2 -14 -3 -26.5t-1 -24.5l-6 -50q-4 -29 -6 -55t-6 -55q-4 -27 -6 -53.5t-5 -55.5h78zM352 674h131v-33h-88v-276h84v-35h-84v-330h-43v674zM510 674h43v-674h-43v674zM612 674h41v-639h99v-35h-140v674zM786 674h68l41 -404q2 -14 3 -26.5t1 -22.5q2 -10 3 -20.5t3 -22.5 q0 -10 1 -21.5t1 -23.5t1 -25.5t1 -27.5q2 25 4 49.5t5 48.5q2 27 3 48.5t5 43.5q4 47 9 97.5t11 103.5t12.5 103.5t10.5 99.5h65v-674h-41v418v31v34v43v54q0 -8 -1 -16.5t-3 -18.5q0 -10 -1 -17.5t-3 -15.5q0 -18 -1 -35.5t-3 -34.5q-4 -18 -5 -33.5t-3 -27.5 q-6 -92 -19 -191q-4 -51 -8 -98t-8 -92h-53l-39 375q0 14 -2 22v23q-2 12 -3 23.5t-3 19.5q-2 10 -2 19.5t-2 17.5q-2 10 -2.5 18t-2.5 19q-2 8 -2 18v20v-49v-21t2 -22v-34v-31v-418h-43v674zM1200 674h84q39 0 57 -17q23 -18 23 -55v-196q0 -25 -12 -37q-10 -14 -31 -21 q10 -2 18.5 -7t14.5 -11q14 -12 14 -45v-211q0 -41 -20 -56q-18 -18 -56 -18h-92v674zM1282 365q20 0 31 12q8 14 8 31v196q0 20 -8 29q-8 8 -33 8h-37v-276h39zM1243 330v-295h37q29 0 37 8q8 12 8 27v215q0 45 -43 45h-39zM1548 674h43l-78 -408v-266h-40v266 q-6 23 -10.5 47.5t-10.5 53.5q-4 25 -9 50t-11 54q-4 29 -9.5 54.5t-9.5 49.5q-6 29 -11 52.5t-9 46.5h45l55 -346z" />
<glyph unicode="&#xcb;" horiz-adv-x="4141" d="M1776 1485h84q37 0 59 -17q20 -18 20 -57v-197q0 -27 -10 -36q-10 -12 -31 -21q20 -4 33 -18q14 -18 15 -45v-211q0 -41 -23 -58q-23 -18 -53 -18h-94v678zM1858 1174q23 0 32 12q8 20 8 31v196q0 18 -8 31q-12 8 -32 8h-37v-278h37zM1821 1139v-299h37q25 0 34 12 q10 6 11 27v215q0 45 -45 45h-37zM2130 1004h-86q-4 -25 -5 -49.5t-5 -49.5l-13 -98h-36l73 678h60l75 -678h-41zM2126 1036q-4 29 -5 55.5t-5 55.5q-4 27 -6.5 53.5t-6.5 54.5q0 4 -1 9.5t-1 9.5q0 14 -2 20q-2 10 -2 18.5t-2 16.5q-2 10 -2 16.5t-2 16.5q0 6 -1 13t-3 18 v34q-2 -10 -3 -17t-1 -17t-1 -18.5t-1 -16.5q-2 -14 -3 -26.5t-1 -24.5q-2 -14 -3 -26.5t-3 -25.5q-4 -57 -13 -108q-4 -29 -5 -55.5t-5 -55.5h78zM2257 874q0 -12 10 -26q2 -10 31 -10q23 0 33 8q10 10 10 31v114q0 27 -6 45q-4 20 -15 43l-77 148q-6 10 -10.5 21.5 t-8.5 25.5q-6 25 -6 43v98q0 35 23 53q18 20 59 21q35 0 59 -14q18 -18 19 -50v-125h-39v121q0 35 -37 35q-20 0 -29 -12q-8 -8 -8 -25v-106q0 -14 2 -30.5t12 -33.5q10 -16 18.5 -34.5t18.5 -36.5t19.5 -37t19.5 -37q6 -12 11.5 -24.5t9.5 -24.5t5 -25.5t1 -28.5v-127 q0 -35 -17 -53q-18 -16 -65 -16q-45 0 -64 16q-18 25 -18 58v122h39v-127zM2429 1485h131v-33h-88v-278h84v-35h-84v-299h96v-33h-139v678zM2601 1485h84q41 0 63 -17q23 -18 23 -57v-528q0 -39 -23 -58q-23 -18 -63 -18h-84v678zM2679 840q47 0 47 39v534q0 39 -47 39h-35 v-612h35zM3101 879q0 -35 -21 -56q-18 -18 -63 -18q-43 0 -64 18q-20 20 -20 56v534q0 37 20 55q27 20 64 21q39 0 63 -21q20 -18 21 -55v-534zM3058 1413q0 20 -11 31q-12 12 -30 12t-31 -12q-10 -10 -10 -31v-534q0 -20 10 -31q10 -10 31 -10q20 0 30 10t11 31v534z M3158 1485h61l64 -434q4 -35 10 -76t15 -88q-2 29 -3.5 53.5t-1.5 46.5q-2 23 -2 39v29v430h43v-678h-63l-64 432q-2 12 -3 30.5t-5 41.5t-7 48t-5 52q0 -12 1 -24.5t1 -24.5v-47q0 -10 1 -18.5t1 -16.5v-20v-453h-43v678zM3535 1452h-66v33h174v-33h-67v-645h-41v645z M3664 1485h43v-311h82v311h45v-678h-45v332h-82v-332h-43v678zM3889 1485h135v-33h-90v-278h82v-35h-82v-299h96v-33h-141v678zM0 606q0 33 23 56q20 18 59 18q37 0 59 -18q18 -18 19 -56v-112h-43v106q0 20 -6 33q-8 14 -29 14q-18 0 -29 -10q-10 -10 -10 -29v-538 q0 -16 10 -31q8 -8 29 -8q23 0 29 10q6 12 6 35v119h43v-125q0 -37 -19 -54q-25 -20 -59 -20q-35 0 -59 20q-23 18 -23 54v536zM207 678h43v-313h82v313h41v-678h-41v332h-82v-332h-43v678zM557 197h-86q-2 -23 -4 -47.5t-6 -51.5q-4 -25 -6 -49t-2 -49h-41l75 678h58 l78 -678h-43zM555 231q-4 27 -6 53.5t-6 53.5q-4 29 -6 55.5t-5 52.5q-2 8 -2 21q-2 4 -2 9t-2 9q0 16 -4 37q0 10 -4 31q0 6 -1 14t-1 17q0 8 -1 17t-1 20q-2 -10 -2 -18.5v-16.5q-2 -10 -2 -19.5t-2 -17.5q-2 -14 -2 -26.5t-2 -24.5t-3 -24.5t-1 -27.5q-4 -25 -6 -52 t-7 -56q-4 -29 -6 -54.5t-6 -52.5h80zM662 678h83q39 0 58 -16q23 -16 22 -50v-198q0 -27 -8 -41q-10 -18 -37 -25q20 -6 31 -20q14 -16 14 -43v-285h-43v285q0 18 -10 32q-12 14 -37 15h-33v-332h-40v678zM737 365q45 0 45 43v198q0 37 -41 37h-39v-278h35zM1012 197h-86 q-2 -23 -4 -47.5t-7 -51.5q-4 -25 -5 -49t-5 -49h-39l76 678h57l78 -678h-43zM1010 231q-2 27 -5.5 53.5t-7.5 53.5q-4 29 -5 55.5t-5 52.5q-2 8 -2 21q-2 4 -2 9t-2 9q0 16 -4 37q-2 10 -2 31q0 6 -1 14t-1 17q-4 20 -4 37q-2 -10 -2 -18.5t-2 -16.5v-19.5t-2 -17.5 q-2 -14 -2 -26.5t-3 -24.5q0 -12 -1 -24.5t-3 -27.5q-4 -25 -6 -52t-6 -56t-6 -54.5t-6 -52.5h80zM1102 606q0 35 20 56q25 18 62 18q39 0 57 -18q20 -25 21 -56v-112h-43v106q0 20 -7 33q-10 14 -28 14t-29 -10q-10 -10 -10 -29v-538q0 -16 10 -31q8 -8 29 -8q18 0 28 10 q6 12 7 35v119h43v-125q0 -33 -21 -54q-20 -20 -57 -20q-35 0 -62 20q-20 18 -20 54v536zM1335 643h-65v35h174v-35h-66v-643h-43v643zM1464 678h133v-35h-90v-278h84v-33h-84v-297h97v-35h-140v678zM1638 678h86q37 0 56 -16q23 -16 22 -50v-198q0 -27 -8 -41 q-6 -16 -35 -25q10 -4 16.5 -9t14.5 -11q12 -18 12 -43v-285h-43v285q0 23 -10 32q-8 14 -37 15h-33v-332h-41v678zM1714 365q45 0 45 43v198q0 37 -41 37h-39v-278h35zM1890 68q0 -18 6 -27q10 -10 33 -10t33 6q4 6 7 13t3 20v114q0 12 -1 23.5t-3 21.5q-4 10 -8 19.5 t-8 21.5l-78 148q-14 23 -16 47q-8 23 -9 45v98q0 35 23 54q20 18 59 18q41 0 58 -14q20 -14 20 -50v-122h-39v118q0 35 -37 35q-18 0 -28 -10q-10 -14 -11 -27v-102q0 -29 15 -64q10 -20 19 -37.5t20 -35.5q10 -18 19 -37t20 -37q6 -10 11 -22.5t9 -24.5q4 -14 6 -26.5 t2 -28.5v-127q0 -33 -18 -52q-20 -20 -64 -20q-45 0 -65 20q-18 23 -19 54v123h41v-125zM2152 606q0 33 19 56q20 18 63 18q39 0 58 -18q20 -25 20 -56v-112h-45v106q0 10 -1 18.5t-5 14.5q-8 14 -27 14q-16 0 -30 -10q-10 -10 -11 -29v-538q0 -16 11 -31q10 -8 30 -8t27 10 q6 8 6 35v119h45v-125q0 -33 -20 -54q-20 -20 -58 -20q-39 0 -63 20q-18 18 -19 54v536zM2355 678h86q39 0 58 -16q23 -16 22 -50v-198q0 -29 -10 -41q-6 -18 -35 -25q10 -4 17.5 -9t15.5 -11q12 -18 12 -43v-285h-43v285q0 18 -10 32q-8 14 -37 15h-33v-332h-43v678z M2431 365q47 0 47 43v198q0 37 -43 37h-37v-278h33zM2580 678h136v-35h-90v-278h84v-33h-84v-297h96v-35h-142v678zM2882 197h-86q-4 -23 -5.5 -47.5t-5.5 -51.5l-12 -98h-37l76 678h57l78 -678h-43zM2879 231q-4 27 -6 53.5t-6 53.5q-4 29 -6 55.5t-6 52.5q0 14 -2 21 q0 12 -2 18q-2 10 -2 19.5t-2 17.5t-2 15.5t-2 15.5q0 10 -4 31v37q-2 -10 -2.5 -18.5t-2.5 -16.5v-19.5t-2 -17.5q-2 -14 -3 -26.5t-1 -24.5q-2 -12 -3 -24.5t-3 -27.5q-2 -25 -4 -52t-6 -56t-6 -54.5t-6 -52.5h79zM3013 643h-66v35h174v-35h-67v-643h-41v643zM3142 678 h133v-35h-90v-278h84v-33h-84v-297h96v-35h-139v678zM3314 678h84q41 0 63 -19q23 -16 23 -55v-530q0 -39 -23 -56q-23 -18 -63 -18h-84v678zM3396 35q45 0 45 35v538q0 35 -45 35h-37v-608h37zM3645 678h84q35 0 58 -19q23 -14 22 -55v-196q0 -25 -12 -39q-12 -12 -31 -19 q10 -2 18.5 -7t16.5 -11q14 -18 14 -45v-213q0 -39 -22 -56q-23 -18 -55 -18h-93v678zM3725 365q27 0 33 16q8 10 8 29v196q0 20 -8 29q-6 8 -35 8h-35v-278h37zM3688 332v-297h35q29 0 39 8q8 8 8 27v215q0 47 -43 47h-39zM3996 678h43l-78 -412v-266h-43v266 q-4 25 -9.5 49.5t-9.5 51.5q-6 27 -11 53t-9 53q-6 29 -11 53.5t-10 51.5q-4 29 -10 53t-10 47h45l57 -348z" />
<glyph unicode="&#xcc;" horiz-adv-x="1796" d="M66 1452h-66v33h174v-33h-65v-645h-43v645zM195 1485h135v-33h-92v-278h84v-35h-84v-299h96v-33h-139v678zM354 1413q0 37 23 55q25 20 59 21q35 0 60 -21q18 -16 18 -55v-113h-43v109q0 16 -6 33q-8 14 -29 14q-20 0 -28 -12q-10 -10 -11 -27v-543q0 -16 11 -26 q8 -10 28 -10q23 0 29 10q6 12 6 37v116h43v-122q0 -37 -18 -56q-18 -18 -60 -18q-41 0 -59 18q-23 23 -23 56v534zM561 1485h41v-311h84v311h41v-678h-41v332h-84v-332h-41v678zM786 1485h62l61 -434q4 -35 10.5 -76t16.5 -88q-2 29 -3 53.5t-3 46.5q0 23 -1 39t-1 29v430 h43v-678h-62l-65 432q-2 12 -3 30.5t-5 41.5t-6.5 48t-6.5 52v-24.5t2 -24.5v-24.5t2 -22.5v-35q2 -6 2 -11v-9v-453h-43v678zM1032 1485h41v-678h-41v678zM1118 1413q0 37 23 55q25 20 61 21q35 0 60 -21q18 -18 18 -55v-113h-43v109q0 16 -6 33q-10 14 -29 14 q-16 0 -28 -12q-10 -8 -11 -27v-543q0 -18 11 -26q10 -10 28 -10q20 0 29 10q6 12 6 37v116h43v-122q0 -35 -18 -56q-18 -18 -60 -18q-43 0 -61 18q-23 23 -23 56v534zM1452 1004h-88q-2 -25 -4 -49.5t-6 -49.5t-5 -49.5t-3 -48.5h-39l73 678h58l78 -678h-43zM1448 1036 q-4 29 -5 55.5t-5 55.5q-8 51 -13 108q-2 6 -2 19q0 4 -1 10t-1 10q-2 10 -3 18.5t-3 16.5q0 10 -1 16.5t-1 16.5q-2 8 -2 31q-2 8 -2 16t-2 18q0 -10 -1 -17t-1 -17q-2 -10 -2 -18.5t-2 -16.5q0 -14 -1 -26.5t-3 -24.5q-2 -14 -2 -26.5v-25.5q-4 -29 -7.5 -55t-7.5 -53 l-12 -111h80zM1554 1485h43v-645h97v-33h-140v678zM455 197h-88q-2 -23 -3.5 -47.5t-5.5 -51.5q-4 -25 -6 -49t-4 -49h-39l74 678h59l76 -678h-41zM451 231q-4 27 -5.5 53.5t-5.5 53.5q-4 29 -7 55.5t-5 52.5q0 6 -1 11.5t-1 9.5t-1 9t-1 9q-2 10 -3 19.5t-1 17.5 q-4 20 -4 31q-2 6 -2 14v17q-2 8 -2 17v20q-2 -10 -3 -18.5t-1 -16.5q0 -10 -1 -19.5t-1 -17.5q-2 -14 -3.5 -26.5t-3.5 -24.5q0 -12 -1 -24.5t-1 -27.5q-4 -25 -7 -52t-7 -56q-2 -53 -12 -107h80zM557 678h82q43 0 66 -19q20 -14 20 -55v-530q0 -41 -20 -56 q-23 -18 -66 -18h-82v678zM635 35q47 0 47 35v538q0 35 -47 35h-35v-608h35zM750 678h41l47 -445q2 -16 2 -31.5t2 -31.5q2 -14 2 -27.5t2 -29.5t3 -30.5t3 -29.5q2 12 3 23.5t1 21.5v21.5t2 21.5q0 10 1 21.5t1 21.5q2 12 2 24.5t2 24.5l43 445h43l-73 -678h-54zM977 678 h43v-678h-43v678zM1104 68q0 -16 8 -27q6 -10 33 -10q20 0 33 6q4 6 7 13t3 20v114q0 27 -6 45q-4 18 -15 41l-77 148q-4 10 -9.5 22.5t-9.5 24.5q-2 12 -3 23.5t-1 21.5v98q0 35 18 54q20 18 62 18q41 0 57 -14q20 -14 21 -50v-122h-39v118q0 35 -37 35q-18 0 -29 -10 q-8 -10 -8 -27v-102q0 -35 14 -64q10 -20 19.5 -37.5t19.5 -35.5l37 -74q6 -10 11.5 -22.5t9.5 -24.5q8 -25 8 -55v-127q0 -33 -19 -52q-25 -20 -63 -20q-25 0 -40 5t-26 15q-16 16 -16 54v123h37v-125zM1444 70q0 -33 -21 -54q-25 -20 -63 -20q-23 0 -37 5t-27 15 q-20 18 -20 54v536q0 35 20 56q25 18 64 18q41 0 63 -18q20 -25 21 -56v-536zM1401 606q0 16 -10 31q-16 10 -31 10q-16 0 -31 -10q-10 -14 -10 -31v-534q0 -18 10 -33q6 -4 13.5 -6t17.5 -2t16 2t15 6q10 14 10 33v534zM1501 678h86q39 0 58 -16q23 -16 22 -50v-198 q0 -25 -10 -41q-6 -18 -35 -25q10 -4 17.5 -9t15.5 -11q4 -10 8 -19.5t4 -23.5v-285h-43v285q0 20 -12 32q-8 14 -37 15h-31v-332h-43v678zM1577 365q47 0 47 43v198q0 37 -43 37h-37v-278h33z" />
<glyph unicode="&#xcd;" horiz-adv-x="2058" d="M326 1452h-66v33h176v-33h-65v-645h-45v645zM455 1485h135v-33h-90v-278h84v-35h-84v-299h96v-33h-141v678zM616 1413q0 37 21 55q25 20 61 21q37 0 58 -21q20 -20 20 -55v-113h-45v109q0 10 -1 17.5t-5 15.5q-8 14 -27 14q-18 0 -30 -12q-8 -12 -9 -27v-543q0 -14 9 -26 q10 -10 30 -10t27 10q6 8 6 37v116h45v-122q0 -18 -5 -31.5t-15 -24.5q-16 -18 -58 -18q-43 0 -61 18q-20 20 -21 56v534zM821 1485h41v-311h84v311h43v-678h-43v332h-84v-332h-41v678zM1047 1485h61l63 -434q4 -35 10.5 -76t14.5 -88q-2 29 -3 53.5t-3 46.5q-2 23 -2 39v29 v430h45v-678h-62l-65 432q-2 12 -4 30.5t-6 41.5t-6.5 48t-6.5 52q2 -12 2 -24.5t2 -24.5v-24.5t3 -22.5v-35v-20v-453h-43v678zM1292 1485h43v-678h-43v678zM1380 1413q0 37 21 55q12 10 26.5 15.5t36.5 5.5q33 0 58 -21q18 -18 18 -55v-113h-41v109q0 18 -8 33 q-10 14 -27 14q-18 0 -30 -12q-10 -10 -11 -27v-543q0 -16 11 -26q10 -10 30 -10q18 0 27 10q8 10 8 37v116h41v-122q0 -35 -18 -56q-18 -18 -58 -18q-43 0 -63 18q-20 20 -21 56v534zM1712 1004h-86l-12 -99q-2 -25 -4 -49.5t-4 -48.5h-39l75 678h56l80 -678h-45z M1710 1036q-4 29 -7 55.5t-7 55.5q-2 27 -4 53.5t-6 54.5q-2 6 -3 19q0 8 -4 20q0 25 -2 35q0 10 -1 16.5t-1 16.5q-4 16 -4 31q-2 8 -2 16t-2 18q0 -10 -1 -17t-1 -17q-2 -10 -2 -18.5v-16.5q-2 -14 -2 -26.5t-2 -24.5q-2 -14 -2 -26.5t-2 -25.5q-4 -29 -6 -55t-7 -53 q-10 -55 -12 -111h80zM1815 1485h45v-645h96v-33h-141v678zM39 68q0 -10 8 -27q10 -10 33 -10q25 0 31 6q12 12 12 33v114q0 27 -6 45q-2 10 -6.5 19.5t-8.5 21.5l-77 148q-14 23 -17 47q-8 23 -8 45v98q0 35 23 54q20 18 57 18q41 0 61 -14q18 -16 19 -50v-122h-39v118 q0 35 -37 35q-18 0 -29 -10q-10 -14 -10 -27v-102q0 -29 14 -64q10 -20 19.5 -37.5t19.5 -35.5t19.5 -37t19.5 -37q6 -10 11.5 -22.5t9.5 -24.5q4 -14 6 -26.5t2 -28.5v-127q0 -31 -21 -52q-16 -20 -63 -20q-43 0 -64 20q-18 18 -18 54v123h39v-125zM379 678v-608 q0 -35 -23 -54q-25 -20 -61 -20q-39 0 -64 20q-23 18 -22 54v608h45v-606q0 -23 10 -33q16 -8 31 -8q16 0 29 8q12 12 12 33v606h43zM436 678h86q78 0 78 -68v-217q0 -33 -18 -49q-25 -20 -60 -20h-43v-324h-43v678zM518 358q12 0 29 9q10 10 10 28v211q0 18 -10 29 q-10 8 -29 8h-39v-285h39zM645 678h133v-35h-92v-278h86v-33h-86v-297h98v-35h-139v678zM817 678h86q39 0 58 -16q23 -16 22 -50v-198q0 -20 -8 -41q-10 -18 -37 -25q10 -4 17.5 -9t15.5 -11q4 -10 8 -19.5t4 -23.5v-285h-43v285q0 20 -12 32q-8 14 -35 15h-31v-332h-45v678 zM895 365q45 0 45 43v198q0 37 -43 37h-35v-278h33zM1010 678h43l45 -445q2 -16 3 -31.5t3 -31.5q2 -14 2 -27.5v-29.5q2 -16 3 -30.5t3 -29.5q2 12 2 23.5t2 21.5t2 21.5t2 21.5q0 10 1 21.5t1 21.5v24.5t2 24.5l45 445h41l-71 -678h-56zM1237 678h43v-678h-43v678z M1366 68q0 -14 6 -27q10 -10 33 -10t33 6q12 12 12 33v114q0 27 -6 45q-4 10 -7 19.5t-7 21.5l-78 148q-12 20 -19 47q-4 12 -6 23.5t-2 21.5v98q0 35 23 54q20 18 59 18t59 -14q18 -12 19 -50v-122h-37v118q0 35 -39 35q-20 0 -27 -10q-10 -10 -10 -27v-102q0 -35 14 -64 q10 -20 19.5 -37.5t19.5 -35.5t19.5 -37t19.5 -37q4 -10 9.5 -22.5t9.5 -24.5q8 -25 8 -55v-127q0 -33 -18 -52q-20 -20 -64 -20q-43 0 -63 20t-21 54v123h41v-125zM1704 70q0 -33 -21 -54q-25 -20 -63 -20q-37 0 -61 20q-23 18 -23 54v536q0 33 23 56q20 18 61 18t63 -18 q20 -25 21 -56v-536zM1663 606q0 18 -14 31q-10 10 -29 10q-18 0 -29 -10q-12 -12 -12 -31v-534q0 -20 12 -33q12 -8 29 -8q16 0 29 8q14 12 14 33v534zM1761 678h86q41 0 60 -16q20 -14 20 -50v-198q0 -27 -8 -41q-10 -18 -37 -25q18 -6 33 -20q12 -18 12 -43v-285h-43v285 q0 18 -10 32q-12 14 -37 15h-31v-332h-45v678zM1839 365q45 0 45 43v198q0 37 -41 37h-37v-278h33z" />
<glyph unicode="&#xce;" horiz-adv-x="2729" d="M625 999h-86q-2 -25 -4.5 -49t-4.5 -49q-4 -27 -6 -50.5t-6 -47.5h-37l74 674h57l78 -674h-43zM623 1032q-4 29 -6.5 54.5t-6.5 54.5q-4 27 -6 53.5t-4 54.5q-2 4 -2 19q0 4 -1 9t-1 11q-2 10 -3 18.5t-3 14.5q0 10 -1 17.5t-1 15.5q-2 8 -2 14t-2 16t-2 37q0 -10 -1 -18 t-1 -19q-2 -10 -2 -17t-3 -17q0 -14 -1 -26.5t-3 -25.5q0 -12 -1 -24t-3 -25q-2 -29 -5 -54.5t-7 -53.5q-4 -29 -6 -54.5t-6 -54.5h80zM752 870q0 -18 8 -26q8 -12 33 -13q23 0 32 11q10 10 11 30v113q0 14 -1 25.5t-4 21.5q-4 8 -8 18.5t-8 20.5l-78 150q-4 10 -9 21t-9 26 q-2 12 -3 22t-1 21v96q0 35 20 53q25 20 60 21q35 0 57 -15q20 -14 20 -49v-123h-38v119q0 35 -37 35q-18 0 -29 -10q-8 -10 -8 -27v-104q0 -33 14 -64q10 -16 19.5 -34.5t19.5 -37.5q10 -18 18.5 -36.5t18.5 -36.5q6 -10 11 -22.5t9 -24.5t6.5 -25.5t2.5 -28.5v-127 q0 -29 -21 -53q-16 -18 -61 -18t-64 18q-18 18 -18 55v123h37v-125zM948 870q0 -18 6 -26q8 -12 33 -13q23 0 33 11q10 10 10 30v113q0 25 -6 47q-4 20 -14 39l-76 150q-12 23 -19 47q-4 12 -6 22t-2 21v96q0 35 23 53q25 20 57 21q23 0 37 -4t25 -11q18 -16 18 -49v-123 h-39v119q0 35 -37 35q-14 0 -28 -10q-8 -10 -9 -27v-104q0 -33 17 -64q8 -16 16 -34.5t19 -37.5q10 -18 19 -36.5t19 -36.5q8 -10 12.5 -22.5t8.5 -24.5q8 -23 8 -54v-127q0 -33 -18 -53q-10 -10 -25.5 -14t-40.5 -4q-43 0 -61 18q-10 10 -15.5 23.5t-5.5 31.5v123h41v-125z M1120 1477h43v-674h-43v674zM1247 870q0 -18 8 -26q6 -12 33 -13q20 0 31 11q10 10 10 30v113q0 14 -1 25.5t-3 21.5q-4 16 -16 39l-76 150q-12 23 -19 47q-6 25 -6 43v96q0 35 21 53q25 20 59 21q35 0 60 -15q18 -16 18 -49v-123h-39v119q0 35 -35 35q-16 0 -30 -10 q-8 -16 -9 -27v-104q0 -33 15 -64q10 -16 19 -34.5t20 -37.5l36 -73q14 -18 21 -47q8 -23 8 -54v-127q0 -33 -18 -53q-18 -18 -64 -18q-45 0 -63 18q-18 20 -19 55v123h39v-125zM1444 1444h-66v33h176v-33h-67v-641h-43v641zM1698 999h-86q0 -25 -2 -49t-6 -49 q-4 -27 -6.5 -50.5t-4.5 -47.5h-39l76 674h56l79 -674h-45zM1698 1032q-4 29 -7 54.5t-8 54.5q-4 27 -5 53.5t-5 54.5q-2 4 -2 19q0 4 -4 20q0 16 -4 33v33q-2 8 -2 14t-2 16q-2 8 -2 16.5t-2 20.5q0 -10 -1 -18t-1 -19q-2 -10 -2 -17t-2 -17q0 -14 -1 -26.5t-1 -25.5 q0 -12 -1 -24t-4 -25q-4 -29 -7 -54.5t-5 -53.5q-4 -29 -7 -54.5t-7 -54.5h82zM1800 1477h64l61 -435q8 -66 25 -159q-2 29 -3 53.5t-1 46.5q-2 23 -2 39v29v426h41v-674h-60l-65 430q-2 12 -4.5 29.5t-6.5 42.5q-2 23 -4 47t-6 53v-26.5t2 -24.5v-23.5t2 -21.5v-35 q2 -6 2 -11.5v-9.5v-450h-45v674zM2071 1444h-66v33h174v-33h-65v-641h-43v641zM2333 1444h-66v33h172v-33h-65v-641h-41v641zM2628 874q0 -37 -21 -55q-25 -20 -63 -20q-37 0 -62 20q-23 18 -22 55v531q0 37 22 55q25 20 62 21q39 0 63 -21q20 -18 21 -55v-531zM2587 1405 q0 20 -13 33q-14 10 -30 10q-14 0 -29 -10q-10 -10 -10 -33v-531q0 -23 10 -30q12 -12 29 -13q18 0 30 13q12 8 13 30v531zM0 602q0 37 23 55q25 20 59 21q35 0 59 -21q18 -18 19 -55v-110h-43v104q0 20 -6 33q-6 16 -29 16q-20 0 -27 -12q-12 -10 -12 -27v-538 q0 -16 12 -29q6 -10 27 -10q23 0 29 10q6 12 6 37v117h43v-121q0 -37 -19 -56q-25 -20 -59 -20q-35 0 -59 20q-23 18 -23 56v530zM205 674h43v-312h82v312h43v-674h-43v330h-82v-330h-43v674zM432 674h43v-674h-43v674zM535 674h133v-33h-90v-279h84v-32h-84v-297h96v-33 h-139v674zM707 674h133v-33h-88v-279h84v-32h-84v-330h-45v674zM1092 195h-86q0 -23 -2.5 -47.5t-6.5 -49.5q-4 -27 -6 -50t-4 -48h-39l74 674h57l78 -674h-43zM1090 227q-4 55 -13 111q-4 27 -5 53.5t-5 52.5q-2 4 -2 9.5v9.5q0 8 -4 20q0 16 -4 37q0 6 -1 14.5t-1 14.5 q0 20 -2 31q-2 10 -2 18t-2 18q0 -8 -1 -16t-1 -18q-2 -10 -2.5 -18.5t-2.5 -18.5q0 -12 -1 -25.5t-3 -25.5v-24.5t-2 -25.5q-4 -27 -7 -52t-7 -54q-2 -29 -5 -55.5t-7 -55.5h80zM1194 674h63l62 -432q4 -35 10 -76t12 -88q0 29 -1 53.5t-1 46.5q-2 23 -2 39v29v428h41v-674 h-59l-66 428q-2 12 -4 30.5t-6 41.5q-2 23 -4 48t-6 52v-26.5t2 -24.5v-22.5t2 -20.5v-35q2 -10 2 -22v-449h-45v674zM1440 674h41v-674h-41v674zM1544 674h68l39 -406q2 -12 3 -24.5t3 -22.5q0 -10 1 -21.5t3 -21.5t2 -21.5v-23.5q0 -10 1 -23.5t1 -29.5q2 23 4 47.5 t4 50.5q2 27 4 48.5t4 41.5q4 49 10.5 99.5t10.5 103.5q6 53 11 103.5t11 99.5h66v-674h-43v418v31q2 10 2 17v17v43v54q-2 -10 -2 -17.5v-17.5q-2 -10 -2 -17.5t-2 -17.5q-2 -16 -4 -34.5t-4 -35.5q-2 -16 -3 -31.5t-1 -29.5q-4 -45 -9.5 -92t-9.5 -97q-12 -102 -18 -190 h-54l-36 377q-2 4 -2 18q-2 6 -2.5 11.5t-2.5 13.5q-2 12 -2 22.5t-2 20.5q0 16 -4 37q0 14 -4 35q0 10 -1 20t-3 20q2 -12 2 -24v-23q0 -14 1 -24t1 -21q0 -10 1 -18t1 -19v-28v-418h-43v674zM1978 195h-86q-4 -23 -6 -47.5t-4 -49.5q-4 -27 -6 -50t-6 -48h-37l74 674h57 l78 -674h-43zM1974 227q-4 29 -5 55.5t-5 55.5q-4 27 -7 53.5t-7 52.5v19q0 6 -1 11t-1 9q-2 10 -3 19.5t-1 17.5q-4 16 -5 29q-2 10 -2 16t-2 15q-2 10 -2 18v18q0 -8 -1 -16t-1 -18t-1 -18.5t-3 -18.5q0 -12 -1 -25.5t-3 -25.5q0 -12 -1 -24.5t-3 -25.5q-2 -51 -12 -106 q-4 -29 -5 -55.5t-6 -55.5h78zM2107 641h-65v33h174v-33h-66v-641h-43v641zM2404 72q0 -37 -22 -56q-25 -20 -62 -20q-39 0 -63 20q-20 18 -21 56v530q0 37 21 55q25 20 63 21q37 0 62 -21q23 -18 22 -55v-530zM2361 602q0 18 -12 31q-12 12 -29 12q-18 0 -30 -12 q-10 -10 -11 -31v-530q0 -18 11 -33q14 -10 30 -10q14 0 29 10q12 16 12 33v530zM2460 674h86q33 0 57 -15q23 -18 23 -49v-198q0 -27 -9 -41q-8 -16 -37 -27q23 -4 31 -18q14 -14 15 -41v-285h-43v285q0 16 -11 30q-12 14 -37 15h-30v-330h-45v674zM2537 362q45 0 46 41 v199q0 39 -41 39h-37v-279h32z" />
<glyph unicode="&#xcf;" horiz-adv-x="3018" d="M0 1405q0 37 20 55q10 10 24.5 15.5t37.5 5.5q33 0 57 -21q18 -18 19 -55v-113h-43v109q0 16 -6 33q-8 14 -27 14q-23 0 -29 -10q-12 -12 -12 -29v-539q0 -20 12 -26q6 -12 29 -13q20 0 27 13q6 8 6 37v116h43v-123q0 -37 -19 -55q-25 -20 -57 -20q-23 0 -37 5t-25 15 q-20 18 -20 55v531zM207 1477h41v-674h-41v674zM307 1477h62l61 -435q6 -33 11 -72.5t16 -86.5q-2 29 -3 53.5t-3 46.5q0 23 -1 39t-1 29v426h45v-674h-64l-63 430q-4 20 -9 72q-4 23 -7 47t-7 53q0 -14 1 -26.5t1 -24.5t1 -23.5t1 -21.5t1 -18.5t1 -16.5v-21v-450h-43v674z M549 1477h133v-33h-90v-277h84v-32h-84v-299h96v-33h-139v674zM725 1477h66l40 -406q0 -12 1.5 -24.5t3.5 -22.5t3 -20.5t3 -20.5q0 -12 1 -23.5t1 -23.5q2 -10 2 -23.5t2 -29.5q0 47 6 100q2 25 4 47.5t4 40.5q4 49 10.5 99.5t10.5 103.5q6 53 12 103t10 100h66v-674h-41 v418v32v35v19.5t2 21.5v53q-4 -20 -4 -34q-4 -20 -4 -33q-4 -18 -5 -35.5t-4 -36.5q0 -16 -1 -31.5t-3 -27.5q-4 -47 -9 -94.5t-11 -96.5q-4 -51 -9 -97t-10 -93h-51l-39 377q0 12 -2 20v23q-2 12 -3 23t-3 22q-2 10 -2 18t-2 19q-2 8 -2 15t-2 17t-2 20.5v20.5v-47v-22.5 t2 -20.5v-37v-30v-418h-41v674zM1157 999h-86q-2 -25 -3 -49t-5 -49q-4 -27 -6 -50.5t-6 -47.5h-37l73 674h58l76 -674h-41zM1155 1032q-4 29 -6 54.5t-6 54.5q-4 27 -6 53.5t-4 54.5q-2 4 -3 19q0 4 -4 20q0 16 -4 33q0 10 -1 17.5t-1 15.5q-2 10 -2 30q-2 8 -2 16.5 t-2 20.5q0 -10 -1 -18t-1 -19q-2 -10 -2 -17t-2 -17q-2 -14 -2 -26.5t-2 -25.5q-2 -12 -2 -24v-25q-4 -29 -7 -54.5t-8 -53.5q-4 -29 -6 -54.5t-6 -54.5h80zM1288 1444h-67v33h176v-33h-66v-641h-43v641zM1585 874q0 -37 -22 -55q-25 -20 -62 -20q-23 0 -37 5t-24 15 q-23 16 -23 55v531q0 39 23 55q10 10 24.5 15.5t36.5 5.5q37 0 62 -21q23 -18 22 -55v-531zM1540 1405q0 23 -10 33t-29 10q-18 0 -28 -10q-14 -12 -15 -33v-531q0 -23 15 -30q8 -12 28 -13q18 0 29 13q10 8 10 30v531zM1729 1130h81v-309l-10 -6q-8 -6 -28 -12 q-10 -2 -21.5 -3t-24.5 -1q-39 0 -63 20q-20 18 -21 55v531q0 37 21 55q25 20 63 21q37 0 62 -21q23 -18 22 -55v-111h-45v109q0 16 -10 33q-16 12 -29 12q-10 0 -16 -4t-14 -8q-10 -16 -10 -33v-533q0 -20 10 -26q14 -12 30 -13q10 0 23 5q12 4 16 8v254h-36v32zM1866 1477 h86q39 0 57 -17q20 -12 21 -47v-199q0 -10 -1 -20t-6 -20q-10 -18 -36 -25q14 -6 30 -21q12 -12 13 -43v-282h-41v284q0 16 -11 31q-12 16 -36 17h-31v-332h-45v674zM1944 1167q45 0 45 39v199q0 39 -43 39h-35v-277h33zM2216 999h-84l-12 -98q-4 -27 -5 -50.5t-4 -47.5h-38 l75 674h56l77 -674h-43zM2216 1032q-4 29 -7 54.5t-7 54.5q-2 27 -4.5 53.5t-6.5 54.5q-2 4 -2 9.5t-2 9.5q0 12 -2 20q-2 10 -2 18.5t-2 14.5q0 23 -2 33q0 8 -1 14t-1 16q-2 8 -3 16.5t-1 20.5q-2 -10 -2 -18t-2 -19v-17t-2 -17q-2 -14 -2 -26.5v-25.5l-6 -49 q-4 -29 -6.5 -54.5t-4.5 -53.5q-4 -29 -7 -54.5t-7 -54.5h82zM2318 1477h86q80 0 80 -66v-219q0 -27 -20 -47q-18 -18 -60 -19h-43v-323h-43v674zM2400 1159q14 0 29 10q10 6 10 27v209q0 16 -10 31q-6 4 -12.5 6t-16.5 2h-39v-285h39zM2525 1477h45v-310h82v310h41v-674 h-41v332h-82v-332h-45v674zM2873 1477h43l-77 -408v-266h-43v266q-4 23 -8.5 47.5t-10.5 52.5q-4 27 -9 51.5t-11 53.5q-4 27 -9.5 52.5t-9.5 51.5q-6 27 -11 51.5t-9 47.5h43l59 -347zM2525 674h84q35 0 57 -17q23 -18 23 -57v-194q0 -25 -12 -39q-12 -12 -31 -19 q10 -4 18.5 -7t14.5 -13q14 -12 14 -43v-211q0 -41 -22 -56q-16 -18 -52 -18h-94v674zM2605 362q27 0 33 15q4 8 6 14t2 17v194q0 20 -8 29q-10 10 -35 10h-33v-279h35zM2570 330v-297h33q27 0 37 10q12 8 12 29v213q0 45 -47 45h-35zM2873 674h43l-77 -408v-266h-43v266 q-4 23 -8.5 47.5t-10.5 51.5q-4 27 -9 52t-11 54q-4 27 -9.5 52.5t-9.5 54.5q-6 27 -11 50t-9 46h43l59 -346z" />
<glyph unicode="&#xd0;" horiz-adv-x="229" d="M0 741q0 39 29 64q27 25 73 24q25 0 41.5 -6t32.5 -18q12 -12 16.5 -28.5t4.5 -35.5v-139h-52v131q0 23 -10 39q-6 16 -33 16t-34 -12q-10 -16 -11 -33v-661q0 -16 11 -33q8 -12 34 -12q27 0 33 14q4 8 7 16.5t3 24.5v146h52v-152q0 -20 -4.5 -36.5t-16.5 -29.5 q-16 -10 -32.5 -17t-41.5 -7t-42 7t-31 17q-29 25 -29 66v655z" />
<glyph unicode="&#xd1;" horiz-adv-x="509" d="M178 238h-108q0 -29 -3.5 -57.5t-7.5 -59.5t-6 -60.5t-4 -60.5h-49l90 825h70l96 -825h-51zM174 279q-4 37 -7 69.5t-7 63.5q-4 35 -8.5 67.5t-6.5 67.5q-2 4 -2 10v12t-2 12.5t-2 10.5q-2 14 -3 24.5t-3 20.5q0 10 -1 18.5t-1 18.5q-4 8 -4 18v21q-2 10 -2 21t-2 24 q0 -10 -1 -22.5t-1 -22.5q-4 -10 -4 -21.5t-2 -21.5q0 -16 -1 -31.5t-3 -30.5v-30.5t-5 -30.5q-4 -35 -8 -68t-8 -67l-8 -66t-8 -67h100zM283 741q0 39 28 64q27 25 74 24q25 0 41 -6t33 -18q12 -12 16 -28.5t4 -35.5v-139h-51v131q0 23 -10 39q-6 16 -33 16t-35 -12 q-10 -16 -10 -33v-661q0 -16 10 -33q8 -12 35 -12t33 14q4 8 7 16.5t3 24.5v146h51v-152q0 -20 -4 -36.5t-16 -29.5q-16 -10 -32.5 -17t-41.5 -7t-42 7t-32 17q-29 25 -28 66v655z" />
<glyph unicode="&#xd2;" horiz-adv-x="3659" d="M0 1475h82q39 0 57 -17q23 -14 23 -55v-197q0 -25 -12 -39q-4 -4 -12.5 -9t-18.5 -7q10 -4 19 -8t16 -10q12 -18 12 -48v-208q0 -43 -21 -58q-10 -8 -23 -13t-30 -5h-92v674zM78 1165q27 0 35 15q6 12 6 28v197q0 18 -6 29q-8 8 -35 8h-35v-277h35zM43 1133v-297h35 q29 0 35 10q12 6 12 26v213q0 47 -47 48h-35zM348 997h-84q-2 -25 -4 -49t-6 -49t-5 -49.5t-5 -48.5h-39l76 674h55l80 -674h-45zM348 1030q-4 29 -6 54.5t-6 54.5q-4 27 -6 53.5t-6 54.5q-2 6 -2 21q0 4 -1.5 9t-1.5 9q-2 10 -3 18.5t-1 16.5t-1 15t-1 16q-2 8 -2 14t-2 16 q-2 8 -2 17.5t-2 19.5q0 -10 -1 -18t-1 -17q0 -10 -1 -18t-3 -18q0 -12 -1 -24.5t-1 -27.5q0 -12 -1 -24t-3 -25q-4 -27 -7 -53.5t-5 -54.5q-4 -29 -7.5 -54.5t-7.5 -54.5h82zM477 868q0 -16 6 -24q8 -14 35 -15q18 0 33 11q8 12 8 30v115q0 12 -1 23.5t-3 21.5 q-4 10 -7 19.5t-7 21.5l-78 148q-6 10 -10 21t-9 26q-6 25 -6 43v98q0 35 23 53q18 18 57 19q37 0 60 -15q20 -16 20 -49v-123h-41v119q0 35 -37 35q-16 0 -26 -10t-11 -27v-104q0 -33 17 -64q10 -16 18 -34.5t19 -37.5q10 -18 19 -36.5t17 -34.5q8 -12 12.5 -24.5 t8.5 -24.5q8 -23 8 -54v-127q0 -31 -16 -51q-25 -20 -66 -20q-43 0 -63 20q-18 18 -19 55v121h39v-125zM647 1475h133v-33h-90v-277h84v-32h-84v-297h96v-35h-139v674zM821 1475h80q45 0 64 -17q23 -16 22 -55v-526q0 -41 -22 -58q-10 -8 -25.5 -13t-38.5 -5h-80v674z M897 836q47 0 47 36v533q0 37 -47 37h-35v-606h35zM1317 872q0 -39 -23 -55q-25 -20 -61 -20q-37 0 -62 20q-23 18 -22 55v533q0 35 22 53q20 20 62 21q41 0 61 -21q23 -16 23 -53v-533zM1274 1405q0 18 -12 31q-10 10 -29 10q-16 0 -31 -10q-10 -10 -10 -31v-533 q0 -23 10 -30q12 -12 31 -13q18 0 29 13q12 8 12 30v533zM1374 1475h62l61 -433q4 -33 10 -73.5t15 -87.5q-2 29 -3 53t-1 47q-2 23 -2 39v29v426h43v-674h-62l-65 430q-2 12 -3.5 29.5t-5.5 42.5q-4 23 -6 48t-6 54q2 -14 2 -27.5v-25.5v-22.5t2 -22.5v-35v-21v-450h-41 v674zM1745 1473h33l-23 -150h-47zM1849 868q0 -16 9 -24q8 -14 32 -15q20 0 31 11q12 8 12 30v115q0 23 -6 45q-4 10 -7 19.5t-7 21.5l-78 148q-14 25 -16 47q-8 23 -9 43v98q0 35 23 53q20 18 57 19q35 0 60 -15q20 -16 20 -49v-123h-39v119q0 35 -37 35q-18 0 -28 -10 q-10 -14 -11 -27v-104q0 -25 15 -64q10 -16 19 -34.5t20 -37.5q10 -18 19 -36.5t20 -34.5q4 -12 10 -24.5t10 -24.5q6 -25 6 -54v-127q0 -35 -18 -51q-20 -20 -64 -20q-43 0 -63 20q-18 23 -19 55v121h39v-125zM2048 1442h-66v33h175v-33h-68v-641h-41v641zM2302 997h-86 q-4 -25 -6 -49t-4 -49q-4 -25 -5 -49.5t-6 -48.5h-38l75 674h58l75 -674h-41zM2300 1030q-4 29 -6 54.5t-6 54.5q-4 27 -6.5 53.5t-6.5 54.5q-2 6 -2 21v9t-2 9q0 10 -1 18.5t-3 16.5t-2 15t-2 16q0 8 -1 14t-1 16q-4 20 -4 37v-35q-2 -10 -2 -18t-2 -18q-2 -12 -2 -24.5 t-2 -27.5l-6 -49q-2 -27 -4.5 -53.5t-6.5 -54.5q-4 -29 -6 -54.5t-6 -54.5h80zM2404 1475h86q35 0 56 -15q23 -14 22 -49v-197q0 -12 -2 -22t-6 -21q-12 -18 -35 -24q16 -6 31 -21q12 -12 12 -41v-284h-43v284q0 20 -10 33q-10 14 -37 15h-33v-332h-41v674zM2480 1165 q45 0 45 41v199q0 37 -41 37h-39v-277h35zM2763 1442h-66v33h172v-33h-65v-641h-41v641zM2890 1475h86q35 0 57 -15q20 -14 21 -49v-197q0 -25 -7 -43q-6 -8 -14 -14t-22 -10q20 -8 30 -21q8 -6 10.5 -17t2.5 -24v-284h-41v284q0 16 -13 33q-10 14 -34 15h-33v-332h-43v674z M2968 1165q45 0 45 41v199q0 37 -43 37h-37v-277h35zM3115 1475h133v-33h-90v-277h84v-32h-84v-297h96v-35h-139v674zM3287 1475h43v-674h-43v674zM3324 1159l92 316h41l-94 -316q12 -45 24.5 -89t26.5 -89q14 -47 26.5 -91t24.5 -89h-43zM3490 1473h47l-37 -150h-33z M1679 600q0 37 21 57q25 18 61 19q39 0 58 -19q20 -18 20 -55v-113h-43v107q0 20 -8 31q-6 16 -27 16q-20 0 -28 -12q-10 -6 -11 -27v-538q0 -14 11 -29q8 -8 28 -8t27 10q8 10 8 35v116h43v-120q0 -37 -20 -56q-20 -20 -58 -20q-35 0 -61 20q-20 18 -21 56v530zM1884 672 h86q35 0 55 -15q23 -18 23 -49v-198q0 -25 -10 -41q-6 -18 -35 -25q18 -6 33 -20q12 -16 12 -41v-283h-45v283q0 20 -8 30q-12 14 -37 15h-33v-328h-41v672zM1960 360q43 0 43 43v197q0 39 -39 39h-39v-279h35zM2107 672h134v-33h-89v-279h82v-32h-82v-295h95v-33h-140v672z M2406 193h-86q-2 -23 -4 -47.5t-6 -49.5q-2 -25 -4 -49t-6 -47h-39l76 672h55l80 -672h-45zM2404 227q-4 29 -6 54.5t-6 54.5q-4 27 -6 53.5t-6 52.5q-2 8 -2 21q0 4 -1 9t-1 9q0 16 -4 37q0 8 -1 15.5t-1 15.5q-4 20 -5 29q-2 10 -2 18t-2 18q0 -8 -1 -16t-1 -18v-18.5 t-2 -18.5q0 -12 -1 -24.5t-3 -24.5t-2 -25.5t-2 -26.5q-4 -27 -6 -52t-6 -54t-7 -55.5t-6 -53.5h80zM2537 639h-67v33h176v-33h-68v-639h-41v639zM2664 672h134v-33h-91v-279h84v-32h-84v-295h97v-33h-140v672zM2836 672h82q23 0 38.5 -4t27.5 -13q20 -14 20 -57v-526 q0 -41 -20 -56q-23 -16 -66 -16h-82v672zM2916 33q47 0 47 37v532q0 37 -47 37h-34v-606h34zM3168 672h82q35 0 58 -17q23 -16 22 -57v-195q0 -25 -12 -36q-10 -14 -31 -21q23 -6 35 -18q14 -18 14 -45v-211q0 -39 -22 -56q-18 -16 -56 -16h-90v672zM3248 360q20 0 31 15 q8 14 8 31v194q0 23 -8 29q-8 10 -33 10h-37v-279h39zM3209 328v-295h37q27 0 35 8q10 10 10 29v213q0 45 -43 45h-39zM3514 672h43l-77 -408v-264h-41v264q-4 23 -9.5 47.5t-9.5 50.5q-6 27 -11 53.5t-11 53.5q-4 29 -9.5 54.5t-11.5 51.5q-10 57 -18 97h45l55 -346z" />
<glyph unicode="&#xd3;" horiz-adv-x="3874" d="M0 1475h84q39 0 57 -17q20 -14 21 -55v-197q0 -27 -10 -39l-13.5 -9t-17.5 -7q20 -8 33 -18q14 -16 14 -48v-208q0 -43 -23 -58q-23 -18 -51 -18h-94v674zM80 1165q27 0 33 15q8 10 8 28v197q0 18 -10 29q-6 8 -33 8h-35v-277h37zM43 1133v-297h35q29 0 37 10q12 6 12 26 v213q0 47 -47 48h-37zM350 997h-86q-2 -25 -3 -49t-5 -49t-6 -49.5t-4 -48.5h-39l74 674h57l78 -674h-43zM348 1030q-2 51 -12 109q-4 27 -5 53.5t-5 54.5q-2 6 -2 21q-2 4 -2 9t-3 9q0 10 -1 18.5t-3 16.5q0 8 -1 15t-1 16q0 8 -1 14t-1 16q-2 8 -2 17.5t-2 19.5 q0 -10 -1 -18t-1 -17q-2 -10 -2 -18t-2 -18q-2 -12 -2 -24.5t-2 -27.5v-24t-2 -25q-4 -27 -7 -53.5t-7 -54.5q-2 -29 -5.5 -54.5t-7.5 -54.5h80zM479 868q0 -16 6 -24q8 -14 33 -15q23 0 33 11q10 10 10 30v115q0 12 -1 23.5t-3 21.5q-4 10 -7 19.5t-9 21.5l-76 148 q-12 23 -19 47q-6 25 -6 43v98q0 35 21 53q20 18 59 19q37 0 60 -15q18 -16 18 -49v-123h-39v119q0 35 -37 35q-20 0 -26 -10q-12 -12 -13 -27v-104q0 -27 17 -64q10 -16 18 -34.5t19 -37.5q10 -18 19 -36.5t19 -34.5q6 -12 11.5 -24.5t9.5 -24.5t6 -24.5t2 -29.5v-127 q0 -33 -20 -51q-16 -20 -62 -20q-43 0 -63 20q-18 18 -19 55v121h39v-125zM649 1475h133v-33h-92v-277h84v-32h-84v-297h96v-35h-137v674zM821 1475h82q45 0 64 -17q23 -16 22 -55v-526q0 -41 -22 -58q-10 -8 -25.5 -13t-38.5 -5h-82v674zM899 836q47 0 47 36v533 q0 37 -47 37h-35v-606h35zM1317 872q0 -37 -21 -55q-25 -20 -61 -20q-37 0 -61 20q-23 18 -23 55v533q0 35 23 53q20 20 61 21q41 0 61 -21q20 -18 21 -53v-533zM1276 1405q0 18 -12 31q-10 10 -29 10q-20 0 -31 -10q-12 -12 -12 -31v-533q0 -23 12 -30q8 -12 31 -13 q18 0 29 13q12 8 12 30v533zM1376 1475h60l63 -433q4 -33 10.5 -73.5t14.5 -87.5q-2 29 -3 53t-3 47q0 23 -1 39t-1 29v426h45v-674h-64l-63 430q-2 12 -3 29.5t-6 42.5q-4 23 -7 48t-7 54q2 -14 2 -27.5v-25.5q2 -10 2 -22.5v-22.5q2 -10 2 -17.5v-17.5v-21v-450h-41v674z M1747 1473h33l-23 -150h-47zM1851 868q0 -16 9 -24q8 -14 30 -15q23 0 33 11q10 8 10 30v115v23.5t-4 21.5t-7 19.5t-7 21.5l-80 148q-4 10 -8 21t-8 26q-6 25 -7 43v98q0 35 21 53q25 18 59 19q35 0 60 -15q18 -16 18 -49v-123h-37v119q0 35 -39 35q-20 0 -26 -10 q-10 -14 -10 -27v-104q0 -25 14 -64q10 -16 19.5 -34.5t19.5 -37.5q10 -18 19 -36.5t20 -34.5q4 -12 9 -24.5t9 -24.5q8 -23 8 -54v-127q0 -33 -18 -51q-20 -20 -64 -20q-43 0 -63 20q-18 16 -19 55v121h39v-125zM2050 1442h-65v33h172v-33h-66v-641h-41v641zM2304 997h-86 l-12 -98q-2 -25 -4 -49.5t-4 -48.5h-39l75 674h56l77 -674h-43zM2300 1030q-4 29 -6 54.5t-4 54.5q-4 27 -6.5 53.5t-6.5 54.5q-4 12 -4 21v18q-2 10 -2 18.5t-2 16.5t-2 15t-2 16q0 8 -1 14t-3 16q0 8 -1 17.5t-1 19.5q-2 -10 -2 -18v-17q0 -10 -1 -18t-1 -18 q-2 -12 -3 -24.5t-1 -27.5l-6 -49q-4 -27 -5.5 -53.5t-5.5 -54.5q-10 -57 -12 -109h78zM2406 1475h86q35 0 56 -15q23 -16 22 -49v-197q0 -23 -10 -43q-8 -18 -35 -24q18 -6 33 -21q12 -16 12 -41v-284h-43v284q0 16 -12 33q-10 14 -37 15h-31v-332h-41v674zM2480 1165 q47 0 47 41v199q0 37 -43 37h-37v-277h33zM2873 1229q-2 6 -2 22q0 10 -4 27q0 10 -1 18.5t-1 16.5t-1 16t-1 14q-2 8 -2 15.5t-2 15.5q0 8 -1 17.5t-1 19.5q-2 -10 -2 -20.5t-2 -20.5v-21.5t-2 -21.5q0 -12 -1 -24.5t-3 -24.5v-51l-37 -426h-55l-48 674h39l27 -410 q0 -14 2 -23v-24q2 -10 2 -20.5t2 -18.5v-37q0 -8 1 -17.5t1 -19.5t1 -19t1 -22q2 12 3 24.5t1 24.5t1 24.5t1 25.5q2 12 2 24t2 27v24.5t3 26.5l34 410h58l37 -410q2 -14 2 -26.5t2 -22.5q2 -12 2 -22.5t2 -20.5v-21.5t2 -21.5q0 -10 1 -23.5t3 -27.5v28q2 8 2 15.5v13.5 q0 16 1 31.5t3 31.5q0 16 1 33t1 33l31 410h39l-51 -674h-54zM3170 997h-86q-2 -25 -4 -49t-6 -49t-5 -49.5t-3 -48.5h-39l74 674h57l78 -674h-43zM3168 1030q-4 29 -6 54.5t-6 54.5q-4 27 -5 53.5t-5 54.5q-2 4 -2 9.5t-2 11.5v9t-2 9q-2 10 -2 18.5t-3 16.5q0 20 -2 31 q0 8 -1 14t-3 16q0 8 -1 17.5t-1 19.5q-2 -10 -2 -18t-2 -17v-18t-2 -18q-2 -12 -3 -24.5t-1 -27.5q0 -12 -1 -24t-3 -25q-4 -27 -6 -53.5t-6 -54.5q-4 -29 -6.5 -54.5t-6.5 -54.5h80zM3273 1475h86q37 0 57 -15q23 -16 23 -49v-197q0 -23 -11 -43q-4 -8 -12 -14t-25 -10 q20 -6 33 -21q14 -14 15 -41v-284h-45v284q0 16 -11 33q-10 14 -35 15h-32v-332h-43v674zM3351 1165q43 0 43 41v199q0 37 -39 37h-39v-277h35zM3523 868q0 -16 8 -24q8 -14 33 -15q20 0 30 11q12 8 13 30v115q0 23 -7 45q-2 10 -6 19.5t-8 21.5l-78 148q-4 10 -9 21t-9 26 q-2 12 -4 22t-2 21v98q0 37 22 53q20 18 58 19q20 0 34.5 -4.5t26.5 -10.5q16 -14 16 -49v-123h-37v119q0 35 -36 35q-18 0 -29 -10q-10 -14 -10 -27v-104q0 -25 14 -64q10 -16 19.5 -34.5t19.5 -37.5q10 -18 19.5 -36.5t19.5 -34.5q4 -12 10 -24.5t10 -24.5q6 -25 6 -54 v-127q0 -33 -18 -51q-20 -20 -63 -20q-45 0 -62 20q-20 18 -20 55v121h39v-125zM3705 1473h47l-37 -150h-33zM1894 600q0 37 23 57q20 18 59 19q35 0 60 -19q18 -18 18 -55v-113h-43v107q0 20 -8 31q-6 16 -27 16q-20 0 -28 -12q-12 -6 -13 -27v-538q0 -16 13 -29 q8 -8 28 -8t27 10q8 10 8 35v116h43v-120q0 -37 -18 -56q-12 -10 -25.5 -15t-34.5 -5q-35 0 -59 20q-23 16 -23 56v530zM2099 672h84q37 0 58 -15q23 -16 22 -49v-198q0 -20 -8 -41q-10 -18 -37 -25q18 -6 33 -20q4 -8 8 -18.5t4 -22.5v-283h-43v283q0 18 -12 30 q-8 14 -37 15h-31v-328h-41v672zM2173 360q47 0 47 43v197q0 39 -43 39h-37v-279h33zM2324 672h134v-33h-93v-279h84v-32h-84v-295h97v-33h-138v672zM2621 193h-86q-4 -23 -6 -47.5t-4 -49.5q-4 -25 -5 -49t-5 -47h-39l76 672h57l76 -672h-41zM2619 227q-4 29 -6 54.5 t-6 54.5q-4 27 -6 53.5t-6 52.5q0 14 -2 21q0 12 -2 18q0 16 -4 37q-2 8 -2 15.5t-2 15.5q0 8 -1.5 15t-1.5 14q-2 10 -3 18t-1 18v-34q-2 -10 -2 -18.5t-2 -18.5q-2 -12 -2 -24.5t-2 -24.5t-3 -25.5t-3 -26.5q-2 -27 -4 -52t-6 -54t-6 -55.5t-6 -53.5h79zM2750 639h-65v33 h176v-33h-65v-639h-46v639zM2882 672h131v-33h-91v-279h84v-32h-84v-295h97v-33h-137v672zM3052 672h83q41 0 64 -17q20 -14 20 -57v-526q0 -41 -20 -56q-18 -16 -64 -16h-83v672zM3131 33q47 0 47 37v532q0 37 -47 37h-34v-606h34zM3383 672h82q18 0 31.5 -4t26.5 -13 q23 -14 22 -57v-195q0 -25 -12 -36q-10 -14 -31 -21q10 -4 18.5 -7t16.5 -11q12 -16 12 -45v-211q0 -39 -20 -56q-18 -16 -56 -16h-90v672zM3461 360q25 0 33 15q8 14 8 31v194q0 23 -8 29q-6 10 -35 10h-35v-279h37zM3424 328v-295h35q29 0 37 8q10 8 10 29v213 q0 45 -45 45h-37zM3727 672h45l-77 -408v-264h-41v264q-6 23 -10.5 47.5t-10.5 50.5q-4 27 -9 53.5t-11 53.5q-4 29 -9.5 54.5t-11.5 51.5q-10 57 -18 97h45l57 -346z" />
</font>
</defs>
</svg>
